<svg width="456" height="787" viewBox="0 0 456 787" fill="none" xmlns="http://www.w3.org/2000/svg">
<g opacity="0.9" filter="url(#filter0_i_1701_6)">
<path fill-rule="evenodd" clip-rule="evenodd" d="M98.7096 354.688C44.7178 401.802 39.1424 483.764 86.2566 537.756C133.371 591.748 215.333 597.323 269.325 550.209C272.686 547.276 275.859 544.209 278.844 541.021C355.561 622.266 483.438 629.029 568.377 554.91C609.757 518.801 633.497 469.996 638.858 419.375C665.685 422.087 693.525 414.115 715.444 394.989C757.474 358.313 761.814 294.51 725.138 252.48C708.281 233.162 685.693 221.806 662.122 218.736C663.558 196.604 656.586 173.921 640.852 155.89C625.651 138.47 605.04 128.565 583.711 126.494C580.227 120.4 576.092 114.558 571.299 109.065C532.239 64.3029 464.287 59.6806 419.524 98.7412C391.449 123.24 379.164 159.104 383.544 193.484C351.16 200.969 320.096 216.301 293.303 239.681C263.92 265.321 243.432 297.362 232.102 331.91C188.349 314.498 136.631 321.597 98.7096 354.688ZM345.821 169.605C341.501 164.655 342.012 157.141 346.962 152.821C351.912 148.502 359.427 149.013 363.746 153.963C368.066 158.913 367.555 166.427 362.605 170.747C357.655 175.066 350.14 174.555 345.821 169.605Z" fill="url(#paint0_radial_1701_6)" fill-opacity="0.4"/>
</g>
<defs>
<filter id="filter0_i_1701_6" x="54.2656" y="72.2202" width="705.773" height="538.264" filterUnits="userSpaceOnUse" color-interpolation-filters="sRGB">
<feFlood flood-opacity="0" result="BackgroundImageFix"/>
<feBlend mode="normal" in="SourceGraphic" in2="BackgroundImageFix" result="shape"/>
<feColorMatrix in="SourceAlpha" type="matrix" values="0 0 0 0 0 0 0 0 0 0 0 0 0 0 0 0 0 0 127 0" result="hardAlpha"/>
<feOffset dx="10" dy="4"/>
<feGaussianBlur stdDeviation="12"/>
<feComposite in2="hardAlpha" operator="arithmetic" k2="-1" k3="1"/>
<feColorMatrix type="matrix" values="0 0 0 0 0.568627 0 0 0 0 0.462745 0 0 0 0 1 0 0 0 0.3 0"/>
<feBlend mode="normal" in2="shape" result="effect1_innerShadow_1701_6"/>
</filter>
<radialGradient id="paint0_radial_1701_6" cx="0" cy="0" r="1" gradientUnits="userSpaceOnUse" gradientTransform="translate(424.905 338.038) rotate(107.543) scale(317.917 328.447)">
<stop stop-color="white" stop-opacity="0"/>
<stop offset="0.970545" stop-color="#CFFDFF"/>
</radialGradient>
</defs>
</svg>
