<svg width="182" height="77" viewBox="0 0 182 77" fill="none" xmlns="http://www.w3.org/2000/svg">
<path d="M51.9632 13.4237C51.9632 12.2301 51.4997 11.2717 50.5728 10.5483C49.6815 9.82496 48.3624 9.46328 46.6154 9.46328C45.0468 9.46328 43.7277 9.8973 42.6581 10.7653C41.5886 11.5972 40.8755 12.9716 40.519 14.8885L31 12.9897C31.6061 9.4452 33.1926 6.56985 35.7595 4.36361C38.3264 2.1212 42.1412 1 47.2037 1C51.981 1 55.6175 2.08504 58.1131 4.25511C60.6444 6.42518 61.91 9.39095 61.91 13.1524C61.91 16.082 61.09 18.4329 59.4501 20.2051C57.8457 21.9412 55.6353 23.7315 52.8188 25.5761L46.8294 29.4822H61.91V38.4338H36.7203C33.8859 38.4338 31.5883 36.1361 31.5883 33.3017V33.3017C31.5883 31.2897 32.5988 29.4122 34.2782 28.3041L45.8133 20.6934C48.1663 19.1382 49.7706 17.8904 50.6263 16.95C51.5176 15.9735 51.9632 14.798 51.9632 13.4237Z" stroke="#1958FA" stroke-width="1.5"/>
<path d="M94.6195 38.4338H85.7422V31.2725H72.5654C68.7377 31.2725 65.6347 28.1695 65.6347 24.3417V24.3417C65.6347 22.6419 66.1815 20.9872 67.1943 19.6221L78.5094 4.37156C79.8298 2.59186 81.915 1.54252 84.131 1.54252H88.6195C91.9332 1.54252 94.6195 4.22881 94.6195 7.54252V23.1347H98.7373V31.2725H94.6195V38.4338ZM75.8727 21.5347C75.3782 22.1939 75.8485 23.1347 76.6726 23.1347H85.7422V11.3777C85.7422 10.4168 84.5189 10.0089 83.9423 10.7776L75.8727 21.5347Z" stroke="#1958FA" stroke-width="1.5"/>
<path d="M119.052 72.4801L134.807 45.3566C135.195 44.69 134.714 43.8543 133.943 43.8543H115.605V35.0464H137.726C142.246 35.0464 145.909 38.7099 145.909 43.229C145.909 44.649 145.539 46.0446 144.837 47.2785L130.484 72.4801H119.052Z" fill="url(#paint0_linear_1505_2354)"/>
<path d="M3.59375 71.6333L25.1682 56.0699" stroke="#1958FA" stroke-width="1.5" stroke-linecap="round"/>
<path d="M6.94531 46.7195L18.0048 49.4525" stroke="#1958FA" stroke-width="1.5" stroke-linecap="round"/>
<path d="M174.672 4.00024L155.239 22.1675" stroke="#1958FA" stroke-width="1.5" stroke-linecap="round"/>
<path d="M174.5 29.1377L163.184 27.8255" stroke="#1958FA" stroke-width="1.5" stroke-linecap="round"/>
<path d="M125.002 20.5002L60.5015 76.0001M127.502 18.5002L138.502 9.50018" stroke="#1958FA" stroke-width="1.5" stroke-linecap="round"/>
<defs>
<linearGradient id="paint0_linear_1505_2354" x1="130.757" y1="35.0464" x2="130.757" y2="72.4801" gradientUnits="userSpaceOnUse">
<stop stop-color="#ACE34D"/>
<stop offset="1" stop-color="#68CEFF"/>
</linearGradient>
</defs>
</svg>
