<svg width="141" height="94" viewBox="0 0 141 94" fill="none" xmlns="http://www.w3.org/2000/svg">
<path d="M98.9989 29.8192C98.9986 26.0874 97.5906 22.4931 95.056 19.7541C92.5214 17.0152 89.0469 15.3332 85.3263 15.0441C81.6058 14.755 77.9131 15.8801 74.9859 18.1946C72.0586 20.5092 70.1122 23.8428 69.5355 27.5297C69.19 25.3186 68.3481 23.2145 67.073 21.3753C65.7979 19.5361 64.1228 18.0096 62.1734 16.9104C60.224 15.8112 58.0509 15.1679 55.8172 15.0287C53.5836 14.8895 51.3475 15.2581 49.2767 16.1067C47.2059 16.9554 45.3542 18.2621 43.8606 19.9288C42.3671 21.5954 41.2705 23.5788 40.6531 25.7299C40.0357 27.881 39.9136 30.144 40.296 32.3491C40.6783 34.5542 41.5552 36.644 42.8608 38.4617L69.5196 66.6913L95.5616 39.317C97.7887 36.6538 99.0057 33.2908 98.9989 29.8192Z" fill="url(#paint0_linear_1505_2383)"/>
<path d="M99 32.0474C98.9997 28.51 97.6615 25.1029 95.2525 22.5066C92.8436 19.9102 89.5413 18.3158 86.0052 18.0418C82.4691 17.7677 78.9595 18.8342 76.1773 21.0282C73.3952 23.2223 71.5453 26.3823 70.9972 29.8773C70.6687 27.7813 69.8686 25.7867 68.6567 24.0433C67.4448 22.2999 65.8528 20.8529 64 19.8109C62.1472 18.769 60.0818 18.1591 57.9589 18.0272C55.836 17.8952 53.7107 18.2446 51.7426 19.0491C49.7744 19.8535 48.0145 21.0922 46.595 22.6721C45.1755 24.252 44.1332 26.132 43.5465 28.1711C42.9597 30.2102 42.8437 32.3554 43.2071 34.4457C43.5705 36.5359 44.4039 38.5169 45.6447 40.2399L70.982 66.9995L95.7331 41.0507C97.8497 38.5262 99.0065 35.3383 99 32.0474V32.0474Z" stroke="#1958FA" stroke-linecap="round" stroke-linejoin="round"/>
<path d="M52.4648 42.6464H60.853L63.9468 31.104L67.4255 52.5513L69.8802 42.6464H76.4909L78.4369 31.104L81.7247 52.5513L83.6675 42.6464H92.7902" stroke="white" stroke-linecap="round" stroke-linejoin="round"/>
<path d="M126.672 1.99951L107.239 20.1667" stroke="#1958FA" stroke-width="1.5" stroke-linecap="round"/>
<path d="M126.5 27.137L115.184 25.8248" stroke="#1958FA" stroke-width="1.5" stroke-linecap="round"/>
<path d="M7 19.0256L29.1118 20.2303" stroke="#1958FA" stroke-width="1.5" stroke-linecap="round"/>
<path d="M22.1992 4.64307L27.9321 12.1972" stroke="#1958FA" stroke-width="1.5" stroke-linecap="round"/>
<path d="M85 89.1663C91 92.6663 97 93.1663 97.5 93.1663C98 93.1663 101 89.6663 101 89.6663C101 89.6663 101.5 88.7837 101.5 88.1663C101.5 87.5488 101 86.6663 101 86.6663L86 71.6663C86 71.6663 85 70.6663 84 70.6663C83 70.6663 82 71.6663 82 71.6663C82 71.6663 73.5 79.6663 73.5 80.1663C73.5 80.6663 79 85.6663 85 89.1663Z" stroke="#1958FA" stroke-width="1.5" stroke-linecap="round"/>
<path d="M86.5 71.6663L96 62.6663C96 62.6663 100 59.6663 103.5 58.6663C107 57.6663 109 58.1663 110 57.6663C111 57.1663 118 50.1665 118 50.1665C118 50.1665 122 47.1664 124.5 49.6663C125.248 50.4145 125.504 51.2969 125.495 52.1663M112 67.6663L124 56.1663C124 56.1663 125.473 54.2021 125.495 52.1663M100.5 85.6663L120.5 76.1663C120.5 76.1663 126 73.1664 127.5 71.6663C129 70.1663 131 65.1663 131 65.1663L139.5 37.6663C139.5 37.6663 139.5 34.1663 137 33.6663C134.5 33.1663 133 36.1663 133 36.1663L125.495 52.1663" stroke="#1958FA" stroke-width="1.5" stroke-linecap="round"/>
<path d="M55.5 89.1663C49.5 92.6663 43.5 93.1663 43 93.1663C42.5 93.1663 39.5 89.6663 39.5 89.6663C39.5 89.6663 39 88.7837 39 88.1663C39 87.5488 39.5 86.6663 39.5 86.6663L54.5 71.6663C54.5 71.6663 55.5 70.6663 56.5 70.6663C57.5 70.6663 58.5 71.6663 58.5 71.6663C58.5 71.6663 67 79.6663 67 80.1663C67 80.6663 61.5 85.6663 55.5 89.1663Z" stroke="#1958FA" stroke-width="1.5" stroke-linecap="round"/>
<path d="M54 71.6663L44.5 62.6663C44.5 62.6663 40.5 59.6663 37 58.6663C33.5 57.6663 31.5 58.1663 30.5 57.6663C29.5 57.1663 22.5 50.1665 22.5 50.1665C22.5 50.1665 18.5 47.1664 16 49.6663C15.2519 50.4145 14.9963 51.2969 15.0054 52.1663M28.5 67.6663L16.5 56.1663C16.5 56.1663 15.0269 54.2021 15.0054 52.1663M40 85.6663L20 76.1663C20 76.1663 14.5 73.1664 13 71.6663C11.5 70.1663 9.5 65.1663 9.5 65.1663L1 37.6663C1 37.6663 1 34.1663 3.5 33.6663C6 33.1663 7.5 36.1663 7.5 36.1663L15.0054 52.1663" stroke="#1958FA" stroke-width="1.5" stroke-linecap="round"/>
<defs>
<linearGradient id="paint0_linear_1505_2383" x1="69.5385" y1="14.9995" x2="69.5385" y2="66.6913" gradientUnits="userSpaceOnUse">
<stop stop-color="#ACE34D"/>
<stop offset="1" stop-color="#68CEFF"/>
</linearGradient>
</defs>
</svg>
