<svg width="141" height="99" viewBox="0 0 141 99" fill="none" xmlns="http://www.w3.org/2000/svg">
<path d="M69.4536 96.9817L69.1259 96.3071C69.1194 96.3102 69.113 96.3135 69.1066 96.3168L69.4536 96.9817ZM66.3155 96.9817L66.6515 96.3112L66.6514 96.3111L66.3155 96.9817ZM45.2882 69.6318L45.8873 69.1806L45.8871 69.1803L45.2882 69.6318ZM91.1455 69.6318L91.7375 70.0922L91.7376 70.0921L91.1455 69.6318ZM66.9088 88.4819L66.5353 89.1324L66.9088 88.4819ZM68.818 88.4947L68.4534 87.8393L68.818 88.4947ZM67.6358 9.21365L67.8437 9.93427L67.6358 9.21365ZM68.7388 9.21202L68.533 9.93325L68.7388 9.21202ZM36.9911 18.0532L37.199 18.7738L36.9911 18.0532ZM68.0172 97.8345L68.3532 97.164L68.0172 97.8345ZM67.8164 97.8361L68.1634 98.501L67.8164 97.8361ZM68.0614 97.8567L68.3975 97.1862L68.0614 97.8567ZM68.4573 97.5016L68.1103 96.8367L68.4573 97.5016ZM68.3622 1.10482L68.1561 1.82594L68.3622 1.10482ZM68.3391 1.08256L68.5469 1.80317L68.3391 1.08256ZM68.3044 1.08827L68.5105 0.367155L68.3044 1.08827ZM68.3193 1.08826L68.1114 0.367637L68.3193 1.08826ZM67.3882 97.5193L67.0521 98.1898L67.3882 97.5193ZM67.9377 1.19833L68.1455 1.91895L67.9377 1.19833ZM67.7771 97.8566L67.4301 97.1917L67.7771 97.8566ZM99.742 18.0562L99.5363 18.7774L99.742 18.0562ZM68.1098 1.03267L68.316 0.31155L68.1098 1.03267ZM68.5105 0.367155L68.316 0.31155L67.9037 1.75379L68.0982 1.80939L68.5105 0.367155ZM68.1312 0.361938L68.1114 0.367637L68.5272 1.80887L68.5469 1.80317L68.1312 0.361938ZM108.756 11.871L68.5684 0.3837L68.1561 1.82594L108.344 13.3133L108.756 11.871ZM110.75 44.3514V14.5151H109.25V44.3514H110.75ZM69.7813 97.6563C93.8022 85.9879 110.75 64.1346 110.75 44.3514H109.25C109.25 63.3492 92.8519 84.7819 69.1259 96.3071L69.7813 97.6563ZM68.8043 98.1665L69.8006 97.6466L69.1066 96.3168L68.1103 96.8367L68.8043 98.1665ZM67.6811 98.505L67.7254 98.5272L68.3975 97.1862L68.3532 97.164L67.6811 98.505ZM68.1241 98.5215L68.1634 98.501L67.4694 97.1712L67.4301 97.1917L68.1241 98.5215ZM65.9794 97.6522L67.0521 98.1898L67.7242 96.8487L66.6515 96.3112L65.9794 97.6522ZM26.25 44.3514C26.25 64.1221 42.6765 85.9781 65.9795 97.6522L66.6514 96.3111C43.6571 84.7917 27.75 63.3617 27.75 44.3514H26.25ZM26.25 14.5114V44.3514H27.75V14.5114H26.25ZM67.7298 0.477714L28.2378 11.8691L28.6536 13.3103L68.1455 1.91895L67.7298 0.477714ZM37.199 18.7738L67.8437 9.93427L67.428 8.49303L36.7832 17.3326L37.199 18.7738ZM36.2954 44.3514V19.9749H34.7954V44.3514H36.2954ZM45.8871 69.1803C39.6724 60.937 36.2954 52.1135 36.2954 44.3514H34.7954C34.7954 52.5276 38.3392 61.6604 44.6893 70.0833L45.8871 69.1803ZM67.2822 87.8315C58.9 83.0186 51.3971 76.496 45.8873 69.1806L44.6891 70.083C50.3288 77.571 57.9892 84.2253 66.5353 89.1324L67.2822 87.8315ZM90.5534 69.1714C84.8621 76.4899 77.1138 83.0229 68.4534 87.8393L69.1825 89.1502C78.0056 84.2433 85.9131 77.5819 91.7375 70.0922L90.5534 69.1714ZM100.443 44.3514C100.443 52.1057 96.9634 60.9272 90.5534 69.1714L91.7376 70.0921C98.2858 61.6701 101.943 52.5333 101.943 44.3514H100.443ZM100.443 19.9795V44.3514H101.943V19.9795H100.443ZM68.533 9.93325L99.5363 18.7774L99.9478 17.335L68.9445 8.49079L68.533 9.93325ZM66.5353 89.1324C67.3539 89.6023 68.358 89.6087 69.1825 89.1502L68.4534 87.8393C68.0883 88.0424 67.6442 88.0394 67.2822 87.8315L66.5353 89.1324ZM67.8437 9.93427C68.0688 9.86932 68.3077 9.86897 68.533 9.93325L68.9445 8.49079C68.4488 8.34938 67.9233 8.35015 67.428 8.49303L67.8437 9.93427ZM36.7832 17.3326C35.606 17.6722 34.7954 18.7496 34.7954 19.9749H36.2954C36.2954 19.4179 36.6639 18.9282 37.199 18.7738L36.7832 17.3326ZM27.75 14.5114C27.75 13.9544 28.1184 13.4647 28.6536 13.3103L28.2378 11.8691C27.0606 12.2087 26.25 13.2861 26.25 14.5114H27.75ZM68.3532 97.164C68.0745 97.0243 67.7457 97.027 67.4694 97.1712L68.1634 98.501C68.0126 98.5797 67.8332 98.5812 67.6811 98.505L68.3532 97.164ZM67.6002 97.6784C67.6002 97.2689 68.0313 97.0027 68.3975 97.1862L67.7254 98.5272C68.3567 98.8436 69.1002 98.3846 69.1002 97.6784H67.6002ZM68.1103 96.8367C67.7968 97.0004 67.6002 97.3247 67.6002 97.6784H69.1002C69.1002 97.8835 68.9862 98.0716 68.8043 98.1665L68.1103 96.8367ZM108.344 13.3133C108.88 13.4666 109.25 13.9571 109.25 14.5151H110.75C110.75 13.2874 109.936 12.2085 108.756 11.871L108.344 13.3133ZM67.6038 1.09368C67.6038 1.43386 67.8294 1.73254 68.1561 1.82594L68.5684 0.3837C68.8852 0.474252 69.1038 0.763845 69.1038 1.09368H67.6038ZM68.5469 1.80317C68.0748 1.93936 67.6038 1.58505 67.6038 1.09368H69.1038C69.1038 0.586902 68.6181 0.22148 68.1312 0.361938L68.5469 1.80317ZM68.0982 1.80939C68.2384 1.84947 68.3871 1.84929 68.5272 1.80887L68.1114 0.367637C68.2418 0.330039 68.3801 0.329872 68.5105 0.367155L68.0982 1.80939ZM68.2446 97.6761C68.2387 97.3249 68.0382 97.0061 67.7242 96.8487L67.0521 98.1898C66.8667 98.0969 66.7483 97.9086 66.7448 97.7012L68.2446 97.6761ZM67.25 1.11553C67.25 0.819769 67.4456 0.559684 67.7298 0.477714L68.1455 1.91895C68.5035 1.8157 68.75 1.48809 68.75 1.11553H67.25ZM67.4301 97.1917C67.7973 97.0001 68.2377 97.262 68.2446 97.6761L66.7448 97.7012C66.7566 98.4025 67.5024 98.846 68.1241 98.5215L67.4301 97.1917ZM101.943 19.9795C101.943 18.7513 101.129 17.6719 99.9478 17.335L99.5363 18.7774C100.073 18.9306 100.443 19.4212 100.443 19.9795H101.943ZM68.75 1.11553C68.75 1.55659 68.3278 1.87501 67.9037 1.75379L68.316 0.31155C67.7818 0.158856 67.25 0.559947 67.25 1.11553H68.75Z" fill="#1958FA"/>
<path fill-rule="evenodd" clip-rule="evenodd" d="M88.2261 30.1885C87.4451 29.4075 86.1787 29.4075 85.3977 30.1885L69.2404 46.3458C68.4593 47.1269 67.193 47.1269 66.4119 46.3458L60.4675 40.4014C59.6865 39.6204 58.4202 39.6204 57.6391 40.4014L52.7889 45.2516C52.0079 46.0327 52.0079 47.299 52.7889 48.08L66.2302 61.5213C66.3043 61.5954 66.3827 61.6624 66.4646 61.7224C67.2482 62.4677 68.4876 62.4558 69.2566 61.6868L93.0763 37.8671C93.8573 37.0861 93.8573 35.8197 93.0763 35.0387L88.2261 30.1885Z" fill="url(#paint0_linear_1505_2365)"/>
<path d="M81.0227 30.1885L81.553 30.7188L81.0227 30.1885ZM56.0925 40.4015L56.6228 39.8712L56.6228 39.8712L56.0925 40.4015ZM53.264 40.4015L53.7944 40.9318L53.264 40.4015ZM48.4138 45.2517L47.8835 44.7214L48.4138 45.2517ZM48.4138 48.0801L48.9442 47.5498L48.9442 47.5498L48.4138 48.0801ZM61.8551 61.5214L61.3248 62.0517L61.8551 61.5214ZM62.0902 61.723L62.6069 61.1793C62.5836 61.1572 62.559 61.1366 62.5331 61.1177L62.0902 61.723ZM64.8653 46.3459L65.3956 46.8762L64.8653 46.3459ZM62.0369 46.3459L61.5065 46.8762L62.0369 46.3459ZM73.1481 37.0024C72.8552 37.2953 72.8552 37.7702 73.1481 38.0631C73.441 38.356 73.9158 38.356 74.2087 38.0631L73.1481 37.0024ZM72.7399 39.532C73.0328 39.2391 73.0328 38.7642 72.7399 38.4713C72.447 38.1784 71.9721 38.1784 71.6792 38.4713L72.7399 39.532ZM63.5406 46.1785C63.1274 46.2079 62.8163 46.5666 62.8457 46.9798C62.875 47.393 63.2338 47.7041 63.647 47.6747L63.5406 46.1785ZM63.2552 47.6747C63.6684 47.7041 64.0271 47.393 64.0565 46.9798C64.0859 46.5666 63.7747 46.2079 63.3616 46.1785L63.2552 47.6747ZM59.8652 43.1136C59.5723 42.8207 59.0974 42.8207 58.8045 43.1136C58.5116 43.4065 58.5116 43.8813 58.8045 44.1742L59.8652 43.1136ZM58.2641 43.6338C58.557 43.9267 59.0319 43.9267 59.3248 43.6338C59.6177 43.3409 59.6177 42.8661 59.3248 42.5732L58.2641 43.6338ZM54.8741 39.0727C54.461 39.0433 54.1022 39.3544 54.0728 39.7676C54.0435 40.1808 54.3546 40.5395 54.7678 40.5689L54.8741 39.0727ZM54.5887 40.5689C55.0019 40.5395 55.313 40.1808 55.2837 39.7676C55.2543 39.3544 54.8955 39.0433 54.4824 39.0727L54.5887 40.5689ZM50.5291 42.0758C50.2362 42.3687 50.2362 42.8436 50.5291 43.1365C50.822 43.4293 51.2968 43.4293 51.5897 43.1365L50.5291 42.0758ZM51.1488 43.5774C51.4417 43.2845 51.4417 42.8096 51.1488 42.5167C50.8559 42.2238 50.381 42.2238 50.0881 42.5167L51.1488 43.5774ZM47.085 46.47C47.0556 46.8832 47.3668 47.2419 47.7799 47.2713C48.1931 47.3007 48.5519 46.9896 48.5812 46.5764L47.085 46.47ZM48.5812 46.7554C48.5519 46.3422 48.1931 46.0311 47.7799 46.0605C47.3668 46.0899 47.0556 46.4486 47.085 46.8618L48.5812 46.7554ZM53.9932 54.7201C54.2861 55.013 54.7609 55.013 55.0538 54.7201C55.3467 54.4272 55.3467 53.9523 55.0538 53.6594L53.9932 54.7201ZM56.2758 54.8814C55.9829 54.5885 55.508 54.5885 55.2151 54.8814C54.9222 55.1743 54.9222 55.6491 55.2151 55.942L56.2758 54.8814ZM61.4659 62.1833C61.7784 62.4552 62.2521 62.4222 62.524 62.1097C62.7958 61.7972 62.7629 61.3235 62.4504 61.0516L61.4659 62.1833ZM62.4638 61.0631C62.1475 60.7957 61.6743 60.8353 61.4068 61.1515C61.1394 61.4678 61.1789 61.941 61.4952 62.2085L62.4638 61.0631ZM63.3102 63.0181C63.7237 63.0417 64.078 62.7256 64.1016 62.312C64.1252 61.8985 63.8091 61.5442 63.3955 61.5206L63.3102 63.0181ZM63.5716 61.5183C63.1588 61.5525 62.8519 61.9149 62.8861 62.3277C62.9203 62.7405 63.2826 63.0474 63.6954 63.0132L63.5716 61.5183ZM76.2391 51.39C76.5319 51.0971 76.5319 50.6223 76.2391 50.3294C75.9462 50.0365 75.4713 50.0365 75.1784 50.3294L76.2391 51.39ZM77.3438 48.1639C77.0509 48.4568 77.0509 48.9317 77.3438 49.2246C77.6367 49.5175 78.1116 49.5175 78.4045 49.2246L77.3438 48.1639ZM90.0301 36.6488C90.0595 36.2356 89.7484 35.8769 89.3352 35.8475C88.922 35.8181 88.5633 36.1292 88.5339 36.5424L90.0301 36.6488ZM88.5339 36.3634C88.5633 36.7766 88.922 37.0877 89.3352 37.0583C89.7484 37.029 90.0595 36.6702 90.0301 36.257L88.5339 36.3634ZM87.027 32.3037C86.7341 32.0108 86.2592 32.0108 85.9663 32.3037C85.6734 32.5966 85.6734 33.0715 85.9663 33.3644L87.027 32.3037ZM85.5254 32.9235C85.8183 33.2164 86.2932 33.2164 86.5861 32.9235C86.879 32.6306 86.879 32.1557 86.5861 31.8628L85.5254 32.9235ZM82.6328 28.8597C82.2196 28.8303 81.8608 29.1414 81.8315 29.5546C81.8021 29.9678 82.1132 30.3265 82.5264 30.3559L82.6328 28.8597ZM82.3474 30.3559C82.7606 30.3265 83.0717 29.9678 83.0423 29.5546C83.0129 29.1414 82.6542 28.8303 82.241 28.8597L82.3474 30.3559ZM80.4923 29.6582L73.1481 37.0024L74.2087 38.0631L81.553 30.7188L80.4923 29.6582ZM71.6792 38.4713L64.335 45.8156L65.3956 46.8762L72.7399 39.532L71.6792 38.4713ZM64.335 45.8156C64.1132 46.0373 63.8307 46.1579 63.5406 46.1785L63.647 47.6747C64.2835 47.6295 64.909 47.3629 65.3956 46.8762L64.335 45.8156ZM63.3616 46.1785C63.0715 46.1579 62.789 46.0373 62.5672 45.8156L61.5065 46.8762C61.9932 47.3629 62.6187 47.6295 63.2552 47.6747L63.3616 46.1785ZM62.5672 45.8156L59.8652 43.1136L58.8045 44.1742L61.5065 46.8762L62.5672 45.8156ZM59.3248 42.5732L56.6228 39.8712L55.5621 40.9318L58.2641 43.6338L59.3248 42.5732ZM56.6228 39.8712C56.1361 39.3845 55.5106 39.1179 54.8741 39.0727L54.7678 40.5689C55.0578 40.5895 55.3404 40.71 55.5621 40.9318L56.6228 39.8712ZM54.4824 39.0727C53.8459 39.1179 53.2204 39.3845 52.7337 39.8712L53.7944 40.9318C54.0161 40.71 54.2987 40.5895 54.5887 40.5689L54.4824 39.0727ZM52.7337 39.8712L50.5291 42.0758L51.5897 43.1365L53.7944 40.9318L52.7337 39.8712ZM50.0881 42.5167L47.8835 44.7214L48.9442 45.782L51.1488 43.5774L50.0881 42.5167ZM47.8835 44.7214C47.3969 45.208 47.1303 45.8335 47.085 46.47L48.5812 46.5764C48.6019 46.2863 48.7224 46.0038 48.9442 45.782L47.8835 44.7214ZM47.085 46.8618C47.1303 47.4983 47.3969 48.1238 47.8835 48.6104L48.9442 47.5498C48.7224 47.328 48.6019 47.0455 48.5812 46.7554L47.085 46.8618ZM47.8835 48.6104L53.9932 54.7201L55.0538 53.6594L48.9442 47.5498L47.8835 48.6104ZM55.2151 55.942L61.3248 62.0517L62.3854 60.991L56.2758 54.8814L55.2151 55.942ZM61.3248 62.0517C61.3705 62.0975 61.4176 62.1413 61.4659 62.1833L62.4504 61.0516C62.4283 61.0324 62.4066 61.0122 62.3854 60.991L61.3248 62.0517ZM61.4952 62.2085C61.5448 62.2504 61.5955 62.2903 61.6473 62.3283L62.5331 61.1177C62.5095 61.1005 62.4864 61.0823 62.4638 61.0631L61.4952 62.2085ZM61.5735 62.2666C62.0628 62.7317 62.6825 62.9824 63.3102 63.0181L63.3955 61.5206C63.1091 61.5043 62.8292 61.3907 62.6069 61.1793L61.5735 62.2666ZM63.6954 63.0132C64.3208 62.9614 64.9335 62.6956 65.4119 62.2172L64.3512 61.1565C64.1332 61.3746 63.8565 61.4947 63.5716 61.5183L63.6954 63.0132ZM65.4119 62.2172L76.2391 51.39L75.1784 50.3294L64.3512 61.1565L65.4119 62.2172ZM78.4045 49.2246L89.2316 38.3975L88.171 37.3368L77.3438 48.1639L78.4045 49.2246ZM89.2316 38.3975C89.7183 37.9108 89.9849 37.2853 90.0301 36.6488L88.5339 36.5424C88.5133 36.8325 88.3927 37.115 88.171 37.3368L89.2316 38.3975ZM90.0301 36.257C89.9849 35.6205 89.7183 34.995 89.2316 34.5084L88.171 35.569C88.3927 35.7908 88.5133 36.0733 88.5339 36.3634L90.0301 36.257ZM89.2316 34.5084L87.027 32.3037L85.9663 33.3644L88.171 35.569L89.2316 34.5084ZM86.5861 31.8628L84.3814 29.6582L83.3208 30.7188L85.5254 32.9235L86.5861 31.8628ZM84.3814 29.6582C83.8948 29.1715 83.2693 28.9049 82.6328 28.8597L82.5264 30.3559C82.8165 30.3765 83.099 30.4971 83.3208 30.7188L84.3814 29.6582ZM82.241 28.8597C81.6045 28.9049 80.979 29.1715 80.4923 29.6582L81.553 30.7188C81.7748 30.4971 82.0573 30.3765 82.3474 30.3559L82.241 28.8597Z" fill="#1958FA"/>
<path d="M3.59375 89.6345L25.1682 74.0712" stroke="#1958FA" stroke-width="1.5" stroke-linecap="round"/>
<path d="M6.94531 64.7207L18.0048 67.4537" stroke="#1958FA" stroke-width="1.5" stroke-linecap="round"/>
<path d="M117.988 30.5222L136.652 19.0239" stroke="#1958FA" stroke-width="1.5" stroke-linecap="round"/>
<path d="M118.945 42.0344L129.613 44.9746" stroke="#1958FA" stroke-width="1.5" stroke-linecap="round"/>
<defs>
<linearGradient id="paint0_linear_1505_2365" x1="86.2648" y1="28.2272" x2="59.6003" y2="54.8916" gradientUnits="userSpaceOnUse">
<stop stop-color="#ACE34D"/>
<stop offset="1" stop-color="#68CEFF"/>
</linearGradient>
</defs>
</svg>
