<svg width="126" height="103" viewBox="0 0 126 103" fill="none" xmlns="http://www.w3.org/2000/svg">
<path d="M50.586 93C50.586 93 44.086 94.5 39.586 90C35.086 85.5 36.0859 72.5 49.5859 72.5C63.0859 72.5 61.586 57.5 61.586 57.5M56.5859 57.5H67.0859M71.0859 55C71.0859 55 79.5859 49.5 82.5859 44C85.5859 38.5 85.5859 31.5 85.5859 31.5H81.0859M51.0859 55C51.0859 55 43.0859 50 40.0859 44C37.0859 38 36.5859 31.5 36.5859 31.5H41.0859" stroke="#1958FA" stroke-width="1.5" stroke-linecap="round"/>
<path d="M42.5859 28C42.5859 28 43.0859 25.5 44.5859 23.5C46.0859 21.5 48.0859 20.5 48.0859 20.5C48.0859 20.5 50.0859 23 51.5859 24C53.0859 25 54.5859 26 58.5859 26.5C62.5859 27 68.0859 24.5 70.5859 25C73.0859 25.5 77.0859 28.5 77.0859 28.5L80.0859 25" stroke="#1958FA" stroke-width="1.5" stroke-linecap="round" stroke-linejoin="round"/>
<path d="M105.806 54.5L115.399 52M105.806 64L124.396 70.5M23.3061 30L1 18.5M22.1479 40H11.8061" stroke="#1958FA" stroke-width="1.5" stroke-linecap="round" stroke-linejoin="round"/>
<path d="M83.5859 28.5C83.5859 28.5 83.5859 20.5 81.5859 15.5C79.5859 10.5 72.5859 1 61.5859 1C50.5859 1 45.5859 7 42.0859 13C38.5859 19 38.5859 28 38.5859 28" stroke="#1958FA" stroke-width="1.5" stroke-linecap="round" stroke-linejoin="round"/>
<path d="M43.5859 31C43.5859 31 45.5859 40.5 47.5859 43.5C49.5859 46.5 55.5859 50.5 61.5859 50.5C67.5859 50.5 73.0859 45.5 75.0859 43C77.0859 40.5 78.5859 31 78.5859 31" stroke="#1958FA" stroke-width="1.5" stroke-linecap="round" stroke-linejoin="round"/>
<path fill-rule="evenodd" clip-rule="evenodd" d="M84.6359 70C84.6359 69.4477 84.1882 69 83.6359 69H80.0359C79.4836 69 79.0359 69.4477 79.0359 70V73.95C79.0359 74.5023 78.5882 74.95 78.0359 74.95L74.0859 74.95C73.5337 74.95 73.0859 75.3977 73.0859 75.95V79.55C73.0859 80.1023 73.5337 80.55 74.0859 80.55H78.0359C78.5882 80.55 79.0359 80.9977 79.0359 81.55V85.5C79.0359 86.0523 79.4836 86.5 80.0359 86.5H83.6359C84.1882 86.5 84.6359 86.0523 84.6359 85.5V81.55C84.6359 80.9977 85.0836 80.55 85.6359 80.55H89.5859C90.1382 80.55 90.5859 80.1023 90.5859 79.55V75.95C90.5859 75.3977 90.1382 74.95 89.5859 74.95L85.6359 74.95C85.0836 74.95 84.6359 74.5023 84.6359 73.95V70Z" fill="url(#paint0_linear_1505_2341)"/>
<path d="M50.0859 63C50.0859 63 45.8774 61.6016 43.5859 60C41.3225 58.4181 38.5859 55 38.5859 55C38.5859 55 31.1559 57.6534 27.5859 61C24.1878 64.1855 22.0859 68 21.0859 71C20.0859 74 17.0859 93 17.0859 93" stroke="#1958FA" stroke-width="1.5" stroke-linecap="round"/>
<path d="M72.5859 63C72.5859 63 76.7944 61.6016 79.0859 60C81.3493 58.4181 84.0859 55 84.0859 55C84.0859 55 91.516 57.6534 95.0859 61C98.484 64.1855 100.586 68 101.586 71C102.586 74 105.586 93 105.586 93" stroke="#1958FA" stroke-width="1.5" stroke-linecap="round"/>
<circle cx="58.5859" cy="93.5" r="8" stroke="#1958FA" stroke-width="1.5" stroke-linecap="round"/>
<circle cx="58.5859" cy="93.5" r="5" fill="url(#paint1_linear_1505_2341)"/>
<defs>
<linearGradient id="paint0_linear_1505_2341" x1="81.8359" y1="69" x2="81.8359" y2="86.5" gradientUnits="userSpaceOnUse">
<stop stop-color="#ACE34D"/>
<stop offset="1" stop-color="#68CEFF"/>
</linearGradient>
<linearGradient id="paint1_linear_1505_2341" x1="58.5859" y1="88.5" x2="58.5859" y2="98.5" gradientUnits="userSpaceOnUse">
<stop stop-color="#ACE34D"/>
<stop offset="1" stop-color="#68CEFF"/>
</linearGradient>
</defs>
</svg>
