<svg width="120" height="38" viewBox="0 0 120 38" fill="none" xmlns="http://www.w3.org/2000/svg">
<rect x="0.5" y="0.989502" width="119" height="36" rx="3.5" stroke="black" stroke-opacity="0.3"/>
<path fill-rule="evenodd" clip-rule="evenodd" d="M42.1156 21.8003V23.3939H45.9125C45.8537 24.1439 45.5442 24.8523 45.0339 25.405C44.6552 25.7942 44.1989 26.0993 43.6946 26.3006C43.1903 26.5019 42.6493 26.5947 42.1067 26.5732C39.8016 26.5383 37.9506 24.6461 37.9506 22.3232C37.9506 19.9993 39.8016 18.1071 42.1067 18.0723C42.6373 18.0639 43.1643 18.1605 43.6575 18.3566C44.1506 18.5526 44.6002 18.8442 44.9802 19.2146L46.0975 18.0902C45.5793 17.5605 44.9596 17.1409 44.2754 16.8565C43.5912 16.572 42.8566 16.4286 42.1156 16.4349C41.0694 16.3962 40.0322 16.6415 39.1142 17.1448C38.1961 17.648 37.4314 18.3904 36.9012 19.2932C36.3674 20.1993 36.0859 21.2318 36.0859 22.2834C36.0859 23.335 36.3674 24.3675 36.9012 25.2736C37.4314 26.1764 38.1961 26.9188 39.1142 27.422C40.0322 27.9252 41.0694 28.1706 42.1156 28.1319C42.869 28.1657 43.6208 28.0369 44.3199 27.7542C45.019 27.4715 45.6491 27.0416 46.1672 26.4936C47.0885 25.4715 47.5794 24.133 47.5374 22.7576C47.5404 22.4218 47.5111 22.0866 47.4498 21.7565L42.1156 21.8003ZM51.8616 20.6402C49.7996 20.6455 48.1318 22.333 48.1353 24.4102C48.1389 26.4874 49.8121 28.1686 51.8732 28.1668C53.9352 28.165 55.6057 26.4811 55.6057 24.4039C55.6131 23.9068 55.521 23.4131 55.3346 22.9521C55.1482 22.4912 54.8715 22.0722 54.5206 21.7199C54.1715 21.3692 53.7552 21.0928 53.2965 20.9072C52.8379 20.7217 52.3464 20.6308 51.8517 20.6402H51.8607H51.8616ZM56.3252 24.4155C56.3189 22.3393 57.9823 20.65 60.0433 20.6402C60.5379 20.631 61.0292 20.7219 61.4876 20.9074C61.9461 21.093 62.3624 21.3693 62.7113 21.7199C63.062 22.0723 63.3386 22.4913 63.5248 22.9523C63.711 23.4132 63.803 23.9068 63.7955 24.4039C63.7955 26.4793 62.1268 28.1632 60.0666 28.1668C58.0064 28.1704 56.3323 26.4918 56.3252 24.4155ZM57.8392 25.3951C58.0336 25.8077 58.348 26.152 58.7413 26.3829C59.1345 26.6138 59.5884 26.7206 60.0433 26.6894C60.3324 26.6824 60.617 26.6173 60.8804 26.498C61.1437 26.3787 61.3804 26.2076 61.5762 25.9949C61.7731 25.7812 61.9255 25.5305 62.0245 25.2574C62.1235 24.9842 62.167 24.6941 62.1527 24.4039C62.1524 23.9468 62.0149 23.5003 61.7581 23.1221C61.5012 22.744 61.1368 22.4517 60.7119 22.283C60.2881 22.1161 59.8238 22.0814 59.38 22.1835C58.9361 22.2856 58.5336 22.5197 58.2254 22.855C57.9152 23.1917 57.7127 23.6134 57.6439 24.066C57.5751 24.5186 57.6432 24.9815 57.8392 25.3951ZM49.6521 25.4014C49.8479 25.8135 50.1636 26.1569 50.5578 26.3865C50.9521 26.6162 51.4065 26.7214 51.8616 26.6885H51.8526C52.1416 26.6816 52.4262 26.6167 52.6896 26.4975C52.9529 26.3784 53.1896 26.2074 53.3855 25.9949C53.5824 25.7813 53.7348 25.5306 53.8338 25.2574C53.9328 24.9842 53.9764 24.6941 53.962 24.4039C53.9615 23.9466 53.8238 23.4999 53.5666 23.1218C53.3094 22.7436 52.9446 22.4514 52.5194 22.283C52.0952 22.1164 51.6304 22.0823 51.1864 22.185C50.7424 22.2878 50.3399 22.5226 50.032 22.8586C49.7223 23.1962 49.5206 23.6187 49.4529 24.0718C49.3852 24.525 49.4546 24.988 49.6521 25.4014ZM78.7361 20.6411C79.4498 20.669 80.138 20.9135 80.7094 21.342C81.2808 21.7705 81.7083 22.3627 81.935 23.04L82.1191 23.4386L77.1184 25.5194C77.2702 25.8699 77.5242 26.1665 77.8473 26.3703C78.1704 26.5741 78.5475 26.6756 78.9292 26.6616C79.2997 26.6622 79.6639 26.5663 79.986 26.3832C80.3081 26.2002 80.5769 25.9363 80.7659 25.6177L82.0405 26.5025C81.701 27.0167 81.2387 27.4381 80.6955 27.7288C80.1523 28.0195 79.5453 28.1704 78.9292 28.1677C78.4372 28.1747 77.9488 28.082 77.4936 27.895C77.0385 27.7081 76.6259 27.4308 76.2809 27.0799C75.9342 26.7276 75.6617 26.3093 75.4795 25.8498C75.2973 25.3903 75.209 24.899 75.2199 24.4048C75.1897 23.9219 75.2583 23.4379 75.4215 22.9824C75.5847 22.5269 75.8391 22.1095 76.1692 21.7556C76.4975 21.4034 76.8949 21.1227 77.3365 20.9309C77.7782 20.7392 78.2546 20.6405 78.7361 20.6411ZM76.8368 24.2967C76.8191 24.0231 76.8558 23.7488 76.9448 23.4895C77.0338 23.2302 77.1733 22.9912 77.3552 22.7862C77.7217 22.3732 78.2383 22.1265 78.788 22.1015C79.0722 22.0834 79.3554 22.1493 79.6024 22.2911C79.8494 22.4329 80.0492 22.6442 80.1769 22.8988L76.8377 24.2976H76.8368V24.2967ZM74.4209 27.9469H72.7772V16.8773H74.4209V27.946V27.9469ZM70.0878 21.483H70.0261C69.7795 21.2044 69.4765 20.9814 69.1372 20.8287C68.7979 20.676 68.4301 20.5971 68.058 20.5973C66.0648 20.6974 64.5007 22.3545 64.5007 24.3646C64.5007 26.3756 66.0648 28.0327 68.058 28.1328C68.431 28.1388 68.8007 28.0625 69.1408 27.9095C69.481 27.7564 69.7833 27.5302 70.0261 27.2471H70.0788V27.7878C70.0788 29.2313 69.3138 30.0017 68.0839 30.0017C67.6729 29.9911 67.2744 29.8581 66.9394 29.6197C66.6044 29.3814 66.3482 29.0485 66.2034 28.6637L64.7715 29.2662C65.0384 29.9251 65.4966 30.4891 66.087 30.8853C66.6774 31.2815 67.3729 31.4918 68.0839 31.489C70.0091 31.489 71.5992 30.3468 71.5992 27.5653V20.8636H70.0887V21.483H70.0878ZM68.2046 26.6894H68.2081H68.1992H68.2046ZM69.6856 25.9797C69.4996 26.192 69.2724 26.3644 69.0178 26.4864C68.7633 26.6084 68.4866 26.6774 68.2046 26.6894C67.6363 26.6358 67.1086 26.3718 66.7251 25.9491C66.3416 25.5264 66.13 24.9756 66.1319 24.4048C66.1301 23.8335 66.3422 23.2822 66.7265 22.8594C67.1107 22.4366 67.6393 22.173 68.2081 22.1203C68.7757 22.1498 69.3075 22.409 69.6829 22.8389C70.0583 23.2688 70.246 23.8337 70.2022 24.4048C70.2264 24.6886 70.1931 24.9743 70.1043 25.2449C70.0155 25.5155 69.8731 25.7654 69.6856 25.9797ZM89.6333 16.8782H85.7041V27.9469H87.3487V23.7497H89.6422C90.2692 23.7932 90.8961 23.6627 91.4536 23.3725C92.0112 23.0822 92.4777 22.6437 92.8018 22.1051C93.1279 21.5646 93.3003 20.9452 93.3003 20.3139C93.3003 19.6826 93.1279 19.0633 92.8018 18.5228C92.4777 17.9842 92.0112 17.5456 91.4536 17.2554C90.8961 16.9652 90.2692 16.8346 89.6422 16.8782H89.6333ZM87.3398 22.1909H89.6333L89.6681 22.2177C90.7094 22.2177 91.554 21.3677 91.554 20.3184C91.5557 19.8165 91.358 19.3344 91.0043 18.9783C90.6507 18.6221 90.17 18.421 89.6681 18.4191H87.3398V22.1909ZM99.7662 20.5973C99.1665 20.5621 98.5697 20.7036 98.0496 21.0042C97.5295 21.3047 97.1089 21.7512 96.8399 22.2883L98.2977 22.8997C98.5926 22.3545 99.179 22.0345 99.7921 22.0845C100.001 22.0599 100.213 22.0774 100.415 22.1361C100.617 22.1947 100.805 22.2933 100.968 22.426C101.299 22.6941 101.509 23.0856 101.55 23.511V23.6254C101.023 23.3437 100.434 23.1975 99.8359 23.2C98.2637 23.2 96.6728 24.0848 96.6728 25.6892C96.6881 26.0303 96.7713 26.3648 96.9175 26.6733C97.0638 26.9818 97.2702 27.258 97.5246 27.4857C97.7778 27.7124 98.0741 27.8858 98.3958 27.9955C98.7176 28.1051 99.0581 28.1488 99.3971 28.1239C99.8119 28.1533 100.227 28.0699 100.598 27.8827C100.97 27.6955 101.283 27.4113 101.506 27.0603H101.559V27.9469H103.14V23.688C103.14 21.7485 101.682 20.6232 99.81 20.6232L99.7662 20.5964V20.5973ZM98.2816 25.7241C98.2816 26.389 99.0279 26.6625 99.5642 26.6625L99.608 26.6894C100.089 26.6761 100.548 26.4894 100.902 26.1638C101.255 25.8382 101.479 25.3957 101.532 24.9179C101.077 24.6619 100.561 24.5337 100.039 24.5469C99.212 24.5469 98.2816 24.8383 98.2816 25.7241ZM108.905 20.8636L107.025 25.6615H106.973L105.021 20.8636H103.264L106.19 27.576L104.52 31.3031H106.234L110.734 20.8636H108.905ZM95.7772 27.9469H94.1335V16.8773H95.7772V27.946V27.9469Z" fill="#161616"/>
<path d="M9.36422 8.28906C9.09608 8.61529 8.96827 9.03448 9.0067 9.45635V27.1669C8.98181 27.5765 9.11524 27.9799 9.37942 28.2939L9.43573 28.3511L19.4462 18.4327V18.1994L9.41874 8.23364L9.36333 8.28906H9.36422Z" fill="#5BC9F4"/>
<path d="M22.7752 21.7493L19.4297 18.4244V18.192L22.7752 14.8743L22.8476 14.9145L26.824 17.1525C27.9592 17.7889 27.9592 18.8347 26.824 19.4791L22.8645 21.7163L22.7752 21.7493Z" fill="url(#paint0_linear_1133_1219)"/>
<path d="M22.8658 21.7092L19.4462 18.3127L9.36328 28.3357C9.59511 28.5377 9.88988 28.6528 10.1972 28.6614C10.5045 28.6701 10.8053 28.5717 11.0481 28.3831L22.873 21.7101" fill="url(#paint1_linear_1133_1219)"/>
<path d="M22.8652 14.9158L11.0403 8.24099C10.7975 8.05241 10.4967 7.95403 10.1894 7.96267C9.88206 7.97131 9.58729 8.08643 9.35547 8.28836L19.4464 18.3123L22.8643 14.9158H22.8652Z" fill="url(#paint2_linear_1133_1219)"/>
<path d="M42.7642 15.4014H41.9303V13.8435H37.3702V15.4058H36.5318L36.5273 13.1579H37.0466C37.3201 12.8496 37.5373 12.4366 37.6973 11.9191C37.8663 11.363 37.9689 10.7887 38.003 10.2084L38.1424 7.4895H41.9437V13.1579H42.7723L42.7633 15.4014H42.7642ZM38.0021 13.1579H41.1009V8.17951H38.9495L38.8584 10.0466C38.8199 10.7769 38.7225 11.3998 38.5652 11.9147C38.4115 12.4295 38.2238 12.8442 38.0021 13.1579ZM43.4274 11.4392C43.4274 10.9762 43.5168 10.5597 43.6982 10.1905C43.8655 9.83928 44.1289 9.54268 44.458 9.33519C44.7927 9.13169 45.1782 9.02725 45.5699 9.03398C46.2134 9.03398 46.7318 9.25743 47.1286 9.70164C47.5273 10.1467 47.7257 10.7384 47.7257 11.4785V11.5348C47.7257 11.9942 47.6372 12.408 47.4602 12.7745C47.2967 13.1256 47.0342 13.4214 46.705 13.6254C46.3664 13.8326 45.9757 13.9387 45.5788 13.9311C44.9388 13.9311 44.4195 13.7076 44.0209 13.2634C43.625 12.8174 43.4274 12.2284 43.4274 11.4955V11.4392ZM44.239 11.5348C44.239 12.0586 44.3597 12.4787 44.601 12.796C44.8459 13.1132 45.1712 13.2715 45.5788 13.2715C45.9899 13.2715 46.3153 13.1115 46.5566 12.7915C46.7979 12.4688 46.9186 12.0175 46.9186 11.4392C46.9186 10.9208 46.7952 10.5016 46.5477 10.1816C46.4366 10.0271 46.2895 9.90223 46.119 9.81778C45.9486 9.73333 45.76 9.69192 45.5699 9.69717C45.1712 9.69717 44.8503 9.85627 44.6054 10.1736C44.3614 10.49 44.239 10.944 44.239 11.5348ZM50.6323 13.2715C50.921 13.2715 51.1721 13.1848 51.3876 13.0096C51.603 12.8353 51.7227 12.6163 51.7451 12.3553H52.5093C52.495 12.6261 52.402 12.8827 52.2295 13.1276C52.0523 13.3771 51.8154 13.5784 51.5404 13.713C51.2596 13.8574 50.9481 13.9322 50.6323 13.9311C49.9897 13.9311 49.4775 13.7166 49.0968 13.2893C48.7178 12.8585 48.5292 12.2704 48.5292 11.5259V11.3909C48.5292 10.9315 48.6132 10.5221 48.7821 10.1646C48.9511 9.80711 49.1933 9.52824 49.5061 9.33072C49.8234 9.13319 50.1979 9.03398 50.6278 9.03398C51.1578 9.03398 51.5967 9.19307 51.9462 9.50948C52.2983 9.82677 52.486 10.2388 52.5093 10.7447H51.7451C51.7311 10.4586 51.6061 10.1892 51.3965 9.99391C51.2944 9.89598 51.1739 9.81931 51.042 9.76837C50.91 9.71742 50.7692 9.69322 50.6278 9.69717C50.2176 9.69717 49.8994 9.84554 49.6724 10.1423C49.4489 10.4372 49.3363 10.8627 49.3363 11.4213V11.5732C49.3363 12.1185 49.448 12.5368 49.6724 12.8308C49.8958 13.1249 50.2167 13.2715 50.6323 13.2715ZM56.9255 9.77672H55.3417V13.8435H54.5346V9.77672H52.9803V9.12157H56.9255V9.77583V9.77672ZM59.3084 12.661L60.4077 9.12157H61.2729L59.3745 14.5719C59.0795 15.3585 58.613 15.7508 57.973 15.7508L57.8211 15.7374L57.5199 15.6811V15.026L57.738 15.0438C58.0115 15.0438 58.2233 14.9884 58.3752 14.8776C58.529 14.7677 58.6559 14.5648 58.7542 14.2716L58.933 13.7907L57.2491 9.12157H58.1303L59.3084 12.661ZM65.859 13.8435H65.0519V9.78923H62.8791V13.8435H62.0666V9.12157H65.859V13.8435ZM71.0135 13.8435H70.2064V11.8271H68.0371V13.8435H67.2256V9.12157H68.0371V11.1684H70.2064V9.12157H71.0135V13.8435ZM72.1003 11.4392C72.1003 10.9762 72.1897 10.5597 72.3711 10.1905C72.5383 9.83928 72.8018 9.54268 73.1309 9.33519C73.4656 9.13169 73.8511 9.02725 74.2427 9.03398C74.8863 9.03398 75.4047 9.25743 75.8015 9.70164C76.1993 10.1467 76.3986 10.7384 76.3986 11.4785V11.5348C76.3986 11.9942 76.3101 12.408 76.1331 12.7745C75.9696 13.1256 75.7071 13.4214 75.3779 13.6254C75.0393 13.8327 74.6485 13.9387 74.2517 13.9311C73.6117 13.9311 73.0924 13.7076 72.6938 13.2634C72.2978 12.8174 72.1003 12.2284 72.1003 11.4955V11.4392ZM72.9119 11.5348C72.9119 12.0586 73.0325 12.4787 73.2739 12.796C73.5188 13.1132 73.8441 13.2715 74.2517 13.2715C74.6628 13.2715 74.9882 13.1115 75.2295 12.7915C75.4708 12.4688 75.5915 12.0175 75.5915 11.4392C75.5915 10.9208 75.4681 10.5016 75.2206 10.1816C75.1095 10.0271 74.9624 9.90223 74.7919 9.81778C74.6214 9.73333 74.4329 9.69192 74.2427 9.69717C73.8441 9.69717 73.5232 9.85627 73.2783 10.1736C73.0343 10.49 72.9119 10.944 72.9119 11.5348ZM79.7029 13.8435V9.12157H81.5441C82.1734 9.12157 82.6542 9.23151 82.9894 9.45227C83.3264 9.67125 83.4953 9.99302 83.4953 10.4176C83.4953 10.6357 83.43 10.8341 83.2987 11.011C83.1682 11.1853 82.9742 11.3194 82.7177 11.4133C83.0037 11.4794 83.2316 11.6099 83.4032 11.8056C83.5784 12.0005 83.6651 12.2329 83.6651 12.5037C83.6651 12.9372 83.5051 13.2688 83.1851 13.4985C82.8678 13.7282 82.4183 13.8435 81.8373 13.8435H79.7029ZM80.51 11.7699V13.1937H81.8453C82.1832 13.1937 82.4353 13.1311 82.6006 13.006C82.6831 12.9456 82.7493 12.8658 82.7935 12.7737C82.8376 12.6815 82.8582 12.5798 82.8535 12.4778C82.8535 12.0058 82.5077 11.7708 81.815 11.7708H80.51V11.7699ZM80.51 11.1246H81.5531C82.3092 11.1246 82.6882 10.9038 82.6882 10.4614C82.6882 10.0189 82.3307 9.79102 81.6148 9.77583H80.51V11.1246Z" fill="#161616"/>
<defs>
<linearGradient id="paint0_linear_1133_1219" x1="26.0876" y1="10.1461" x2="6.50276" y2="10.1461" gradientUnits="userSpaceOnUse">
<stop stop-color="#FEE000"/>
<stop offset="0.42" stop-color="#FBBC0E"/>
<stop offset="0.78" stop-color="#FAA418"/>
<stop offset="1" stop-color="#F99B1C"/>
</linearGradient>
<linearGradient id="paint1_linear_1133_1219" x1="6.99383" y1="16.08" x2="0.289492" y2="35.7301" gradientUnits="userSpaceOnUse">
<stop stop-color="#EF4547"/>
<stop offset="1" stop-color="#C6186D"/>
</linearGradient>
<linearGradient id="paint2_linear_1133_1219" x1="-1.50859" y1="1.41152" x2="3.97126" y2="17.4533" gradientUnits="userSpaceOnUse">
<stop stop-color="#279E6F"/>
<stop offset="0.04" stop-color="#2BA06F"/>
<stop offset="0.46" stop-color="#53B26C"/>
<stop offset="0.8" stop-color="#6BBD6A"/>
<stop offset="1" stop-color="#74C169"/>
</linearGradient>
</defs>
</svg>
