<svg width="317" height="412" viewBox="0 0 317 412" fill="none" xmlns="http://www.w3.org/2000/svg">
<mask id="mask0_1505_2188" style="mask-type:alpha" maskUnits="userSpaceOnUse" x="0" y="0" width="317" height="412">
<rect x="0.234375" y="0.341797" width="316.225" height="411.658" fill="#D9D9D9"/>
</mask>
<g mask="url(#mask0_1505_2188)">
<path d="M106.811 141.25C106.056 141.912 107.252 143.012 107.725 143.54C111.485 147.769 121.567 157.601 126.236 155.497C132.925 152.477 131.07 134.51 129.583 131.901C127.26 131.802 127.481 138.336 126.651 141.842C121.869 137.113 117.817 125.652 114.918 124.26C111.548 124.615 117.835 132.711 118.816 138.452C112.746 129.157 109.278 124.152 108.191 124.975C105.775 125.818 112.555 137.015 115.62 140.694C111.593 136.667 108.81 133.305 106.927 131.697C105.825 130.755 104.914 131.588 104.914 131.588C104.262 133.821 112.006 142.015 114.226 144.59C112.441 144.149 110.929 142.468 109.333 141.625C108.764 141.326 107.639 140.719 106.962 141.15C106.91 141.18 106.86 141.213 106.811 141.25Z" fill="white" stroke="#1958FA" stroke-linecap="round"/>
<path fill-rule="evenodd" clip-rule="evenodd" d="M166.139 183.056L180.13 147.725C185.295 129.226 196.732 126.782 197.26 126.669C197.273 126.666 197.279 126.665 197.279 126.665C224.971 119.329 216.195 148.971 216.195 148.971L179.775 212.116C179.402 213.028 178.899 213.914 178.247 214.766L178.245 214.768C178.245 214.768 178.245 214.768 178.244 214.768C178.244 214.768 160.376 229.617 131.76 179.064L121.152 158.555C121.152 158.555 124.409 150.335 131.76 150.549L166.139 183.056Z" fill="white"/>
<path d="M180.13 147.725L180.595 147.909L180.605 147.885L180.612 147.859L180.13 147.725ZM166.139 183.056L165.796 183.419L166.333 183.927L166.604 183.24L166.139 183.056ZM197.26 126.669L197.156 126.18L197.156 126.18L197.26 126.669ZM197.279 126.665L197.151 126.182L196.779 126.28V126.665H197.279ZM216.195 148.971L216.628 149.22L216.658 149.169L216.674 149.113L216.195 148.971ZM179.775 212.116L179.342 211.866L179.325 211.896L179.312 211.927L179.775 212.116ZM178.247 214.766L177.85 214.462L177.83 214.488L177.813 214.516L178.247 214.766ZM178.245 214.768L178.451 215.224L178.598 215.157L178.678 215.018L178.245 214.768ZM178.244 214.768L178.039 214.313L177.977 214.341L177.925 214.384L178.244 214.768ZM131.76 179.064L131.316 179.293L131.321 179.302L131.325 179.31L131.76 179.064ZM121.152 158.555L120.687 158.371L120.604 158.582L120.708 158.784L121.152 158.555ZM131.76 150.549L132.104 150.186L131.965 150.055L131.775 150.049L131.76 150.549ZM179.665 147.541L165.675 182.872L166.604 183.24L180.595 147.909L179.665 147.541ZM197.156 126.18C196.842 126.247 193.768 126.912 190.116 129.916C186.461 132.923 182.257 138.249 179.649 147.59L180.612 147.859C183.168 138.702 187.265 133.557 190.751 130.689C194.242 127.818 197.15 127.204 197.365 127.158L197.156 126.18ZM196.779 126.665C196.779 126.52 196.841 126.417 196.878 126.367C196.916 126.315 196.955 126.283 196.976 126.267C197.018 126.236 197.054 126.218 197.066 126.213C197.095 126.199 197.119 126.191 197.124 126.19C197.14 126.184 197.153 126.181 197.154 126.181C197.159 126.18 197.162 126.179 197.163 126.179C197.165 126.178 197.165 126.178 197.166 126.178C197.166 126.178 197.165 126.178 197.163 126.179C197.161 126.179 197.159 126.18 197.156 126.18L197.365 127.158C197.37 127.157 197.377 127.155 197.383 127.154C197.385 127.154 197.393 127.152 197.401 127.15C197.404 127.149 197.417 127.146 197.434 127.14C197.439 127.139 197.463 127.131 197.492 127.117C197.504 127.112 197.541 127.094 197.582 127.063C197.603 127.047 197.642 127.014 197.681 126.963C197.718 126.913 197.779 126.81 197.779 126.665H196.779ZM216.195 148.971C216.674 149.113 216.674 149.112 216.675 149.112C216.675 149.112 216.675 149.111 216.675 149.111C216.675 149.109 216.676 149.108 216.676 149.106C216.678 149.102 216.679 149.096 216.681 149.088C216.686 149.073 216.692 149.051 216.7 149.022C216.717 148.964 216.74 148.879 216.77 148.769C216.829 148.549 216.911 148.229 217.005 147.825C217.193 147.018 217.431 145.875 217.628 144.526C218.022 141.836 218.261 138.297 217.612 134.971C216.962 131.641 215.407 128.465 212.164 126.621C208.932 124.782 204.136 124.331 197.151 126.182L197.407 127.148C204.268 125.331 208.76 125.834 211.67 127.49C214.57 129.139 216.013 131.999 216.631 135.162C217.249 138.33 217.025 141.742 216.639 144.381C216.446 145.697 216.214 146.812 216.031 147.598C215.939 147.99 215.86 148.3 215.804 148.511C215.775 148.616 215.753 148.696 215.738 148.75C215.73 148.777 215.725 148.797 215.721 148.81C215.719 148.817 215.718 148.822 215.717 148.825C215.716 148.826 215.716 148.827 215.716 148.828C215.716 148.828 215.716 148.829 215.715 148.829C215.715 148.829 215.715 148.829 216.195 148.971ZM180.208 212.366L216.628 149.22L215.762 148.721L179.342 211.866L180.208 212.366ZM179.312 211.927C178.956 212.797 178.475 213.645 177.85 214.462L178.644 215.07C179.322 214.183 179.848 213.258 180.237 212.305L179.312 211.927ZM178.678 215.018L178.68 215.015L177.813 214.516L177.812 214.518L178.678 215.018ZM178.45 215.224C178.455 215.222 178.46 215.22 178.462 215.219C178.463 215.218 178.464 215.218 178.465 215.217C178.465 215.217 178.465 215.217 178.465 215.217C178.465 215.217 178.465 215.217 178.466 215.217C178.466 215.217 178.466 215.217 178.466 215.217C178.466 215.217 178.464 215.218 178.462 215.218C178.46 215.22 178.456 215.221 178.451 215.224L178.039 214.312C178.034 214.315 178.03 214.317 178.028 214.318C178.026 214.318 178.025 214.319 178.025 214.319C178.025 214.319 178.024 214.319 178.024 214.32C178.024 214.32 178.024 214.32 178.024 214.32C178.024 214.32 178.024 214.32 178.024 214.32C178.024 214.32 178.025 214.319 178.027 214.318C178.029 214.317 178.033 214.315 178.039 214.313L178.45 215.224ZM178.244 214.768C177.925 214.384 177.925 214.384 177.926 214.383C177.926 214.383 177.926 214.383 177.926 214.383C177.926 214.383 177.926 214.383 177.925 214.383C177.924 214.384 177.922 214.386 177.919 214.388C177.913 214.393 177.903 214.401 177.888 214.412C177.859 214.435 177.813 214.469 177.75 214.513C177.625 214.601 177.432 214.727 177.175 214.872C176.66 215.163 175.887 215.529 174.869 215.818C172.837 216.394 169.811 216.67 165.887 215.398C158.023 212.849 146.482 204.057 132.195 178.817L131.325 179.31C145.654 204.624 157.355 213.684 165.579 216.349C169.699 217.685 172.929 217.408 175.142 216.78C176.246 216.466 177.092 216.067 177.666 215.743C177.954 215.581 178.173 215.438 178.323 215.333C178.398 215.28 178.456 215.237 178.496 215.207C178.516 215.191 178.532 215.179 178.543 215.17C178.549 215.165 178.553 215.162 178.557 215.159C178.559 215.157 178.56 215.156 178.561 215.155C178.562 215.155 178.563 215.154 178.563 215.154C178.563 215.153 178.564 215.153 178.244 214.768ZM132.204 178.834L121.596 158.325L120.708 158.784L131.316 179.293L132.204 178.834ZM121.152 158.555C121.617 158.739 121.617 158.739 121.617 158.739C121.617 158.739 121.617 158.739 121.617 158.739C121.617 158.739 121.617 158.739 121.617 158.739C121.617 158.738 121.618 158.737 121.618 158.736C121.62 158.733 121.622 158.728 121.624 158.721C121.63 158.708 121.639 158.687 121.651 158.659C121.675 158.603 121.711 158.519 121.761 158.411C121.86 158.196 122.011 157.886 122.215 157.514C122.623 156.768 123.241 155.778 124.08 154.796C125.76 152.83 128.28 150.948 131.746 151.049L131.775 150.049C127.889 149.936 125.105 152.057 123.319 154.147C122.425 155.194 121.769 156.245 121.338 157.034C121.121 157.429 120.96 157.759 120.853 157.993C120.799 158.109 120.758 158.202 120.731 158.266C120.717 158.299 120.707 158.324 120.699 158.341C120.696 158.35 120.693 158.357 120.691 158.362C120.69 158.364 120.689 158.366 120.689 158.368C120.688 158.368 120.688 158.369 120.688 158.369C120.688 158.37 120.688 158.37 120.688 158.37C120.688 158.37 120.687 158.371 121.152 158.555ZM131.417 150.912L165.796 183.419L166.483 182.693L132.104 150.186L131.417 150.912Z" fill="#1958FA"/>
<path d="M233.301 274C237.076 287.271 249.113 295.813 262.598 295.347" stroke="#1958FA" stroke-linecap="round" stroke-linejoin="round"/>
<path d="M258.488 492.445L263.378 360.568L273.677 280.39C268.643 246.49 218.09 263.231 218.09 263.231L218.316 278.81L228.383 374.164L233.193 494.771C233.193 494.771 250.191 502.6 258.488 492.445Z" fill="#1958FA"/>
<path d="M194.574 251.918C215.919 253.177 218.43 252.545 229.305 252.336C235.192 252.225 249.811 253.174 266.135 250.663" stroke="#1958FA" stroke-linecap="round" stroke-linejoin="round"/>
<path d="M242.285 262.801C248.109 273.837 255.689 279.542 268.235 279.542" stroke="#1958FA" stroke-linecap="round" stroke-linejoin="round"/>
<path d="M188.804 265.856L179.031 494.771C179.031 494.771 188.343 504.083 203.423 497.172L221.514 365.011L236.504 267.052L188.804 265.856Z" fill="#1958FA"/>
<path d="M204.422 269.362C211.116 275.218 215.961 275.151 218.319 278.797C220.403 282.021 218.571 286.639 219.037 290.183C223.758 326.962 225.698 335.736 228.557 378.367L232.03 465.476" stroke="#004D85" stroke-linecap="round" stroke-linejoin="round"/>
<path d="M243.691 93.5827C243.942 92.6893 244.169 91.9116 244.355 91.3177C247.448 81.5553 249.469 57.82 238.02 54.7596C224.297 51.0877 226.771 72.8172 226.584 78.9202C226.368 85.9872 226.519 93.5575 229.997 99.8544C231.308 102.225 234.336 105.741 237.182 105.233C240.336 104.676 242.45 97.836 243.691 93.5827Z" fill="#1958FA"/>
<path d="M238.007 92.2341L215.414 92.2508L215.436 124.164L238.031 124.142L238.007 92.2341Z" fill="white" stroke="#1958FA" stroke-linecap="round"/>
<path d="M187.795 197.722C187.543 211.227 186.23 221.677 185.978 235.179C185.832 243.134 184.367 269.857 186.836 279.894C189.398 290.295 192.904 271.943 201.481 269.827C203.469 269.323 205.412 268.657 207.405 268.198C215.018 266.454 220.434 273.35 227.476 275.416C234.357 277.43 241.437 280.535 248.423 281.673C255.85 282.876 264.278 280.832 271.444 278.653C278.664 276.466 279.439 274.375 278.1 267.808C277.469 264.708 277.428 261.358 277.094 258.212C276.127 248.94 275.162 239.667 274.197 230.392C272.921 218.128 273.381 203.946 270.198 192.004L274.98 141.781C276.656 131.736 267.845 128.477 267.845 128.477L238.547 116.558C226.18 125.87 215.313 117.519 215.313 117.519L193.921 128.364C193.921 128.364 186.98 132.338 185.414 145.196L187.795 197.712" fill="url(#paint0_linear_1505_2188)"/>
<path d="M210.276 68.4361C204.638 71.3883 206.03 76.9175 205.564 82.4292C205.371 84.6942 204.701 86.9165 204.394 89.1211C202.97 86.8561 202.129 79.3059 201.938 76.686C200.712 60.3725 205.783 50.2603 202.32 65.1644C201.513 68.6324 211.215 57.8482 214.61 56.8088C219.449 55.3265 218.1 59.6779 216.958 64.8624L210.276 68.4361Z" fill="#1958FA"/>
<path fill-rule="evenodd" clip-rule="evenodd" d="M236.668 95.5086C235.308 100.166 233.155 104.142 229.214 107.329C224.983 110.739 220.453 112.798 215.54 109.71C211.642 107.259 208.811 103.312 206.984 99.2051C202.755 89.7497 203.239 75.8423 208.466 67.1042C214.204 57.5054 227.726 57.7218 234.114 66.7695C236.639 70.3539 237.909 74.9313 238.299 79.6599C241.373 79.1688 243.861 83.3865 243.905 86.1081C243.955 89.5913 242.02 93.54 238.889 94.9846C238.049 95.373 237.311 95.5323 236.668 95.5086Z" fill="white"/>
<path d="M236.668 95.5086L236.686 95.0089L236.297 94.9946L236.188 95.3684L236.668 95.5086ZM229.214 107.329L229.528 107.718L229.528 107.718L229.214 107.329ZM215.54 109.71L215.274 110.133L215.274 110.133L215.54 109.71ZM206.984 99.2051L207.44 99.0019L207.44 99.001L206.984 99.2051ZM208.466 67.1042L208.895 67.3609L208.895 67.3607L208.466 67.1042ZM234.114 66.7695L234.523 66.4815L234.522 66.4811L234.114 66.7695ZM238.299 79.6599L237.801 79.701L237.845 80.2387L238.378 80.1536L238.299 79.6599ZM243.905 86.1081L244.405 86.1009L244.405 86.1002L243.905 86.1081ZM238.889 94.9846L238.679 94.5306L238.679 94.5308L238.889 94.9846ZM236.188 95.3684C234.848 99.957 232.74 103.834 228.899 106.94L229.528 107.718C233.569 104.45 235.768 100.374 237.148 95.6487L236.188 95.3684ZM228.9 106.94C226.807 108.627 224.685 109.941 222.514 110.471C220.368 110.994 218.146 110.757 215.806 109.287L215.274 110.133C217.847 111.75 220.347 112.029 222.751 111.442C225.132 110.861 227.39 109.441 229.528 107.718L228.9 106.94ZM215.807 109.287C212.018 106.904 209.241 103.05 207.44 99.0019L206.527 99.4083C208.38 103.574 211.266 107.613 215.274 110.133L215.807 109.287ZM207.44 99.001C205.363 94.357 204.435 88.5961 204.678 82.907C204.922 77.2169 206.334 71.6417 208.895 67.3609L208.037 66.8475C205.37 71.3048 203.928 77.0524 203.679 82.8643C203.431 88.6773 204.376 94.5978 206.527 99.4092L207.44 99.001ZM208.895 67.3607C214.426 58.1086 227.502 58.2703 233.705 67.0578L234.522 66.4811C227.951 57.1733 213.982 56.9022 208.037 66.8476L208.895 67.3607ZM233.705 67.0574C236.162 70.5455 237.415 75.0274 237.801 79.701L238.797 79.6187C238.402 74.8352 237.115 70.1622 234.523 66.4815L233.705 67.0574ZM238.378 80.1536C239.648 79.9507 240.876 80.7107 241.84 81.9815C242.798 83.2441 243.385 84.8782 243.405 86.1161L244.405 86.1002C244.381 84.6164 243.702 82.7808 242.637 81.377C241.578 79.9812 240.025 78.8779 238.22 79.1661L238.378 80.1536ZM243.405 86.1154C243.453 89.4554 241.586 93.1895 238.679 94.5306L239.098 95.4386C242.453 93.8906 244.457 89.7272 244.405 86.1009L243.405 86.1154ZM238.679 94.5308C237.891 94.8949 237.232 95.0291 236.686 95.0089L236.65 96.0082C237.39 96.0356 238.206 95.851 239.099 95.4385L238.679 94.5308Z" fill="#1958FA"/>
<path d="M215.052 80.4104C216.097 81.4825 219.122 81.5454 214.398 90.2433C213.253 92.3573 216.897 92.6367 218.677 91.8791" stroke="#1958FA" stroke-linecap="round" stroke-linejoin="round"/>
<path d="M207.785 80.687C208.686 80.0024 211.09 78.958 214.147 80.3145" stroke="#1958FA" stroke-linecap="round" stroke-linejoin="round"/>
<path d="M227.471 79.303C225.79 78.0925 222.763 77.9641 221.102 79.5547" stroke="#1958FA" stroke-linecap="round" stroke-linejoin="round"/>
<path d="M238.022 54.7698C239.298 54.7698 238.297 59.3326 239.467 60.0322C242.077 61.5901 239.701 63.7042 240.474 66.3719C241.443 69.7331 242.223 73.1461 242.809 76.5949C243.043 77.9438 242.953 79.8792 243.486 81.1451C242.867 79.6753 240.489 77.1813 238.43 79.5596C237.572 80.5512 237.456 84.9856 237.116 86.2037C236.666 87.8245 236.273 87.2683 234.851 87.4495C234.147 82.9043 233.865 69.8047 228.967 69.9456C222.952 70.1168 200.87 76.0361 200.485 65.3199C200.269 59.2999 204.082 52.1347 213.504 51.8831C213.522 51.8831 230.95 48.3924 238.022 54.7698Z" fill="#1958FA"/>
<path d="M214.684 98.9339C216.732 101.851 219.84 100.311 221.514 98.0505" stroke="#1958FA" stroke-linecap="round" stroke-linejoin="round"/>
<path d="M211.912 84.6506C212.033 85.7102 211.615 86.6313 210.974 86.7017C210.332 86.7722 209.715 85.9669 209.607 84.9048C209.499 83.8427 209.909 82.9241 210.548 82.8537C211.188 82.7832 211.797 83.586 211.912 84.6506Z" fill="#1958FA"/>
<path d="M225.74 83.1233C225.861 84.1853 225.438 85.1039 224.799 85.1744C224.16 85.2449 223.54 84.4395 223.435 83.3775C223.329 82.3154 223.734 81.3968 224.376 81.3263C225.018 81.2559 225.619 82.0587 225.74 83.1233Z" fill="#1958FA"/>
<path d="M242.064 117.987L230.362 148.173C230.362 148.173 227.188 177.619 227.827 204.263L242.84 333.42C242.84 333.42 273.672 328.217 284.343 316.288L275.283 204.263L276.496 139.722C276.496 139.722 277.754 132.501 266.766 127.641L242.064 117.987Z" fill="white" stroke="#1958FA" stroke-linecap="round"/>
<path d="M270.096 288.059C274.48 283.126 275.301 277.051 275.281 273.067C274.692 268.813 272.452 268.494 269.646 268.179C267.693 267.96 266.764 268.506 265.322 269.41C264.215 270.333 262.234 271.199 262.234 271.199C257.452 273.741 254.465 275.289 254.465 275.289C254.465 275.289 251.379 276.547 251.742 277.884C252.326 280.038 255.769 278.49 255.769 278.49L258.331 277.735C259.78 277.252 258.95 278.619 258.95 278.619L257.739 281.261C256.274 285.884 248.314 289.901 248.133 289.785C252.847 292.982 259.961 285.93 259.961 285.93C257.439 288.8 254.237 290.992 250.65 292.307C250.65 292.307 247.34 294.902 252.16 294.851C252.16 294.851 259.888 292.838 263.535 287.344C263.535 287.344 261.748 291.768 255.436 294.869C255.436 294.869 253.909 297.356 257.017 297.215C257.017 297.215 265.103 292.249 266.661 288.24C266.661 288.24 265.194 291.947 262.383 294.698C262.383 294.698 262.131 296.591 264.2 295.911C264.197 295.908 269.044 291.099 270.096 288.059Z" fill="white" stroke="#1958FA" stroke-linecap="round"/>
<path d="M206.085 122.208L211.08 153.207L197.077 337.007C197.077 337.007 187.66 335.748 178.242 326.021L182.636 274L184.521 142.39C184.521 142.39 185.415 133.181 192.323 128.699L206.085 122.208Z" fill="white" stroke="#1958FA" stroke-linecap="round"/>
<path d="M257.476 124.26C257.476 124.26 243.906 127.841 249.515 154.058L283.423 207.611L266.143 262.803C266.143 262.803 268.084 273.15 280.924 274.003C280.924 274.003 317.387 222.463 311.83 201.72L275.282 133.871C275.282 133.871 271.944 127.949 257.476 124.26Z" fill="white" stroke="#1958FA" stroke-linecap="round"/>
<path d="M261.326 281.352C265.622 279.998 270.94 277.237 275.492 277.65C276.735 282.013 277.593 286.476 278.057 290.989C278.447 294.975 278.168 300.001 279.26 303.849C275.784 307.159 269.815 308.196 265.511 309.907C261.056 311.669 256.199 315.658 251.281 314.835C246.127 313.971 246.447 306.952 245.745 302.279C245.178 298.519 241.688 289.25 244.287 286.172C246.688 283.338 257.674 282.495 261.326 281.352Z" fill="white"/>
<path d="M243.324 285.527C249.596 284.772 255.578 282.643 261.739 281.342C266.156 280.408 271.459 279.044 275.133 276.309" stroke="#1958FA" stroke-linecap="round" stroke-linejoin="round"/>
<path d="M245 293.48C246.777 300.393 246.804 307.876 249.258 314.334C256.808 314.777 264.719 311.653 271.368 308.545C280.028 304.498 276.653 298.848 276.401 290.551" stroke="#1958FA" stroke-linecap="round" stroke-linejoin="round"/>
<path d="M184.734 280.506C188.879 282.729 193.178 283.627 197.708 285.109" stroke="#1958FA" stroke-linecap="round" stroke-linejoin="round"/>
<path d="M195.194 290.551C195.194 295.37 196.025 305.651 192.579 309.3C189.887 312.154 179.795 307.068 180.129 306.454" stroke="#1958FA" stroke-linecap="round" stroke-linejoin="round"/>
<path d="M201.452 186.78C201.41 187.388 200.822 188.758 200.215 188.724L196.858 187.571C196.713 187.562 196.572 187.524 196.442 187.459C196.313 187.395 196.197 187.305 196.102 187.196C196.007 187.087 195.934 186.96 195.889 186.823C195.843 186.685 195.824 186.54 195.835 186.396C195.844 186.251 195.882 186.11 195.946 185.98C196.01 185.85 196.1 185.734 196.209 185.638C196.318 185.543 196.445 185.47 196.583 185.424C196.72 185.378 196.866 185.36 197.01 185.37L200.472 184.955C201.082 184.997 201.495 186.173 201.452 186.78Z" fill="#1958FA"/>
<path d="M205.866 187.083C205.826 187.694 206.222 189.137 206.83 189.177L210.314 188.493C210.605 188.513 210.893 188.417 211.113 188.225C211.334 188.033 211.469 187.762 211.489 187.47C211.508 187.178 211.411 186.891 211.219 186.671C211.027 186.45 210.755 186.315 210.463 186.295L207.087 185.41C206.479 185.368 205.908 186.476 205.866 187.083Z" fill="#1958FA"/>
<path d="M210.787 187.557C215.537 187.882 217.004 182.169 217.004 182.169C219.304 170.225 209.858 151.155 209.858 151.155C208.561 148.513 206.467 148.894 206.467 148.894C206.467 148.894 204.45 148.219 202.794 150.66C202.794 150.66 190.833 168.261 191.491 180.409C191.491 180.409 192.166 186.266 196.916 186.594" stroke="#1958FA" stroke-miterlimit="10"/>
<path d="M214.18 117.512C206.703 120.508 205.646 145.065 205.641 148.815" stroke="#1958FA" stroke-miterlimit="10"/>
<path d="M243.075 117.512C250.495 121.694 248.629 129.251 247.64 137.499C247.215 141.042 245.533 149.84 241.016 164.265" stroke="#1958FA" stroke-linecap="round" stroke-linejoin="round"/>
<path d="M245.055 168.868C244.598 169.916 243.841 170.804 242.879 171.422C241.918 172.039 240.795 172.357 239.652 172.337C238.51 172.316 237.399 171.957 236.46 171.305C235.522 170.654 234.797 169.738 234.378 168.675C233.96 167.612 233.866 166.448 234.108 165.332C234.35 164.215 234.918 163.195 235.74 162.401C236.562 161.607 237.6 161.074 238.725 160.87C239.849 160.666 241.009 160.8 242.057 161.254C242.754 161.557 243.385 161.994 243.913 162.54C244.441 163.087 244.857 163.732 245.135 164.44C245.414 165.147 245.55 165.902 245.536 166.662C245.522 167.422 245.359 168.172 245.055 168.868Z" fill="#1958FA"/>
<path d="M242.402 167.716C242.174 168.24 241.795 168.684 241.314 168.993C240.833 169.301 240.271 169.46 239.7 169.45C239.129 169.439 238.574 169.26 238.104 168.934C237.635 168.608 237.273 168.15 237.064 167.618C236.855 167.086 236.808 166.505 236.929 165.946C237.051 165.388 237.335 164.878 237.746 164.481C238.157 164.084 238.676 163.818 239.239 163.716C239.801 163.615 240.381 163.682 240.905 163.909C241.253 164.061 241.569 164.279 241.832 164.553C242.096 164.826 242.304 165.149 242.443 165.502C242.582 165.856 242.65 166.234 242.643 166.613C242.636 166.993 242.554 167.368 242.402 167.716Z" fill="white"/>
<path d="M164.565 272.847C160.928 271.725 148.491 255.96 150.421 252.834C153.786 247.388 167.6 250.977 171.733 253.008C168.982 254.518 164.852 252.902 161.653 253.164C165.363 257.963 170.58 261.542 173.733 266.228C172.007 267.829 166.853 262.848 164.807 261.542C166.568 264.857 170.791 265.514 172.46 268.506C170.965 269.732 164.474 266.241 163.385 263.427C163.961 265.8 169.405 270.567 169.405 270.567C168.184 273.172 162.567 267.295 161.603 265.926C161.799 267.509 166.961 272.621 164.565 272.847Z" fill="white" stroke="#1958FA" stroke-linecap="round" stroke-linejoin="round"/>
<path fill-rule="evenodd" clip-rule="evenodd" d="M91.9997 161.807C87.4495 148.468 75.193 145.999 75.193 145.999H74.4203C59.9818 155.769 69.8902 175.576 69.8902 175.576C79.4248 202.952 99.5303 225.207 103.263 229.187C105.173 231.959 111.983 240.325 129.184 248.616L148.332 259.69C148.332 259.69 156.179 256.167 156.179 248.616L111.605 212.32C111.605 212.32 111.559 212.298 111.474 212.269C111.466 212.251 111.462 212.242 111.462 212.242L91.9997 161.807Z" fill="url(#paint1_linear_1505_2188)"/>
<path d="M46.4073 83.4637C46.4073 83.4637 30.4613 87.2388 29.8346 109.681L29.0469 200.492C29.0469 200.492 54.2142 213.098 78.9084 199.14L76.1072 95.8335C76.1072 95.8335 74.2499 78.0779 46.4073 83.4637Z" fill="#1958FA"/>
<mask id="path-43-inside-1_1505_2188" fill="white">
<path fill-rule="evenodd" clip-rule="evenodd" d="M44.3334 119.456L62.6728 119.427L62.7109 143.709C63.8044 143.832 68.9238 144.507 77.9161 147.209C77.9161 147.209 88.426 182.695 78.4723 218.589L42.7649 222.711L18.0078 159.853C27.6915 153.144 39.7428 148.112 44.3755 146.294L44.3334 119.456Z"/>
</mask>
<path fill-rule="evenodd" clip-rule="evenodd" d="M44.3334 119.456L62.6728 119.427L62.7109 143.709C63.8044 143.832 68.9238 144.507 77.9161 147.209C77.9161 147.209 88.426 182.695 78.4723 218.589L42.7649 222.711L18.0078 159.853C27.6915 153.144 39.7428 148.112 44.3755 146.294L44.3334 119.456Z" fill="white"/>
<path d="M62.6728 119.427L63.6728 119.426L63.6712 118.426L62.6712 118.427L62.6728 119.427ZM44.3334 119.456L44.3318 118.456L43.3318 118.458L43.3334 119.458L44.3334 119.456ZM62.7109 143.709L61.7109 143.711L61.7123 144.603L62.5993 144.703L62.7109 143.709ZM77.9161 147.209L78.8749 146.925L78.7214 146.407L78.2038 146.252L77.9161 147.209ZM78.4723 218.589L78.587 219.582L79.256 219.505L79.4359 218.856L78.4723 218.589ZM42.7649 222.711L41.8345 223.078L42.1161 223.793L42.8796 223.705L42.7649 222.711ZM18.0078 159.853L17.4383 159.031L16.787 159.483L17.0774 160.22L18.0078 159.853ZM44.3755 146.294L44.7407 147.225L45.3766 146.976L45.3755 146.293L44.3755 146.294ZM62.6712 118.427L44.3318 118.456L44.3349 120.456L62.6743 120.427L62.6712 118.427ZM63.7109 143.707L63.6728 119.426L61.6728 119.429L61.7109 143.711L63.7109 143.707ZM78.2038 146.252C69.1551 143.533 63.9767 142.845 62.8225 142.715L62.5993 144.703C63.6321 144.819 68.6925 145.482 77.6283 148.167L78.2038 146.252ZM79.4359 218.856C84.4574 200.748 84.3124 182.768 82.9215 169.336C82.2256 162.616 81.2166 157.023 80.3807 153.106C79.9627 151.148 79.5878 149.608 79.3166 148.555C79.1811 148.028 79.0714 147.624 78.9953 147.349C78.9572 147.212 78.9275 147.107 78.9071 147.036C78.8969 147.001 78.8891 146.974 78.8837 146.955C78.881 146.946 78.8789 146.939 78.8774 146.934C78.8767 146.931 78.8761 146.929 78.8757 146.928C78.8755 146.927 78.8753 146.927 78.8752 146.926C78.875 146.926 78.8749 146.925 77.9161 147.209C76.9573 147.493 76.9572 147.493 76.9572 147.493C76.9573 147.493 76.9573 147.494 76.9574 147.494C76.9577 147.495 76.958 147.496 76.9586 147.498C76.9596 147.501 76.9613 147.507 76.9636 147.515C76.9683 147.531 76.9753 147.555 76.9847 147.588C77.0035 147.654 77.0316 147.753 77.0681 147.884C77.141 148.147 77.2475 148.54 77.3798 149.054C77.6446 150.082 78.013 151.594 78.4248 153.524C79.2484 157.382 80.2448 162.904 80.9321 169.542C82.3077 182.826 82.4408 200.536 77.5087 218.322L79.4359 218.856ZM42.8796 223.705L78.587 219.582L78.3576 217.595L42.6502 221.718L42.8796 223.705ZM17.0774 160.22L41.8345 223.078L43.6953 222.345L18.9382 159.487L17.0774 160.22ZM44.0103 145.364C39.3627 147.187 27.2216 152.253 17.4383 159.031L18.5773 160.675C28.1614 154.035 40.123 149.037 44.7407 147.225L44.0103 145.364ZM43.3334 119.458L43.3755 146.296L45.3755 146.293L45.3334 119.455L43.3334 119.458Z" fill="#1958FA" mask="url(#path-43-inside-1_1505_2188)"/>
<path d="M22.6978 311.646C18.0645 281.387 32.513 237.402 40.1513 228.412C70.7371 232.585 86.9902 227.909 86.9902 227.909C95.8491 243.646 103.435 267.807 102.111 300.174L22.6978 311.646Z" fill="#1958FA"/>
<path d="M63.6985 324.683C63.6985 324.683 66.8922 373.935 50.5008 494.955C50.5008 494.955 41.7199 498.168 35.0153 494.955C27.7973 422.113 29.1237 382.258 29.1237 382.258L21.6641 300.162C21.6641 300.162 74.4852 273.55 63.6985 324.683Z" fill="#1958FA"/>
<path d="M113.987 495.128C114.211 503.738 97.0292 496.525 97.0292 496.525C80.079 444.554 78.5816 388.582 78.5816 388.582L59.0039 302.316C61.5206 274.182 101.788 277.879 101.788 277.879C101.788 277.879 109.578 325.898 113.987 495.128Z" fill="#1958FA"/>
<path d="M40.0352 235.499C46.6114 238.333 56.6682 237.885 63.8913 237.591C69.0757 237.382 82.6585 237.492 85.6559 233.815" stroke="#F5FAFF" stroke-linecap="round" stroke-linejoin="round"/>
<path d="M70.6787 240.329C70.6787 246.437 71.4338 256.592 70.0672 267.238H62.0312" stroke="#F5FAFF" stroke-linecap="round" stroke-linejoin="round"/>
<path d="M71.4265 278.188C69.6321 296.48 64.5156 310.445 63.4887 328.833C62.6809 343.291 63.899 362.449 62.6456 376.975C62.0693 383.665 59.6809 415.579 59.0039 422.309" stroke="#F5FAFF" stroke-linecap="round" stroke-linejoin="round"/>
<path d="M64.7305 329.673C66.9326 342.76 70.9216 356.099 74.0424 369.108C75.263 374.184 75.8947 379.25 77.7974 384.175C79.8258 389.425 79.393 426.155 82.4457 430.823" stroke="#F5FAFF" stroke-linecap="round" stroke-linejoin="round"/>
<path d="M30.832 263.123C43.6523 269.684 51.5875 254.181 51.7587 243.87" stroke="#F5FAFF" stroke-linecap="round" stroke-linejoin="round"/>
<path d="M84.8203 240.103C86.1718 246.269 88.3941 260.166 96.9585 258.1" stroke="#F5FAFF" stroke-linecap="round" stroke-linejoin="round"/>
<path fill-rule="evenodd" clip-rule="evenodd" d="M53.8504 133.854C49.2649 131.068 46.6072 127.094 44.6517 122.247C44.5963 122.109 44.5413 121.971 44.4869 121.832C43.6308 122.309 42.5052 122.342 41.0685 121.688C38.0283 120.311 36.1332 116.503 36.1685 113.131C36.1899 110.511 38.5581 106.435 41.5197 106.851C41.5012 102.833 42.195 98.9099 43.9219 95.5994C48.8773 86.0988 61.8158 84.1433 68.5581 92.607C74.6964 100.308 76.9565 113.584 74.1277 123.198C72.8995 127.373 70.6923 131.521 67.2721 134.375C62.9685 137.964 58.3377 136.577 53.8504 133.854Z" fill="white"/>
<path d="M44.6517 122.247L45.1154 122.06L45.1153 122.059L44.6517 122.247ZM53.8504 133.854L53.5907 134.281L53.591 134.281L53.8504 133.854ZM44.4869 121.832L44.9525 121.65L44.7439 121.116L44.2435 121.395L44.4869 121.832ZM41.0685 121.688L41.2758 121.233L41.2748 121.232L41.0685 121.688ZM36.1685 113.131L36.6684 113.136L36.6684 113.135L36.1685 113.131ZM41.5197 106.851L41.4503 107.346L42.0224 107.426L42.0197 106.848L41.5197 106.851ZM43.9219 95.5994L44.3652 95.8307L44.3652 95.8307L43.9219 95.5994ZM68.5581 92.607L68.1671 92.9186L68.1671 92.9187L68.5581 92.607ZM74.1277 123.198L73.648 123.057L73.648 123.057L74.1277 123.198ZM67.2721 134.375L67.5923 134.759L67.5924 134.759L67.2721 134.375ZM44.188 122.434C46.1686 127.343 48.8835 131.421 53.5907 134.281L54.11 133.426C49.6463 130.714 47.0458 126.845 45.1154 122.06L44.188 122.434ZM44.0212 122.014C44.0763 122.155 44.132 122.295 44.1881 122.434L45.1153 122.059C45.0606 121.924 45.0063 121.787 44.9525 121.65L44.0212 122.014ZM40.8613 122.143C42.3957 122.842 43.6958 122.845 44.7303 122.269L44.2435 121.395C43.5658 121.773 42.6148 121.843 41.2758 121.233L40.8613 122.143ZM35.6685 113.126C35.6317 116.642 37.5967 120.665 40.8623 122.143L41.2748 121.232C38.4599 119.958 36.6347 116.365 36.6684 113.136L35.6685 113.126ZM41.5892 106.356C39.843 106.111 38.3519 107.197 37.3406 108.554C36.3232 109.918 35.6802 111.693 35.6685 113.127L36.6684 113.135C36.6782 111.948 37.23 110.375 38.1424 109.151C39.061 107.919 40.2348 107.175 41.4503 107.346L41.5892 106.356ZM43.4785 95.3682C41.7033 98.7715 41.0009 102.781 41.0197 106.853L42.0197 106.848C42.0014 102.885 42.6868 99.0483 44.3652 95.8307L43.4785 95.3682ZM68.9492 92.2955C61.9552 83.5158 48.5812 85.5852 43.4785 95.3682L44.3652 95.8307C49.1734 86.6123 61.6764 84.7707 68.1671 92.9186L68.9492 92.2955ZM74.6073 123.339C76.0476 118.444 76.1874 112.642 75.1978 107.097C74.2084 101.554 72.0824 96.2264 68.9491 92.2954L68.1671 92.9187C71.1722 96.6888 73.2454 101.85 74.2134 107.273C75.1812 112.695 75.0365 118.338 73.648 123.057L74.6073 123.339ZM67.5924 134.759C71.1117 131.822 73.3611 127.576 74.6073 123.339L73.648 123.057C72.4379 127.171 70.273 131.219 66.9518 133.991L67.5924 134.759ZM53.591 134.281C55.8593 135.658 58.2134 136.729 60.5776 136.978C62.9657 137.231 65.3344 136.642 67.5923 134.759L66.9519 133.991C64.9061 135.697 62.8077 136.209 60.6827 135.984C58.5337 135.757 56.3288 134.773 54.1098 133.426L53.591 134.281Z" fill="#1958FA"/>
<path d="M67.7082 110.816C67.7711 111.883 68.3424 112.716 68.9841 112.676C69.6259 112.635 70.0915 111.737 70.0236 110.662C69.9556 109.588 69.3843 108.765 68.7425 108.805C68.1008 108.845 67.6276 109.746 67.7082 110.816Z" fill="#1958FA"/>
<path d="M53.8308 111.686C53.8963 112.754 54.4701 113.587 55.1093 113.546C55.7486 113.506 56.2142 112.608 56.1488 111.533C56.0833 110.458 55.5095 109.633 54.8677 109.673C54.226 109.713 53.7629 110.619 53.8308 111.686Z" fill="#1958FA"/>
<path d="M62.4062 110.033C63.0228 113.669 63.3123 114.492 63.9868 115.179C64.3316 115.532 66.7552 116.224 66.8986 116.717C67.1931 117.648 66.0706 119.09 63.5791 119.44" stroke="#1958FA" stroke-linecap="round" stroke-linejoin="round"/>
<path d="M51.9766 108.276C52.9203 106.927 55.8548 106.449 57.5134 107.594" stroke="#1958FA" stroke-linecap="round" stroke-linejoin="round"/>
<path d="M66 107.395C66.9438 106.046 69.8783 105.568 71.5368 106.713" stroke="#1958FA" stroke-linecap="round" stroke-linejoin="round"/>
<path d="M46.5048 113.78C43.91 112.31 43.4495 110.878 43.004 111.145C42.8228 109.424 41.6651 107.946 39.6215 107.873C38.1593 107.823 36.7625 110.045 36.3498 111.523C36.2466 109.97 36.2743 107.748 36.2491 106.081C36.2286 104.452 36.3127 102.823 36.5008 101.204C36.9412 97.4491 37.2332 95.3854 39.0175 91.8569C40.9327 88.0567 43.9352 85.1071 48.2011 84.0249C53.3478 82.7137 61.7612 81.634 66.1479 84.7799C68.3978 86.3956 66.5304 86.8134 66.2184 93.8854C66.2133 93.893 46.0065 89.0734 46.5048 113.78Z" fill="#1958FA"/>
<path d="M74.4258 105.684C77.1363 99.3364 78.1002 88.5925 66.3722 84.3719C63.4931 83.3376 56.4588 82.6807 54.1309 85.2452C48.9741 90.928 60.5812 93.1704 63.6944 93.4825C68.6222 93.9808 71.9896 95.3348 74.4258 105.684Z" fill="#1958FA"/>
<path d="M56.1172 123.143C56.9477 125.262 59.2128 126.81 61.8855 125.977" stroke="#1958FA" stroke-linecap="round" stroke-linejoin="round"/>
<path d="M46.4168 104.237C46.4168 104.237 50.0308 102.11 58.1901 101.599L60.2462 96.8172L60.6791 101.521L65.8384 101.383C66.3594 101.367 66.7495 99.0395 66.7495 99.0395L67.6429 101.332C67.6429 101.332 72.5732 101.491 74.9716 101.423C74.9716 101.423 74.9062 86.7528 57.8578 88.8392C57.8453 88.8593 46.0041 89.7603 46.4168 104.237Z" fill="#1958FA"/>
<path d="M34.6667 166.744C34.3467 162.254 32.805 157.628 28.4569 153.941L31.9594 152.253C31.9656 152.254 31.9723 152.256 31.9795 152.258C32.0758 152.285 32.2191 152.339 32.4127 152.427C32.7963 152.6 33.3154 152.876 33.9351 153.23C35.1712 153.935 36.7627 154.925 38.3806 155.952C39.3757 156.584 40.3751 157.226 41.3056 157.825C41.889 158.2 42.4453 158.558 42.9565 158.884C43.6176 159.307 44.2025 159.677 44.6676 159.963C45.1222 160.242 45.4896 160.457 45.7005 160.553L45.7008 160.553C52.6858 163.737 61.3618 165.257 67.6422 163.405C70.7999 162.475 73.3878 160.678 74.8074 157.78C76.1369 155.065 76.4034 151.461 75.2651 146.847L77.5891 147.629L77.6141 147.667C77.6927 147.789 77.8092 147.97 77.9601 148.206C78.2619 148.678 78.7014 149.372 79.2511 150.258C80.3505 152.029 81.8906 154.566 83.6521 157.624C87.174 163.739 91.5758 171.933 95.1109 180.27C97.083 186.068 96.8369 193.155 95.364 200.78C93.8911 208.405 91.2034 216.512 88.3514 224.315C87.9424 225.434 87.0449 226.481 85.7093 227.445C84.3759 228.407 82.6369 229.264 80.6009 230.011C76.5293 231.505 71.34 232.535 66.0144 233.115C60.6919 233.694 55.2573 233.821 50.7039 233.522C48.427 233.372 46.3786 233.116 44.6791 232.759C42.9699 232.4 41.652 231.947 40.8088 231.423L40.8087 231.423C40.7191 231.367 40.5496 231.217 40.2941 230.934C40.0485 230.662 39.7517 230.299 39.4093 229.853C38.725 228.962 37.8756 227.764 36.9175 226.355C35.0023 223.537 32.6671 219.894 30.376 216.22C28.0854 212.548 25.8414 208.848 24.1089 205.917C23.2426 204.451 22.5051 203.179 21.954 202.2C21.3956 201.208 21.0458 200.546 20.9367 200.28C20.51 199.237 20.8141 198.114 21.7289 196.747C22.5612 195.503 23.8225 194.17 25.2523 192.659C25.3961 192.507 25.5417 192.353 25.6887 192.197C28.8622 188.835 32.632 184.671 33.5012 179.198L33.5012 179.198C33.5805 178.699 33.6714 178.166 33.7671 177.605C34.2866 174.561 34.9477 170.687 34.6667 166.744Z" fill="url(#paint2_linear_1505_2188)" stroke="#F5FAFF"/>
<path d="M90.9852 214.428C85.7781 220.028 68.1232 221.128 66.5326 217.813C65.4303 215.521 69.301 206.566 71.8933 202.66C73.4864 202.66 74.2439 202.66 73.0585 209.775C79.1113 209.392 83.8805 203.896 89.523 203.916C89.8778 206.244 84.0365 209.825 81.8092 210.787C83.8226 210.447 88.6245 205.293 92.0372 205.59C92.2159 207.515 85.5189 213.704 82.5693 213.022C84.8595 213.872 92.5154 208.552 92.5154 208.552C93.9877 211.023 85.31 215.865 83.6389 215.901C85.0558 216.615 92.1429 212.317 90.9852 214.428Z" fill="white" stroke="#1958FA" stroke-linecap="round" stroke-linejoin="round"/>
<mask id="path-67-inside-2_1505_2188" fill="white">
<path fill-rule="evenodd" clip-rule="evenodd" d="M13.4071 169.56C16.2334 156.254 28.9932 153.506 28.9932 153.506C42.6968 156.163 39.4779 172.595 39.4779 172.595L27.5436 219.592C27.5429 219.595 27.5423 219.597 27.5416 219.599L66.7719 211.164L69.5076 221.558L37.1172 237.798C18.0166 251.248 3.78327 237.888 3.68798 237.799C3.68766 237.799 3.6875 237.799 3.6875 237.799V237.798C3.68762 237.797 3.68773 237.797 3.68785 237.796L13.4071 169.56Z"/>
</mask>
<path fill-rule="evenodd" clip-rule="evenodd" d="M13.4071 169.56C16.2334 156.254 28.9932 153.506 28.9932 153.506C42.6968 156.163 39.4779 172.595 39.4779 172.595L27.5436 219.592C27.5429 219.595 27.5423 219.597 27.5416 219.599L66.7719 211.164L69.5076 221.558L37.1172 237.798C18.0166 251.248 3.78327 237.888 3.68798 237.799C3.68766 237.799 3.6875 237.799 3.6875 237.799V237.798C3.68762 237.797 3.68773 237.797 3.68785 237.796L13.4071 169.56Z" fill="url(#paint3_linear_1505_2188)"/>
<path d="M28.9932 153.506L29.1836 152.524L28.9827 152.485L28.7827 152.528L28.9932 153.506ZM13.4071 169.56L12.4289 169.352L12.4219 169.385L12.4171 169.419L13.4071 169.56ZM39.4779 172.595L40.4472 172.841L40.454 172.814L40.4593 172.787L39.4779 172.595ZM27.5436 219.592L28.4961 219.897L28.5054 219.868L28.5128 219.839L27.5436 219.592ZM27.5416 219.599L26.5891 219.294L26.0633 220.939L27.7518 220.576L27.5416 219.599ZM66.7719 211.164L67.7389 210.909L67.4958 209.985L66.5617 210.186L66.7719 211.164ZM69.5076 221.558L69.9558 222.452L70.6812 222.088L70.4746 221.303L69.5076 221.558ZM37.1172 237.798L36.669 236.904L36.6024 236.938L36.5415 236.981L37.1172 237.798ZM3.68798 237.799L4.37377 237.071L4.21325 236.92L4.004 236.85L3.68798 237.799ZM3.6875 237.799H2.6875V238.52L3.37216 238.747L3.6875 237.799ZM3.6875 237.798L2.70047 237.638L2.6875 237.717V237.798H3.6875ZM3.68785 237.796L4.67486 237.957L4.67646 237.947L4.67786 237.937L3.68785 237.796ZM28.9932 153.506C28.7827 152.528 28.7822 152.528 28.7816 152.528C28.7814 152.528 28.7808 152.528 28.7803 152.529C28.7793 152.529 28.7781 152.529 28.7767 152.529C28.7739 152.53 28.7704 152.531 28.7661 152.532C28.7574 152.534 28.7458 152.536 28.7311 152.54C28.7018 152.546 28.6606 152.556 28.6082 152.569C28.5035 152.595 28.3539 152.634 28.165 152.688C27.7875 152.796 27.2521 152.963 26.604 153.207C25.3093 153.693 23.5551 154.484 21.7073 155.71C18.0033 158.167 13.9093 162.383 12.4289 169.352L14.3853 169.768C15.7312 163.431 19.4303 159.62 22.8128 157.376C24.5082 156.252 26.1206 155.524 27.3067 155.079C27.899 154.857 28.3826 154.706 28.7138 154.611C28.8794 154.564 29.0067 154.531 29.0902 154.51C29.132 154.5 29.1628 154.493 29.182 154.488C29.1915 154.486 29.1982 154.484 29.2019 154.484C29.2037 154.483 29.2048 154.483 29.2051 154.483C29.2053 154.483 29.2052 154.483 29.205 154.483C29.2049 154.483 29.2046 154.483 29.2046 154.483C29.2042 154.483 29.2038 154.483 28.9932 153.506ZM39.4779 172.595C40.4593 172.787 40.4594 172.787 40.4595 172.786C40.4595 172.786 40.4596 172.785 40.4597 172.785C40.4599 172.784 40.4602 172.783 40.4605 172.781C40.4611 172.778 40.4619 172.774 40.4628 172.769C40.4647 172.759 40.4673 172.745 40.4706 172.727C40.4771 172.691 40.4861 172.64 40.497 172.575C40.5189 172.444 40.5484 172.256 40.5805 172.017C40.6447 171.541 40.7198 170.862 40.7652 170.041C40.8559 168.405 40.8308 166.177 40.3541 163.847C39.8777 161.517 38.9409 159.042 37.175 156.962C35.396 154.867 32.8224 153.23 29.1836 152.524L28.8028 154.487C32.0158 155.11 34.1788 156.524 35.6504 158.257C37.135 160.005 37.9629 162.136 38.3947 164.247C38.8263 166.357 38.8529 168.403 38.7683 169.931C38.7261 170.692 38.6567 171.318 38.5984 171.75C38.5693 171.966 38.543 172.134 38.5244 172.245C38.5151 172.301 38.5078 172.342 38.5029 172.369C38.5005 172.382 38.4987 172.392 38.4976 172.397C38.4971 172.4 38.4967 172.402 38.4965 172.403C38.4965 172.403 38.4964 172.404 38.4964 172.404C38.4964 172.404 38.4965 172.403 38.4965 172.403C38.4965 172.403 38.4966 172.403 39.4779 172.595ZM28.5128 219.839L40.4472 172.841L38.5087 172.349L26.5744 219.346L28.5128 219.839ZM28.4941 219.903C28.4944 219.902 28.4947 219.901 28.495 219.9C28.4953 219.899 28.4957 219.898 28.4961 219.897L26.5911 219.288C26.5908 219.289 26.5905 219.29 26.5902 219.291C26.5899 219.292 26.5895 219.293 26.5891 219.294L28.4941 219.903ZM66.5617 210.186L27.3314 218.621L27.7518 220.576L66.9821 212.141L66.5617 210.186ZM70.4746 221.303L67.7389 210.909L65.8048 211.418L68.5405 221.812L70.4746 221.303ZM37.5655 238.692L69.9558 222.452L69.0594 220.664L36.669 236.904L37.5655 238.692ZM3.00219 238.526C3.10587 238.624 6.82735 242.107 13.0057 243.839C19.2343 245.584 27.8816 245.524 37.693 238.616L36.5415 236.981C27.2523 243.521 19.2325 243.507 13.5455 241.913C7.80823 240.305 4.36538 237.063 4.37377 237.071L3.00219 238.526ZM3.6875 237.799C3.37216 238.747 3.37216 238.747 3.37216 238.747C3.37216 238.747 3.37216 238.747 3.37216 238.747C3.37216 238.747 3.37216 238.747 3.37216 238.747C3.37216 238.747 3.37216 238.747 3.37215 238.747C3.37215 238.747 3.37215 238.747 3.37214 238.747C3.37214 238.747 3.37213 238.747 3.37212 238.747C3.37211 238.747 3.3721 238.747 3.37209 238.747C3.37206 238.747 3.37204 238.747 3.37202 238.747C3.37199 238.747 3.37196 238.747 3.37194 238.747C3.37191 238.747 3.37191 238.747 3.37196 238.747L4.004 236.85C4.00373 236.85 4.00349 236.85 4.0033 236.85C4.0032 236.85 4.00311 236.85 4.00304 236.85C4.003 236.85 4.00296 236.85 4.00293 236.85C4.00291 236.85 4.0029 236.85 4.00288 236.85C4.00287 236.85 4.00287 236.85 4.00286 236.85C4.00285 236.85 4.00285 236.85 4.00285 236.85C4.00284 236.85 4.00284 236.85 4.00284 236.85C4.00284 236.85 4.00284 236.85 4.00284 236.85C4.00284 236.85 4.00284 236.85 4.00284 236.85C4.00284 236.85 4.00284 236.85 3.6875 237.799ZM2.6875 237.798V237.799H4.6875V237.798H2.6875ZM2.70084 237.635C2.7007 237.636 2.70057 237.637 2.70052 237.637C2.70045 237.638 2.70046 237.638 2.70047 237.638L4.67453 237.959C4.67466 237.958 4.67478 237.957 4.67483 237.957C4.6749 237.956 4.67489 237.957 4.67486 237.957L2.70084 237.635ZM12.4171 169.419L2.69784 237.655L4.67786 237.937L14.3971 169.701L12.4171 169.419Z" fill="#F5FAFF" mask="url(#path-67-inside-2_1505_2188)"/>
<path fill-rule="evenodd" clip-rule="evenodd" d="M187.244 38.2417C187.244 18.491 161.7 2.47583 130.185 2.47583C98.6699 2.47583 73.1416 18.491 73.1416 38.2417C73.1416 57.9923 98.6838 74.0075 130.192 74.0075C144.457 74.0075 157.506 70.7247 167.51 65.2974C167.833 65.1214 168.057 65.4109 168.996 65.8892C170.731 66.7692 173.778 68.3375 176.457 69.1422C181.898 70.7744 187.746 70.7602 187.746 70.7602C187.746 70.7602 184.464 68.5887 181.872 65.1384C179.614 62.1395 177.93 57.8589 178.656 57.1365C184.095 51.6496 187.244 45.1763 187.244 38.2417Z" fill="white" stroke="#1958FA" stroke-linejoin="round"/>
<path d="M93.0625 38.9708C104.169 37.5723 101.824 33.7455 100.958 33.4641C100.092 33.1826 97.9265 35.4342 97.4934 36.8415C97.0603 38.2488 96.1941 41.3909 100.958 42.2353C105.722 43.0797 112.853 39.263 114.021 37.1881C115.188 35.1131 113.271 32.6274 111.44 32.6274C109.609 32.6274 108.824 34.3448 108.824 36.0623C108.824 37.7797 111.706 41.8035 116.376 41.8035C121.047 41.8035 124.47 41.4137 126.196 38.4471C127.923 35.4804 125.568 32.9709 124.26 32.9709C122.952 32.9709 121.12 34.3448 121.12 36.0623C121.12 37.7797 123.249 41.8035 128.446 41.8035C133.643 41.8035 141.789 39.1536 143.097 34.3448C144.405 29.536 141.789 27.8186 139.434 27.8186C137.08 27.8186 134.725 29.536 134.742 33.4641C134.758 37.3921 139.813 41.1095 144.144 42.2353C154.736 44.9888 167.167 35.199 167.167 35.199" stroke="#1958FA" stroke-linecap="round"/>
</g>
<defs>
<linearGradient id="paint0_linear_1505_2188" x1="232.027" y1="116.558" x2="232.027" y2="283.063" gradientUnits="userSpaceOnUse">
<stop stop-color="#ACE34D"/>
<stop offset="1" stop-color="#68CEFF"/>
</linearGradient>
<linearGradient id="paint1_linear_1505_2188" x1="111.377" y1="145.999" x2="111.377" y2="259.69" gradientUnits="userSpaceOnUse">
<stop stop-color="#ACE34D"/>
<stop offset="1" stop-color="#68CEFF"/>
</linearGradient>
<linearGradient id="paint2_linear_1505_2188" x1="58.6377" y1="146.078" x2="58.6377" y2="234.178" gradientUnits="userSpaceOnUse">
<stop stop-color="#ACE34D"/>
<stop offset="1" stop-color="#68CEFF"/>
</linearGradient>
<linearGradient id="paint3_linear_1505_2188" x1="36.5975" y1="153.506" x2="36.5975" y2="243.796" gradientUnits="userSpaceOnUse">
<stop stop-color="#ACE34D"/>
<stop offset="1" stop-color="#68CEFF"/>
</linearGradient>
</defs>
</svg>
