<svg width="362" height="445" viewBox="0 0 362 445" fill="none" xmlns="http://www.w3.org/2000/svg">
<path d="M277.683 444C271.199 430.99 260.378 417.217 248.209 403.957C230.835 385.024 230.918 359.25 230.918 359.25L251.689 207.401C251.689 207.401 295.582 241.342 301.187 255.789C303.213 261.013 315.717 308.386 325.055 350.198C339.326 414.105 361.008 444 361.008 444H277.683Z" fill="white" stroke="#1958FA" stroke-linecap="round"/>
<path d="M241.521 106.472L122.27 106.008C118.797 105.995 115.462 107.362 112.997 109.806C110.532 112.25 109.139 115.573 109.124 119.043L108.109 378.78C108.097 382.25 109.464 385.583 111.91 388.046C114.356 390.509 117.68 391.902 121.152 391.917L240.403 392.382C243.876 392.394 247.211 391.028 249.676 388.584C252.141 386.14 253.534 382.817 253.549 379.347L254.565 119.61C254.577 116.14 253.21 112.807 250.764 110.343C248.319 107.879 244.994 106.487 241.521 106.472Z" fill="#1958FA"/>
<path d="M208.396 115.4H154.333C153.908 115.4 153.5 115.232 153.2 114.932C152.899 114.631 152.73 114.224 152.73 113.799C152.73 113.375 152.899 112.967 153.2 112.667C153.5 112.367 153.908 112.198 154.333 112.198H208.396C208.821 112.198 209.228 112.367 209.529 112.667C209.829 112.967 209.998 113.375 209.998 113.799C209.998 114.224 209.829 114.631 209.529 114.932C209.228 115.232 208.821 115.4 208.396 115.4Z" fill="#1958FA"/>
<path d="M122.478 275.191C121.01 249.724 111.1 243.882 108.65 242.819C108.645 242.819 108.113 378.779 108.113 378.779C108.101 382.249 109.468 385.582 111.914 388.045C114.36 390.508 117.684 391.901 121.156 391.916L126.683 391.937C129.126 375.139 129.289 358.032 124.161 335.556C119.933 317.061 124.153 304.296 122.478 275.191Z" fill="#1958FA"/>
<path d="M253.544 379.346L254.077 242.847C251.526 243.978 241.761 249.93 240.306 275.192C238.628 304.297 242.847 317.065 238.628 335.559C233.456 358.225 233.665 375.432 236.168 392.367L240.398 392.384C243.871 392.396 247.207 391.03 249.672 388.585C252.137 386.14 253.53 382.817 253.544 379.346Z" fill="#1958FA"/>
<path d="M235.707 382.378L125.893 381.95C122.91 381.939 120.053 380.743 117.952 378.626C115.85 376.51 114.676 373.646 114.688 370.665L115.658 132.368C115.669 129.387 116.865 126.533 118.983 124.433C121.1 122.333 123.965 121.159 126.947 121.17L236.762 121.599C238.239 121.605 239.701 121.901 241.063 122.471C242.426 123.042 243.663 123.874 244.703 124.922C245.744 125.97 246.568 127.213 247.128 128.579C247.688 129.945 247.973 131.408 247.967 132.885L246.996 371.181C246.985 374.162 245.789 377.016 243.672 379.116C241.555 381.216 238.69 382.389 235.707 382.378Z" fill="white"/>
<path fill-rule="evenodd" clip-rule="evenodd" d="M139.925 169.761C145.55 159.396 148.99 157.99 148.99 157.99C163.328 152.458 168.14 164.579 166.869 170.288C165.599 175.997 151.965 194.005 144.441 203.315C142.749 205.41 141.078 207.277 139.449 208.897C140.981 211.68 142.636 214.751 144.115 217.497C145.853 220.722 147.35 223.5 148.121 224.835C149.898 227.91 149.387 229.314 149.387 229.314C148.627 233.79 144.444 237.166 144.444 237.166C143.385 239.977 128.703 224.426 123.58 217.544C118.169 210.28 120.512 203.974 120.699 203.502C120.803 203.144 120.92 202.789 121.051 202.436C122.236 199.229 126.498 192.246 130.967 184.923C134.209 179.611 137.56 174.119 139.925 169.761Z" fill="white"/>
<path d="M148.99 157.99L148.81 157.524L148.801 157.527L148.99 157.99ZM139.925 169.761L139.485 169.523L139.925 169.761ZM166.869 170.288L166.381 170.179L166.869 170.288ZM144.441 203.315L144.052 203.001L144.441 203.315ZM139.449 208.897L139.097 208.543C138.939 208.7 138.904 208.943 139.011 209.138L139.449 208.897ZM144.115 217.497L144.555 217.259L144.115 217.497ZM148.121 224.835L148.554 224.585L148.121 224.835ZM149.387 229.314L148.917 229.143C148.907 229.172 148.899 229.201 148.894 229.231L149.387 229.314ZM144.444 237.166L144.13 236.777C144.061 236.833 144.008 236.907 143.976 236.99L144.444 237.166ZM123.58 217.544L123.981 217.246L123.981 217.246L123.58 217.544ZM120.699 203.502L121.164 203.687C121.169 203.672 121.174 203.657 121.179 203.642L120.699 203.502ZM121.051 202.436L120.582 202.263H120.582L121.051 202.436ZM130.967 184.923L131.393 185.184L130.967 184.923ZM148.99 157.99C148.801 157.527 148.8 157.528 148.8 157.528C148.8 157.528 148.799 157.528 148.799 157.528C148.798 157.529 148.797 157.529 148.796 157.529C148.795 157.53 148.793 157.531 148.791 157.532C148.787 157.533 148.782 157.535 148.776 157.538C148.765 157.543 148.75 157.55 148.732 157.558C148.697 157.576 148.648 157.6 148.587 157.634C148.465 157.703 148.293 157.808 148.073 157.965C147.634 158.28 147.005 158.801 146.204 159.645C144.603 161.331 142.313 164.313 139.485 169.523L140.364 170C143.162 164.845 145.404 161.941 146.929 160.333C147.692 159.53 148.274 159.052 148.655 158.779C148.846 158.642 148.987 158.557 149.075 158.507C149.119 158.483 149.15 158.467 149.167 158.459C149.176 158.455 149.181 158.452 149.183 158.451C149.184 158.451 149.184 158.451 149.184 158.451C149.183 158.451 149.183 158.452 149.182 158.452C149.182 158.452 149.181 158.452 149.181 158.452C149.18 158.453 149.18 158.453 149.18 158.453C149.179 158.453 149.179 158.453 148.99 157.99ZM167.357 170.397C168.028 167.384 167.099 162.758 164.149 159.583C162.663 157.984 160.662 156.751 158.101 156.283C155.543 155.815 152.46 156.115 148.81 157.524L149.17 158.457C152.689 157.099 155.584 156.839 157.921 157.267C160.255 157.693 162.066 158.811 163.417 160.264C166.139 163.194 166.981 167.483 166.381 170.179L167.357 170.397ZM144.83 203.63C148.597 198.968 153.893 192.13 158.409 185.74C160.666 182.545 162.733 179.456 164.316 176.804C165.888 174.172 167.02 171.912 167.357 170.397L166.381 170.179C166.083 171.519 165.034 173.651 163.458 176.292C161.893 178.913 159.842 181.978 157.592 185.163C153.092 191.531 147.81 198.352 144.052 203.001L144.83 203.63ZM139.802 209.252C141.445 207.617 143.128 205.736 144.83 203.63L144.052 203.001C142.369 205.083 140.711 206.937 139.097 208.543L139.802 209.252ZM144.555 217.259C143.076 214.514 141.42 211.441 139.887 208.656L139.011 209.138C140.542 211.919 142.195 214.987 143.675 217.734L144.555 217.259ZM148.554 224.585C147.787 223.258 146.296 220.49 144.555 217.259L143.675 217.734C145.411 220.955 146.912 223.742 147.688 225.085L148.554 224.585ZM149.387 229.314C149.857 229.486 149.857 229.485 149.857 229.485C149.857 229.485 149.857 229.484 149.857 229.484C149.857 229.483 149.858 229.483 149.858 229.482C149.858 229.481 149.859 229.479 149.859 229.478C149.86 229.475 149.861 229.472 149.863 229.468C149.865 229.461 149.868 229.452 149.871 229.442C149.877 229.421 149.884 229.395 149.892 229.363C149.907 229.299 149.923 229.213 149.936 229.103C149.96 228.882 149.968 228.571 149.916 228.164C149.812 227.351 149.469 226.169 148.554 224.585L147.688 225.085C148.55 226.576 148.84 227.633 148.924 228.291C148.967 228.62 148.958 228.852 148.942 228.991C148.934 229.061 148.925 229.108 148.919 229.133C148.916 229.145 148.914 229.153 148.913 229.154C148.913 229.155 148.913 229.155 148.914 229.153C148.914 229.152 148.914 229.151 148.915 229.149C148.915 229.148 148.915 229.147 148.916 229.146C148.916 229.146 148.916 229.146 148.916 229.145C148.916 229.145 148.917 229.144 148.917 229.144C148.917 229.144 148.917 229.143 149.387 229.314ZM144.444 237.166C144.758 237.555 144.758 237.555 144.758 237.555C144.758 237.555 144.759 237.555 144.759 237.555C144.759 237.555 144.759 237.554 144.76 237.554C144.761 237.553 144.762 237.553 144.763 237.551C144.765 237.549 144.769 237.546 144.774 237.543C144.783 237.535 144.796 237.524 144.812 237.511C144.846 237.483 144.893 237.442 144.954 237.389C145.075 237.284 145.247 237.129 145.455 236.93C145.871 236.532 146.432 235.955 147.018 235.234C148.184 233.799 149.479 231.757 149.88 229.398L148.894 229.231C148.534 231.347 147.358 233.231 146.242 234.603C145.688 235.286 145.156 235.832 144.764 236.207C144.568 236.395 144.407 236.539 144.297 236.636C144.241 236.684 144.198 236.72 144.17 236.744C144.156 236.756 144.145 236.765 144.139 236.77C144.135 236.773 144.133 236.775 144.131 236.776C144.131 236.777 144.13 236.777 144.13 236.777C144.13 236.777 144.13 236.777 144.13 236.777C144.13 236.777 144.13 236.777 144.13 236.777C144.13 236.777 144.13 236.777 144.444 237.166ZM123.179 217.843C125.759 221.309 130.729 226.936 135.184 231.345C137.41 233.548 139.526 235.465 141.163 236.658C141.973 237.248 142.706 237.692 143.296 237.887C143.589 237.984 143.907 238.041 144.205 237.972C144.542 237.893 144.79 237.667 144.912 237.343L143.976 236.99C143.967 237.014 143.962 237.013 143.972 237.004C143.982 236.995 143.989 236.995 143.978 236.998C143.942 237.006 143.831 237.011 143.611 236.938C143.175 236.794 142.547 236.429 141.752 235.85C140.178 234.702 138.105 232.828 135.888 230.634C131.457 226.25 126.524 220.661 123.981 217.246L123.179 217.843ZM120.234 203.318C120.015 203.87 117.622 210.381 123.179 217.843L123.981 217.246C118.717 210.178 121.008 204.079 121.164 203.687L120.234 203.318ZM120.582 202.263C120.447 202.626 120.326 202.993 120.219 203.363L121.179 203.642C121.28 203.296 121.393 202.951 121.52 202.61L120.582 202.263ZM130.54 184.663C128.306 188.323 126.12 191.905 124.344 194.973C122.575 198.03 121.191 200.613 120.582 202.263L121.52 202.61C122.095 201.052 123.435 198.541 125.21 195.474C126.979 192.418 129.158 188.846 131.393 185.184L130.54 184.663ZM139.485 169.523C137.128 173.867 133.784 179.346 130.54 184.663L131.393 185.184C134.633 179.875 137.992 174.371 140.364 170L139.485 169.523Z" fill="#1958FA"/>
<path d="M178.441 364.806C190.373 364.806 200.04 355.133 200.032 343.201C200.025 331.269 190.346 321.596 178.414 321.596C166.481 321.596 156.815 331.269 156.822 343.201C156.83 355.133 166.509 364.806 178.441 364.806Z" fill="url(#paint0_linear_1505_2075)"/>
<path d="M178.423 337.842C173.478 337.846 168.603 339.007 164.188 341.232C163.624 341.521 163.151 341.96 162.821 342.501C162.49 343.041 162.316 343.662 162.316 344.295L162.49 347.076C162.515 347.478 162.693 347.856 162.987 348.131C163.281 348.407 163.669 348.561 164.072 348.561H168.952C169.594 348.561 170.21 348.306 170.664 347.852C171.118 347.398 171.373 346.782 171.373 346.141V343.216C171.374 342.971 171.448 342.732 171.587 342.531C171.726 342.329 171.922 342.174 172.151 342.086C176.178 340.496 180.659 340.496 184.686 342.086C184.915 342.174 185.111 342.329 185.25 342.531C185.389 342.732 185.463 342.971 185.464 343.216V346.145C185.464 346.787 185.719 347.402 186.174 347.856C186.628 348.31 187.244 348.565 187.886 348.565H192.766C193.169 348.565 193.557 348.411 193.85 348.135C194.144 347.859 194.322 347.482 194.347 347.08L194.52 344.3C194.521 343.666 194.346 343.045 194.016 342.505C193.686 341.964 193.213 341.525 192.649 341.236C188.237 339.011 183.365 337.849 178.423 337.842Z" fill="white"/>
<path d="M222.319 160.869C222.319 160.869 224.752 163.236 226.534 174.895C228.316 186.554 233.174 206.128 233.223 212.027C233.272 217.925 230.03 223.579 224.959 223.387C219.887 223.195 214.843 216.246 210.917 204.939C206.991 193.633 200.262 172.076 201.002 166.271C201.741 160.466 210.703 150.813 222.319 160.869Z" fill="white" stroke="#1958FA" stroke-linecap="round" stroke-linejoin="round"/>
<path d="M175.676 150.017C175.795 148.465 175.97 145.819 176.003 143.165C176.055 139.041 177.313 137.33 177.313 137.33C177.866 136.072 178.774 135.001 179.925 134.249C181.077 133.498 182.423 133.097 183.798 133.097C185.174 133.097 186.519 133.498 187.671 134.249C188.823 135.001 189.73 136.072 190.283 137.33C190.283 137.33 191.543 139.041 191.595 143.165C191.628 145.819 191.803 148.464 191.923 150.017C192.124 151.198 192.065 152.409 191.749 153.566C191.434 154.722 190.87 155.795 190.096 156.711C189.323 157.627 188.358 158.363 187.271 158.868C186.183 159.373 184.998 159.635 183.799 159.635C182.6 159.635 181.415 159.373 180.327 158.868C179.24 158.363 178.276 157.627 177.502 156.711C176.728 155.795 176.164 154.722 175.849 153.566C175.533 152.409 175.474 151.198 175.676 150.017Z" fill="white" stroke="#1958FA" stroke-linecap="round"/>
<path d="M151.847 157.516C144.288 160.861 150.287 176.171 151.922 185.201C153.556 194.231 153.312 208.41 153.273 214.962C153.235 221.514 151.841 240.325 151.841 240.325C180.909 248.289 215.429 240.325 215.429 240.325C215.429 240.325 213.846 230.604 212.908 225.701C211.971 220.797 212.206 199.333 213.586 192.073C214.967 184.812 218.3 161.447 217.48 159.636C216.66 157.825 213.846 156.469 208.924 155.825C204.002 155.18 192.042 151.565 192.042 151.565C182.061 162.926 175.562 151.565 175.562 151.565C175.562 151.565 164.216 154.944 160.408 155.646C156.599 156.348 151.847 157.516 151.847 157.516Z" fill="url(#paint1_linear_1505_2075)"/>
<path d="M148.114 241.826C148.051 242.686 147.996 244.876 147.947 246.343H219.112C219.063 244.875 219.009 242.686 218.946 241.826C218.076 229.727 216.944 204.019 217.387 196.289C217.83 188.56 221.493 163.789 218.078 157.991C218.078 157.991 216.366 156.606 209.18 154.967C201.995 153.327 199.111 152.038 196.895 152.973C196.895 152.973 193.659 160.661 189.858 173.12C187.735 180.076 183.231 197.714 183.231 197.714C183.231 197.714 179.476 182.804 176.57 173.002C173.048 161.125 170.317 153.08 170.317 153.08C168.101 152.137 165.068 153.325 157.883 154.965C150.697 156.604 148.985 157.991 148.985 157.991C145.569 163.789 149.237 188.559 149.676 196.289C150.116 204.02 148.985 229.727 148.114 241.826Z" fill="white" stroke="#1958FA" stroke-linecap="round" stroke-linejoin="round"/>
<path d="M182.781 195.943V246.343H183.683V195.961L183.231 197.716C183.231 197.716 183.067 197.063 182.781 195.943Z" fill="#1958FA"/>
<path d="M161.141 153.643L175.8 177.806L173.574 178.962L183.235 197.715C183.235 197.715 179.48 182.805 176.574 173.003C173.052 161.126 170.574 153.015 170.574 153.015C170.574 153.015 166.452 151.212 161.141 153.643Z" fill="white" stroke="#1958FA" stroke-linecap="round" stroke-linejoin="round"/>
<path d="M190.921 177.805L205.818 153.699C201.434 152.403 198.949 151.933 197.163 152.547C197.077 152.577 196.999 152.626 196.933 152.689C196.868 152.752 196.817 152.829 196.784 152.914C196.204 154.384 193.259 161.969 189.857 173.119C187.734 180.074 183.23 197.712 183.23 197.712L193.147 178.959L190.921 177.805Z" fill="white" stroke="#1958FA" stroke-linecap="round" stroke-linejoin="round"/>
<path d="M197.414 153.768C194.835 150.062 192.045 149.636 191.927 149.619H191.887C191.897 149.758 191.908 149.891 191.917 150.017C191.941 150.159 191.961 150.303 191.977 150.447C192.569 150.591 194.718 151.296 196.76 154.226C198.977 157.413 200.315 162.094 200.736 168.14C201.3 176.221 200.193 186.613 197.447 199.028C197.436 199.08 197.434 199.133 197.444 199.184C197.453 199.236 197.472 199.286 197.5 199.33C197.529 199.374 197.565 199.412 197.609 199.442C197.652 199.473 197.7 199.494 197.752 199.505C197.78 199.511 197.809 199.514 197.838 199.515C197.929 199.515 198.017 199.484 198.088 199.427C198.159 199.371 198.209 199.291 198.229 199.203C204.365 171.438 201.176 159.171 197.414 153.768Z" fill="#1958FA"/>
<path d="M175.671 150.016C175.681 149.89 175.691 149.757 175.702 149.618C175.657 149.614 175.611 149.618 175.568 149.629C175.448 149.661 172.621 150.46 169.815 154.238C168.186 156.435 166.898 159.194 165.987 162.446C164.854 166.483 164.302 171.295 164.346 176.745C164.347 176.851 164.39 176.953 164.466 177.027C164.541 177.102 164.644 177.143 164.75 177.142C164.856 177.141 164.957 177.099 165.032 177.023C165.106 176.947 165.148 176.845 165.147 176.739C165.049 164.647 167.954 158.125 170.411 154.784C172.678 151.699 174.985 150.691 175.609 150.462C175.627 150.31 175.647 150.166 175.671 150.016Z" fill="#1958FA"/>
<path d="M171.838 182.227C171.747 182.228 171.659 182.197 171.588 182.14C168.761 179.874 165.609 179.179 162.219 180.075C160.666 180.49 159.203 181.19 157.907 182.14C157.866 182.175 157.819 182.201 157.768 182.217C157.716 182.234 157.663 182.239 157.609 182.234C157.556 182.229 157.504 182.214 157.457 182.188C157.41 182.163 157.368 182.128 157.334 182.087C157.301 182.045 157.276 181.997 157.261 181.945C157.247 181.894 157.243 181.84 157.249 181.787C157.256 181.733 157.273 181.682 157.3 181.636C157.327 181.589 157.363 181.549 157.406 181.517C158.777 180.498 160.329 179.75 161.98 179.311C164.496 178.639 168.291 178.48 172.085 181.517C172.149 181.568 172.196 181.639 172.219 181.719C172.242 181.798 172.239 181.883 172.211 181.961C172.184 182.039 172.133 182.107 172.065 182.155C171.998 182.203 171.917 182.228 171.834 182.228L171.838 182.227Z" fill="#1958FA"/>
<path d="M170.314 195.478C170.219 195.478 170.126 195.444 170.053 195.381C169.973 195.311 169.923 195.213 169.916 195.107C169.908 195.001 169.942 194.896 170.012 194.816C171.675 192.894 172.629 190.14 172.629 187.277C172.629 181.687 169.094 177.138 164.746 177.138C160.398 177.138 156.863 181.687 156.863 187.277C156.863 190.143 157.815 192.887 159.476 194.813C159.536 194.894 159.563 194.995 159.552 195.095C159.541 195.196 159.492 195.288 159.415 195.354C159.338 195.42 159.239 195.455 159.138 195.45C159.037 195.446 158.941 195.404 158.87 195.332C157.086 193.267 156.062 190.329 156.062 187.273C156.062 181.242 159.958 176.335 164.747 176.335C169.536 176.335 173.43 181.242 173.43 187.273C173.43 190.331 172.405 193.271 170.623 195.336C170.585 195.381 170.538 195.417 170.485 195.441C170.431 195.466 170.373 195.478 170.314 195.478Z" fill="#1958FA"/>
<path d="M161.337 196.89C161.137 197.125 160.853 197.271 160.545 197.296C160.238 197.322 159.933 197.225 159.697 197.026C159.206 196.61 158.547 195.37 158.964 194.878C159.381 194.387 160.713 194.832 161.205 195.247C161.322 195.346 161.417 195.467 161.487 195.604C161.557 195.74 161.599 195.889 161.612 196.041C161.624 196.194 161.606 196.347 161.559 196.493C161.512 196.638 161.436 196.773 161.337 196.89Z" fill="#1958FA"/>
<path d="M168.029 196.89C168.128 197.007 168.249 197.104 168.386 197.175C168.522 197.245 168.671 197.288 168.824 197.301C168.978 197.313 169.132 197.295 169.278 197.248C169.424 197.201 169.56 197.126 169.677 197.026C170.168 196.61 170.827 195.37 170.41 194.878C169.993 194.387 168.661 194.832 168.169 195.247C168.052 195.346 167.955 195.466 167.885 195.602C167.814 195.738 167.771 195.887 167.758 196.039C167.745 196.192 167.762 196.346 167.809 196.492C167.855 196.637 167.93 196.773 168.029 196.89Z" fill="#1958FA"/>
<path d="M146.895 228.515C146.895 228.515 147.311 225.615 148.761 225.304C150.211 224.993 158.087 229.136 159.641 230.792C161.196 232.448 161.3 234.728 158.706 234.107C158.706 234.107 160.3 237.596 156.323 237.213C156.323 237.213 157.039 240.941 152.795 240.009C152.795 240.009 154.867 242.392 150.828 242.288C146.789 242.184 144.318 239.677 143.434 238.804C142.549 237.931 143.576 236.385 144.613 236.281C144.613 236.281 142.845 233.796 144.925 232.346C144.927 232.346 143.894 230.171 146.895 228.515Z" fill="white" stroke="#1958FA" stroke-linecap="round"/>
<path d="M158.708 234.107C154.853 232.082 150.927 230.159 146.895 228.515C148.938 228.631 151.134 229.882 153.019 230.849C154.888 231.886 157.074 232.94 158.708 234.107Z" fill="#1958FA"/>
<path d="M156.329 237.213C152.603 235.415 148.669 234.053 144.93 232.346C148.943 233.101 152.884 235.328 156.329 237.213Z" fill="#1958FA"/>
<path d="M152.799 240.009C150.17 238.549 147.401 237.412 144.617 236.281C147.452 236.367 150.532 238.5 152.799 240.009Z" fill="#1958FA"/>
<path fill-rule="evenodd" clip-rule="evenodd" d="M183.883 105.241C183.883 105.241 200.923 105.225 198.783 127.232L198.972 127.127C198.972 127.127 200.596 125.756 200.911 127.655C201.212 129.469 199.636 134.709 197.426 135.145C193.361 151.174 183.879 150.057 183.879 150.057C183.879 150.057 173.82 149.989 170.017 135.164C167.711 134.907 166.43 129.503 166.736 127.655C166.988 126.136 168.253 126.705 168.749 126.995C167.214 105.421 180.281 105.241 183.883 105.241Z" fill="white"/>
<path d="M198.783 127.232L198.285 127.184L198.193 128.129L199.025 127.67L198.783 127.232ZM183.883 105.241V105.741L183.884 105.741L183.883 105.241ZM198.972 127.127L199.214 127.565L199.257 127.541L199.295 127.509L198.972 127.127ZM200.911 127.655L201.405 127.573V127.573L200.911 127.655ZM197.426 135.145L197.329 134.654L197.019 134.715L196.941 135.022L197.426 135.145ZM183.879 150.057L183.937 149.561L183.91 149.557L183.882 149.557L183.879 150.057ZM170.017 135.164L170.502 135.04L170.416 134.705L170.073 134.667L170.017 135.164ZM166.736 127.655L166.243 127.573L166.243 127.573L166.736 127.655ZM168.749 126.995L168.498 127.427L169.315 127.903L169.248 126.959L168.749 126.995ZM199.281 127.28C200.365 116.127 196.585 110.438 192.419 107.572C190.355 106.152 188.227 105.446 186.619 105.094C185.814 104.918 185.136 104.83 184.657 104.786C184.417 104.764 184.227 104.752 184.095 104.747C184.029 104.744 183.978 104.743 183.942 104.742C183.924 104.742 183.91 104.741 183.9 104.741C183.895 104.741 183.891 104.741 183.888 104.741C183.887 104.741 183.886 104.741 183.885 104.741C183.884 104.741 183.884 104.741 183.883 104.741C183.883 104.741 183.883 104.741 183.883 105.241C183.884 105.741 183.883 105.741 183.883 105.741C183.883 105.741 183.883 105.741 183.883 105.741C183.883 105.741 183.884 105.741 183.884 105.741C183.885 105.741 183.888 105.741 183.891 105.741C183.897 105.741 183.908 105.741 183.922 105.742C183.951 105.742 183.995 105.743 184.053 105.746C184.169 105.751 184.343 105.761 184.565 105.781C185.01 105.822 185.646 105.905 186.405 106.071C187.925 106.404 189.923 107.069 191.852 108.396C195.671 111.023 199.341 116.33 198.285 127.184L199.281 127.28ZM198.73 126.69L198.541 126.795L199.025 127.67L199.214 127.565L198.73 126.69ZM201.405 127.573C201.315 127.032 201.114 126.61 200.764 126.363C200.407 126.111 200.009 126.121 199.708 126.192C199.409 126.263 199.143 126.407 198.965 126.519C198.872 126.578 198.796 126.632 198.743 126.672C198.716 126.692 198.694 126.709 198.678 126.722C198.67 126.728 198.664 126.733 198.659 126.737C198.657 126.739 198.655 126.741 198.653 126.742C198.652 126.743 198.652 126.744 198.651 126.744C198.651 126.744 198.651 126.744 198.65 126.745C198.65 126.745 198.65 126.745 198.65 126.745C198.65 126.745 198.65 126.745 198.972 127.127C199.295 127.509 199.295 127.509 199.295 127.509C199.295 127.51 199.295 127.51 199.294 127.51C199.294 127.51 199.294 127.51 199.294 127.51C199.294 127.51 199.294 127.51 199.294 127.51C199.294 127.51 199.294 127.51 199.295 127.509C199.296 127.508 199.299 127.506 199.303 127.503C199.311 127.496 199.325 127.485 199.343 127.472C199.379 127.445 199.432 127.407 199.497 127.366C199.633 127.28 199.793 127.2 199.939 127.165C200.083 127.131 200.151 127.154 200.187 127.18C200.23 127.21 200.35 127.329 200.418 127.737L201.405 127.573ZM197.522 135.635C198.246 135.492 198.854 134.974 199.339 134.353C199.831 133.723 200.247 132.924 200.575 132.101C200.903 131.276 201.15 130.406 201.296 129.621C201.44 128.847 201.494 128.112 201.405 127.573L200.418 127.737C200.479 128.105 200.449 128.705 200.313 129.438C200.179 130.159 199.95 130.966 199.645 131.732C199.34 132.5 198.966 133.206 198.551 133.738C198.128 134.279 197.71 134.579 197.329 134.654L197.522 135.635ZM183.879 150.057C183.821 150.554 183.821 150.554 183.821 150.554C183.822 150.554 183.822 150.554 183.823 150.554C183.823 150.554 183.824 150.554 183.826 150.554C183.828 150.554 183.831 150.555 183.834 150.555C183.841 150.556 183.85 150.557 183.862 150.558C183.884 150.56 183.916 150.562 183.956 150.565C184.037 150.57 184.151 150.574 184.296 150.574C184.585 150.573 184.996 150.552 185.5 150.475C186.507 150.321 187.883 149.941 189.385 149.041C192.402 147.233 195.854 143.379 197.91 135.268L196.941 135.022C194.933 142.94 191.611 146.541 188.871 148.183C187.495 149.007 186.246 149.349 185.348 149.487C184.899 149.556 184.538 149.573 184.293 149.574C184.17 149.574 184.077 149.57 184.017 149.567C183.986 149.565 183.964 149.563 183.951 149.562C183.944 149.561 183.94 149.561 183.938 149.561C183.936 149.56 183.936 149.56 183.936 149.56C183.936 149.56 183.936 149.56 183.936 149.56C183.936 149.56 183.937 149.56 183.937 149.56C183.937 149.56 183.937 149.561 183.879 150.057ZM169.533 135.288C171.464 142.813 175.001 146.65 178.109 148.594C179.657 149.562 181.086 150.053 182.132 150.301C182.656 150.426 183.084 150.489 183.385 150.522C183.536 150.539 183.655 150.547 183.738 150.552C183.779 150.554 183.812 150.556 183.835 150.556C183.846 150.557 183.856 150.557 183.862 150.557C183.866 150.557 183.869 150.557 183.871 150.557C183.872 150.557 183.873 150.557 183.874 150.557C183.874 150.557 183.875 150.557 183.875 150.557C183.875 150.557 183.876 150.557 183.879 150.057C183.882 149.557 183.883 149.557 183.883 149.557C183.883 149.557 183.883 149.557 183.883 149.557C183.884 149.557 183.884 149.557 183.883 149.557C183.883 149.557 183.882 149.557 183.881 149.557C183.878 149.557 183.873 149.557 183.865 149.557C183.85 149.556 183.826 149.555 183.793 149.553C183.727 149.55 183.626 149.543 183.494 149.528C183.23 149.499 182.843 149.442 182.363 149.328C181.405 149.101 180.081 148.648 178.639 147.746C175.768 145.95 172.374 142.339 170.502 135.04L169.533 135.288ZM166.243 127.573C166.154 128.11 166.185 128.853 166.301 129.644C166.418 130.445 166.629 131.333 166.926 132.172C167.221 133.008 167.609 133.818 168.092 134.447C168.57 135.069 169.192 135.575 169.962 135.661L170.073 134.667C169.689 134.624 169.286 134.359 168.885 133.837C168.489 133.322 168.144 132.618 167.868 131.839C167.595 131.064 167.399 130.239 167.29 129.499C167.18 128.749 167.165 128.124 167.23 127.737L166.243 127.573ZM169.001 126.562C168.743 126.412 168.197 126.131 167.637 126.147C167.336 126.155 167.01 126.25 166.74 126.51C166.477 126.764 166.317 127.126 166.243 127.573L167.23 127.737C167.281 127.424 167.374 127.288 167.434 127.231C167.488 127.179 167.556 127.15 167.665 127.147C167.924 127.139 168.259 127.288 168.498 127.427L169.001 126.562ZM183.883 104.741C182.076 104.741 177.753 104.779 174.083 107.633C170.38 110.513 167.476 116.145 168.25 127.03L169.248 126.959C168.487 116.271 171.349 111.026 174.696 108.423C178.077 105.794 182.088 105.741 183.883 105.741V104.741Z" fill="#1958FA"/>
<path d="M189.114 131.744C189.831 131.744 190.411 131.03 190.411 130.15C190.411 129.269 189.831 128.556 189.114 128.556C188.397 128.556 187.816 129.269 187.816 130.15C187.816 131.03 188.397 131.744 189.114 131.744Z" fill="#1958FA"/>
<path d="M179.977 130.15C179.977 131.03 179.396 131.744 178.679 131.744C177.963 131.744 177.383 131.03 177.383 130.15C177.383 129.27 177.963 128.556 178.679 128.556C179.396 128.556 179.977 129.27 179.977 130.15Z" fill="#1958FA"/>
<path d="M183.737 137.738C182.962 137.721 181.879 137.582 181.495 136.967C181.35 136.735 181.241 136.343 181.549 135.809C182.758 133.699 183.438 130.31 183.445 130.276C183.468 130.163 183.534 130.064 183.629 130C183.725 129.936 183.841 129.913 183.954 129.935C184.067 129.958 184.166 130.024 184.23 130.119C184.294 130.214 184.317 130.331 184.295 130.444C184.267 130.588 183.581 134.005 182.3 136.239C182.275 136.286 182.19 136.447 182.23 136.509C182.403 136.785 183.497 136.915 184.373 136.859C184.486 136.854 184.596 136.894 184.68 136.97C184.764 137.045 184.815 137.151 184.823 137.264C184.83 137.376 184.793 137.488 184.719 137.574C184.646 137.659 184.541 137.713 184.429 137.723C184.277 137.733 184.025 137.744 183.737 137.738Z" fill="#1958FA"/>
<path d="M185.727 125.871C185.727 125.871 185.361 126.623 186.168 126.98C186.975 127.336 190.756 126.862 192.535 126.795C194.314 126.727 194.037 125.719 191.932 125.548C190.102 125.389 185.78 125.267 185.727 125.871Z" fill="#1958FA"/>
<path d="M182.153 125.871C182.153 125.871 182.519 126.623 181.713 126.98C180.906 127.336 177.124 126.862 175.346 126.795C173.567 126.727 173.843 125.719 175.949 125.548C177.776 125.389 182.098 125.267 182.153 125.871Z" fill="#1958FA"/>
<path d="M183.802 141.707C181.07 141.707 179.362 141.006 179.29 140.98C179.219 140.947 179.163 140.889 179.134 140.816C179.106 140.743 179.106 140.662 179.137 140.59C179.167 140.518 179.224 140.461 179.296 140.43C179.368 140.399 179.449 140.398 179.522 140.426C179.538 140.432 181.199 141.111 183.802 141.111C186.406 141.111 188.169 140.43 188.19 140.424C188.263 140.399 188.343 140.403 188.413 140.436C188.483 140.468 188.538 140.526 188.566 140.598C188.594 140.67 188.594 140.749 188.565 140.821C188.536 140.892 188.48 140.95 188.41 140.982C188.334 141.008 186.532 141.707 183.802 141.707Z" fill="#1958FA"/>
<path d="M183.807 142.827C183.501 142.827 183.191 142.817 182.888 142.8C182.849 142.797 182.81 142.787 182.775 142.77C182.739 142.753 182.708 142.729 182.681 142.699C182.655 142.67 182.635 142.636 182.622 142.598C182.609 142.561 182.604 142.522 182.606 142.482C182.608 142.443 182.618 142.404 182.636 142.369C182.653 142.333 182.677 142.302 182.706 142.276C182.736 142.249 182.77 142.229 182.807 142.216C182.845 142.203 182.884 142.198 182.924 142.2C183.481 142.233 184.039 142.236 184.596 142.206C184.636 142.203 184.677 142.208 184.715 142.221C184.753 142.233 184.788 142.254 184.818 142.28C184.849 142.306 184.873 142.339 184.891 142.375C184.908 142.411 184.918 142.45 184.92 142.49C184.923 142.53 184.917 142.57 184.903 142.608C184.889 142.646 184.868 142.68 184.841 142.71C184.813 142.739 184.781 142.763 184.744 142.779C184.707 142.796 184.668 142.805 184.628 142.806C184.356 142.819 184.08 142.827 183.807 142.827Z" fill="#1958FA"/>
<path d="M166.901 118.932C166.901 118.932 166.693 123.48 167.456 126.672C167.456 126.672 169.47 126.88 169.939 130.149C169.939 130.149 170.468 130.357 170.644 130.149C170.819 129.941 170.644 118.486 170.644 118.486L166.901 118.932Z" fill="#1958FA"/>
<path d="M191.92 115.079C191.92 115.079 193.04 116.137 193.216 118.016C193.393 119.896 193.686 121.188 194.984 122.598C196.245 123.973 196.556 127.863 196.624 130.234C196.626 130.281 196.646 130.326 196.68 130.359C196.714 130.392 196.759 130.411 196.806 130.411H197.008C197.04 130.41 197.072 130.4 197.098 130.382C197.125 130.363 197.145 130.337 197.157 130.307C197.397 129.722 198.548 126.541 200.484 126.768C200.484 126.768 201.036 124.067 201.271 121.885C201.506 119.703 201.093 111.027 195.569 107.561C195.569 107.561 192.209 102.98 186.16 102.626C180.111 102.273 174.173 104.742 170.763 108.086L171.88 108.027C171.88 108.027 170.414 109.144 169.326 111.376C168.237 113.608 167.414 115.076 165.999 115.194C166.378 115.786 166.934 116.244 167.588 116.502C167.588 116.502 166.237 117.136 165.121 116.961C165.121 116.961 165.503 119.897 168.456 120.078C171.41 120.259 175.62 117.963 175.62 117.963C175.62 117.963 180.051 120.547 183.521 118.962C186.992 117.376 187.252 116.606 188.707 116.019C190.163 115.432 191.92 115.079 191.92 115.079Z" fill="#1958FA" stroke="white" stroke-linecap="round" stroke-linejoin="round"/>
<path d="M230.992 246.342H133.332C131.419 246.342 129.867 247.892 129.867 249.805V285.959C129.867 287.872 131.419 289.423 133.332 289.423H230.992C232.905 289.423 234.457 287.872 234.457 285.959V249.805C234.457 247.892 232.905 246.342 230.992 246.342Z" fill="white" stroke="#1958FA" stroke-linecap="round"/>
<path d="M226.155 253.79H138.166C137.568 253.79 137.082 254.275 137.082 254.874V258.195C137.082 258.794 137.568 259.279 138.166 259.279H226.155C226.753 259.279 227.239 258.794 227.239 258.195V254.874C227.239 254.275 226.753 253.79 226.155 253.79Z" fill="white" stroke="#1958FA" stroke-linecap="round"/>
<path d="M188.087 265.138H138.166C137.568 265.138 137.082 265.623 137.082 266.222V269.543C137.082 270.142 137.568 270.627 138.166 270.627H188.087C188.686 270.627 189.171 270.142 189.171 269.543V266.222C189.171 265.623 188.686 265.138 188.087 265.138Z" fill="white" stroke="#1958FA" stroke-linecap="round"/>
<path d="M226.155 265.138H197.827C197.228 265.138 196.742 265.623 196.742 266.222V269.543C196.742 270.142 197.228 270.627 197.827 270.627H226.155C226.754 270.627 227.239 270.142 227.239 269.543V266.222C227.239 265.623 226.754 265.138 226.155 265.138Z" fill="white" stroke="#1958FA" stroke-linecap="round"/>
<path d="M165.906 276.486H138.166C137.568 276.486 137.082 276.972 137.082 277.57V280.892C137.082 281.49 137.568 281.975 138.166 281.975H165.906C166.505 281.975 166.991 281.49 166.991 280.892V277.57C166.991 276.972 166.505 276.486 165.906 276.486Z" fill="white" stroke="#1958FA" stroke-linecap="round"/>
<path d="M203.609 276.486H175.87C175.271 276.486 174.785 276.972 174.785 277.57V280.892C174.785 281.49 175.271 281.975 175.87 281.975H203.609C204.208 281.975 204.694 281.49 204.694 280.892V277.57C204.694 276.972 204.208 276.486 203.609 276.486Z" fill="white" stroke="#1958FA" stroke-linecap="round"/>
<path d="M161.143 132.879H128.321V96.184C128.321 94.9886 127.846 93.8422 127 92.9969C126.154 92.1516 125.007 91.6768 123.811 91.6768H19.3969C18.2007 91.6768 17.0535 92.1516 16.2077 92.9969C15.3619 93.8422 14.8867 94.9886 14.8867 96.184V154.647C14.8867 155.843 15.3619 156.989 16.2077 157.834C17.0535 158.68 18.2007 159.155 19.3969 159.155H123.811C124.403 159.155 124.99 159.038 125.537 158.812C126.084 158.585 126.581 158.253 127 157.834C127.419 157.416 127.751 156.919 127.978 156.372C128.204 155.825 128.321 155.239 128.321 154.647V147.105L161.143 132.879Z" fill="white" stroke="#1958FA" stroke-linecap="round"/>
<path d="M85.0749 108.308H26.0887C25.2063 108.308 24.3601 107.958 23.7362 107.334C23.1122 106.711 22.7617 105.865 22.7617 104.983C22.7617 104.101 23.1122 103.256 23.7362 102.632C24.3601 102.008 25.2063 101.658 26.0887 101.658H85.0749C85.9573 101.658 86.8035 102.008 87.4275 102.632C88.0514 103.256 88.4019 104.101 88.4019 104.983C88.4019 105.865 88.0514 106.711 87.4275 107.334C86.8035 107.958 85.9573 108.308 85.0749 108.308Z" fill="url(#paint2_linear_1505_2075)"/>
<path d="M116.757 108.308H100.628C99.7454 108.308 98.8992 107.958 98.2752 107.334C97.6513 106.711 97.3008 105.865 97.3008 104.983C97.3008 104.101 97.6513 103.256 98.2752 102.632C98.8992 102.008 99.7454 101.658 100.628 101.658H116.757C117.64 101.658 118.486 102.008 119.11 102.632C119.734 103.256 120.084 104.101 120.084 104.983C120.084 105.865 119.734 106.711 119.11 107.334C118.486 107.958 117.64 108.308 116.757 108.308Z" fill="url(#paint3_linear_1505_2075)"/>
<path d="M57.8415 122.05H26.0887C25.2063 122.05 24.3601 121.7 23.7362 121.076C23.1122 120.452 22.7617 119.607 22.7617 118.725C22.7617 117.843 23.1122 116.998 23.7362 116.374C24.3601 115.75 25.2063 115.4 26.0887 115.4H57.8415C58.7239 115.4 59.5701 115.75 60.1941 116.374C60.818 116.998 61.1685 117.843 61.1685 118.725C61.1685 119.607 60.818 120.452 60.1941 121.076C59.5701 121.7 58.7239 122.05 57.8415 122.05Z" fill="url(#paint4_linear_1505_2075)"/>
<path d="M116.759 122.05H74.9324C74.0501 122.05 73.2039 121.7 72.5799 121.076C71.956 120.452 71.6055 119.607 71.6055 118.725C71.6055 117.843 71.956 116.998 72.5799 116.374C73.2039 115.75 74.0501 115.4 74.9324 115.4H116.759C117.641 115.4 118.487 115.75 119.111 116.374C119.735 116.998 120.086 117.843 120.086 118.725C120.086 119.607 119.735 120.452 119.111 121.076C118.487 121.7 117.641 122.05 116.759 122.05Z" fill="url(#paint5_linear_1505_2075)"/>
<path d="M98.2029 135.791H26.0887C25.2063 135.791 24.3601 135.441 23.7362 134.817C23.1122 134.193 22.7617 133.348 22.7617 132.466C22.7617 131.584 23.1122 130.738 23.7362 130.115C24.3601 129.491 25.2063 129.141 26.0887 129.141H98.2029C99.0853 129.141 99.9316 129.491 100.555 130.115C101.179 130.738 101.53 131.584 101.53 132.466C101.53 133.348 101.179 134.193 100.555 134.817C99.9316 135.441 99.0853 135.791 98.2029 135.791Z" fill="url(#paint6_linear_1505_2075)"/>
<path d="M116.76 135.791H113.139C112.257 135.791 111.411 135.441 110.787 134.817C110.163 134.193 109.812 133.348 109.812 132.466C109.812 131.584 110.163 130.738 110.787 130.115C111.411 129.491 112.257 129.141 113.139 129.141H116.76C117.642 129.141 118.488 129.491 119.112 130.115C119.736 130.738 120.087 131.584 120.087 132.466C120.087 133.348 119.736 134.193 119.112 134.817C118.488 135.441 117.642 135.791 116.76 135.791Z" fill="url(#paint7_linear_1505_2075)"/>
<path d="M116.76 149.533H26.1004C25.218 149.533 24.3718 149.183 23.7479 148.559C23.124 147.936 22.7734 147.09 22.7734 146.208C22.7734 145.327 23.124 144.481 23.7479 143.857C24.3718 143.234 25.218 142.884 26.1004 142.884H116.76C117.643 142.884 118.489 143.234 119.113 143.857C119.737 144.481 120.087 145.327 120.087 146.208C120.087 147.09 119.737 147.936 119.113 148.559C118.489 149.183 117.643 149.533 116.76 149.533Z" fill="url(#paint8_linear_1505_2075)"/>
<path d="M316.23 387.649L316.232 387.641L316.24 387.59C316.248 387.546 316.258 387.481 316.27 387.397C316.294 387.228 316.327 386.98 316.36 386.657C316.428 386.012 316.5 385.069 316.521 383.866C316.563 381.461 316.4 378.015 315.586 373.834C313.958 365.467 309.722 354.168 299.316 342.376C282.992 323.877 273.973 301.326 267.401 284.896C265.673 280.575 264.114 276.677 262.636 273.388C259.109 265.538 255.816 258.973 251.858 254.721C249.871 252.587 247.701 251.017 245.23 250.164C242.757 249.309 240.018 249.185 236.915 249.888C232.956 250.785 230.059 252.751 228.087 255.557C226.122 258.352 225.1 261.944 224.814 266.061C224.241 274.285 226.592 284.746 230.457 295.56C238.17 317.135 243.634 337.587 244.806 350.173C245.4 356.549 247.771 367.275 251.629 377.598C255.477 387.897 260.851 397.918 267.514 402.765C274.126 407.575 285.182 411.66 295.154 410.624C300.154 410.105 304.902 408.296 308.668 404.623C312.432 400.951 315.171 395.458 316.23 387.649Z" fill="white" stroke="#1958FA" stroke-linecap="round"/>
<path d="M320.096 391.418C320.096 391.418 323.313 369.925 302.113 347.018C280.913 324.111 271.085 294.411 263.617 278.885C256.149 263.359 249.904 253.277 237.992 256.31C222.843 260.166 224.997 280.047 233.289 301.418C241.58 322.789 247.623 343.13 249.168 355.736C250.713 368.342 259.791 398.181 273.029 407.357C286.266 416.533 316.865 422.405 320.096 391.418Z" fill="white"/>
<path d="M266.104 301.206C261.123 303.736 255.83 305.674 250.332 306.659C255.964 306.83 261.714 304.727 266.104 301.206Z" fill="#1958FA"/>
<path d="M261.975 295.928C257.392 295.215 252.579 297.142 249.017 300.002C253.17 298.158 257.421 296.383 261.975 295.928Z" fill="#1958FA"/>
<path d="M245.234 253.835C245.814 253.951 246.358 254.208 246.816 254.583C247.274 254.958 247.633 255.44 247.861 255.986C249.781 260.561 254.761 272.935 253.623 275.619C252.219 278.927 239.944 282.386 236.151 280.347C232.797 278.539 230.355 266.026 229.538 261.823C229.367 260.954 229.522 260.051 229.972 259.288C231.449 256.798 235.635 251.947 245.234 253.835Z" fill="white" stroke="#1958FA" stroke-linecap="round"/>
<path d="M195.545 197.649L171.709 213.696C171.041 214.145 170.852 215.037 171.286 215.689L192.298 247.228C192.732 247.879 193.625 248.043 194.292 247.594L218.128 231.547C218.796 231.098 218.985 230.206 218.551 229.554L197.539 198.015C197.105 197.363 196.212 197.2 195.545 197.649Z" fill="#1958FA"/>
<path d="M216.465 230.879L194.346 245.601C194.126 245.747 193.859 245.804 193.602 245.758C193.346 245.712 193.122 245.567 192.979 245.356L173.07 215.739C172.928 215.527 172.879 215.266 172.935 215.012C172.99 214.759 173.144 214.535 173.364 214.388L195.486 199.665C195.706 199.519 195.974 199.462 196.23 199.508C196.486 199.554 196.71 199.699 196.852 199.911L216.762 229.527C216.832 229.632 216.88 229.751 216.904 229.876C216.927 230.001 216.925 230.129 216.897 230.255C216.87 230.381 216.817 230.5 216.743 230.607C216.669 230.714 216.574 230.807 216.465 230.879Z" fill="white"/>
<path d="M184.2 213.202L177.688 217.583L194.29 242.467L200.802 238.086L184.2 213.202Z" fill="url(#paint9_linear_1505_2075)"/>
<path d="M196.991 204.683L185.523 212.409L202.051 237.216L213.518 229.49L196.991 204.683Z" fill="url(#paint10_linear_1505_2075)"/>
<path d="M186.403 201.232L178.38 206.622C177.995 206.88 177.888 207.395 178.14 207.773L179.955 210.494C180.207 210.872 180.723 210.969 181.108 210.711L189.131 205.322C189.516 205.063 189.623 204.548 189.371 204.17L187.555 201.449C187.303 201.071 186.787 200.974 186.403 201.232Z" fill="#1958FA"/>
<path d="M196.378 225.066C196.378 225.066 192.589 225.92 190.673 225.928C188.756 225.936 185.264 225.015 183.99 225.133C182.716 225.251 178.108 228.083 177.448 228.695C176.787 229.308 177.584 230.82 178.341 230.707C178.341 230.707 177.921 233.352 179.722 233.587C179.722 233.587 179.709 236.072 181.388 236.176C181.388 236.176 181.319 237.87 183.253 237.708C184.541 237.6 186.489 237.052 186.489 237.052C186.489 237.052 186.987 237 187.812 236.976C188.638 236.951 191.783 236.7 193.623 235.997C195.462 235.293 198.156 233.99 200.045 233.327C201.935 232.664 196.378 225.066 196.378 225.066Z" fill="white" stroke="#1958FA" stroke-linecap="round"/>
<path d="M178.325 230.708C180.153 229.727 183.03 226.997 185.02 227.836C182.633 228.197 180.411 229.936 178.325 230.708Z" fill="#1958FA"/>
<path d="M179.7 233.583C181.842 232.628 184.164 230.494 186.52 230.906C184.291 231.549 181.78 232.912 179.7 233.583Z" fill="#1958FA"/>
<path d="M181.369 236.172C183.488 235.246 185.795 233.031 188.127 233.689C185.766 234.123 183.505 235.515 181.369 236.172Z" fill="#1958FA"/>
<path d="M191.806 223.537C191.806 223.537 197.393 228.497 197.269 236.555C197.269 236.555 227.978 223.926 230.789 221.428C233.6 218.929 233.056 213.408 230.606 210.535C228.155 207.663 221.533 209.175 217.257 211.224C212.981 213.273 191.806 223.537 191.806 223.537Z" fill="white" stroke="#1958FA" stroke-linecap="round" stroke-linejoin="round"/>
<path d="M111.986 1L131.617 22.8963L111.986 44.7927" stroke="#1958FA" stroke-linecap="round"/>
<path d="M74.986 1L94.6172 22.8963L74.986 44.7927" stroke="#1958FA" stroke-linecap="round"/>
<path d="M38.7438 1L58.375 22.8963L38.7438 44.7927" stroke="#1958FA" stroke-linecap="round"/>
<path d="M0.993807 1L20.625 22.8963L0.993807 44.7927" stroke="#1958FA" stroke-linecap="round"/>
<defs>
<linearGradient id="paint0_linear_1505_2075" x1="178.414" y1="321.596" x2="178.414" y2="364.806" gradientUnits="userSpaceOnUse">
<stop stop-color="#ACE34D"/>
<stop offset="1" stop-color="#68CEFF"/>
</linearGradient>
<linearGradient id="paint1_linear_1505_2075" x1="182.863" y1="151.565" x2="182.863" y2="243.864" gradientUnits="userSpaceOnUse">
<stop stop-color="#ACE34D"/>
<stop offset="1" stop-color="#68CEFF"/>
</linearGradient>
<linearGradient id="paint2_linear_1505_2075" x1="55.5818" y1="101.658" x2="55.5818" y2="108.308" gradientUnits="userSpaceOnUse">
<stop stop-color="#ACE34D"/>
<stop offset="1" stop-color="#68CEFF"/>
</linearGradient>
<linearGradient id="paint3_linear_1505_2075" x1="108.693" y1="101.658" x2="108.693" y2="108.308" gradientUnits="userSpaceOnUse">
<stop stop-color="#ACE34D"/>
<stop offset="1" stop-color="#68CEFF"/>
</linearGradient>
<linearGradient id="paint4_linear_1505_2075" x1="41.9651" y1="115.4" x2="41.9651" y2="122.05" gradientUnits="userSpaceOnUse">
<stop stop-color="#ACE34D"/>
<stop offset="1" stop-color="#68CEFF"/>
</linearGradient>
<linearGradient id="paint5_linear_1505_2075" x1="95.8456" y1="115.4" x2="95.8456" y2="122.05" gradientUnits="userSpaceOnUse">
<stop stop-color="#ACE34D"/>
<stop offset="1" stop-color="#68CEFF"/>
</linearGradient>
<linearGradient id="paint6_linear_1505_2075" x1="62.1458" y1="129.141" x2="62.1458" y2="135.791" gradientUnits="userSpaceOnUse">
<stop stop-color="#ACE34D"/>
<stop offset="1" stop-color="#68CEFF"/>
</linearGradient>
<linearGradient id="paint7_linear_1505_2075" x1="114.95" y1="129.141" x2="114.95" y2="135.791" gradientUnits="userSpaceOnUse">
<stop stop-color="#ACE34D"/>
<stop offset="1" stop-color="#68CEFF"/>
</linearGradient>
<linearGradient id="paint8_linear_1505_2075" x1="71.4305" y1="142.884" x2="71.4305" y2="149.533" gradientUnits="userSpaceOnUse">
<stop stop-color="#ACE34D"/>
<stop offset="1" stop-color="#68CEFF"/>
</linearGradient>
<linearGradient id="paint9_linear_1505_2075" x1="180.944" y1="215.392" x2="197.639" y2="240.214" gradientUnits="userSpaceOnUse">
<stop stop-color="#ACE34D"/>
<stop offset="1" stop-color="#68CEFF"/>
</linearGradient>
<linearGradient id="paint10_linear_1505_2075" x1="191.257" y1="208.546" x2="207.913" y2="233.266" gradientUnits="userSpaceOnUse">
<stop stop-color="#ACE34D"/>
<stop offset="1" stop-color="#68CEFF"/>
</linearGradient>
</defs>
</svg>
