<svg width="308" height="224" viewBox="0 0 308 224" fill="none" xmlns="http://www.w3.org/2000/svg">
<path d="M175.664 21.3064C149.486 18.7957 155.013 11.9256 157.054 11.4203C159.096 10.915 164.2 14.9573 165.221 17.4837C166.241 20.0101 168.283 25.6512 157.054 27.1671C145.826 28.6829 129.018 21.8311 126.266 18.1059C123.514 14.3808 128.032 9.91828 132.349 9.91828C136.665 9.91828 138.515 13.0015 138.515 16.0848C138.515 19.1681 131.722 26.3918 120.714 26.3918C109.706 26.3918 101.638 25.6921 97.5689 20.3662C93.4998 15.0402 99.0497 10.5349 102.133 10.5349C105.216 10.5349 109.533 13.0015 109.533 16.0848C109.533 19.1681 104.516 26.3918 92.2665 26.3918C80.0173 26.3918 60.8173 21.6347 57.734 13.0015C54.6508 4.36842 60.8173 1.28516 66.3671 1.28516C71.917 1.28516 77.4669 4.36842 77.4275 11.4203C77.3881 18.4722 65.475 25.146 55.2674 27.1671C30.3012 32.1104 1.00228 14.535 1.00228 14.535" stroke="#1958FA" stroke-linecap="round"/>
<path d="M89.6061 126.489C79.4714 132.632 70.6261 140.708 62.2368 149.105C58.4588 152.885 54.8215 156.975 52.3104 161.751C50.1258 165.904 48.6957 170.994 49.1686 175.73C49.6641 180.672 52.6088 184.396 57.0906 186.277C62.6872 188.628 68.8243 188.159 74.7081 187.553C87.292 186.249 100.107 185.574 112.663 187.49C123.957 189.206 133.945 194.823 144.328 199.29C149.409 201.508 154.743 203.072 160.206 203.946C165.796 204.78 171.45 205.1 177.097 204.901C187.93 204.586 198.706 202.785 209.303 200.571C215.495 199.318 221.597 197.644 227.568 195.561C239.425 191.351 257.679 182.285 251.671 166.39C248.124 157.009 238.553 152.902 231.824 146.37C230.101 144.695 227.478 147.349 229.206 149.03C235.107 154.784 243.406 158.474 247.443 166.018C248.373 167.739 248.947 169.635 249.132 171.589C249.289 172.952 249.152 174.334 248.732 175.639C248.346 176.942 247.746 178.17 246.959 179.271C246.109 180.455 245.137 181.544 244.059 182.519C241.501 184.76 238.661 186.645 235.614 188.125C232.362 189.768 228.997 191.171 225.546 192.323C219.648 194.316 213.63 195.923 207.529 197.133C196.73 199.358 185.785 201.092 174.743 201.206C169.222 201.311 163.704 200.849 158.274 199.827C152.841 198.764 147.774 196.807 142.735 194.531C137.583 192.203 132.504 189.703 127.24 187.667C121.7 185.519 115.921 184.072 110.033 183.36C97.4099 181.787 84.8034 182.886 72.2026 184.035C66.8087 184.527 60.6434 184.744 56.0039 181.416C52.7496 179.082 52.4286 174.718 53.048 171.057C54.8441 160.515 63.2896 153.234 70.5022 146.233C76.86 139.96 83.8871 134.427 91.4529 129.737C93.5024 128.502 91.6443 125.247 89.5836 126.489H89.6061Z" fill="#1958FA" stroke="#1958FA" stroke-linecap="round"/>
<path d="M97.1794 98.2901C93.407 101.013 89.7979 104.01 86.172 106.91C81.3298 110.805 76.5102 114.74 71.7919 118.79C67.4622 122.502 63.4083 126.426 60.0357 131.082C55.796 136.933 52.1137 145.106 55.8635 152.147C58.7745 157.604 65.8969 158.193 71.3077 158.216C77.2928 158.216 83.4975 157.072 89.263 159.234C95.4002 161.551 98.2717 167.602 99.6061 173.722C101.109 180.649 101.115 188.148 104.735 194.428C108.677 201.292 116.559 204.889 123.879 206.737C131.896 208.762 140.303 208.87 148.512 208.453C154.687 208.21 160.835 207.484 166.901 206.279C172.529 205.072 178.055 203.413 183.426 201.32C194.236 197.145 205.131 191.316 213.059 182.577C216.499 178.79 219.308 174.323 220.637 169.307C221.928 164.186 221.595 158.781 219.686 153.863C218.964 151.956 218.078 150.117 217.039 148.367C216.476 147.44 215.913 146.536 215.299 145.655C214.956 145.169 214.607 144.689 214.241 144.214C213.875 143.739 213.368 143.413 213.267 142.893C213.025 141.703 211.24 142.206 211.482 143.39C211.64 144.186 212.265 144.752 212.766 145.335C213.353 146.064 213.897 146.828 214.393 147.623C215.278 148.964 216.079 150.361 216.792 151.804C218.034 154.305 218.893 156.984 219.336 159.749C220.028 164.624 219.162 169.596 216.865 173.934C214.444 178.681 210.756 182.64 206.73 186.026C202.153 189.766 197.165 192.956 191.866 195.532C186.503 198.208 180.93 200.427 175.205 202.167C170.117 203.762 164.903 204.911 159.621 205.599C151.988 206.589 144.286 206.924 136.598 206.6C128.563 206.205 120.326 204.661 113.361 200.388C110.139 198.492 107.502 195.718 105.749 192.38C104.184 189.32 103.497 185.865 102.934 182.497C101.808 175.73 101.245 168.386 96.9598 162.758C93.0185 157.61 86.8251 155.951 80.6823 156.037C74.7648 156.117 68.4925 157.101 62.7326 155.253C60.1483 154.424 58.0087 152.759 56.9727 150.168C55.5708 146.656 56.1338 142.847 57.44 139.41C58.8364 135.737 61.1561 132.42 63.6335 129.423C65.4546 127.221 67.4264 125.153 69.5341 123.234C73.6837 119.453 78.0473 115.907 82.3827 112.366C86.7181 108.826 91.2055 105.194 95.6986 101.722C96.4981 101.11 97.2976 100.498 98.114 99.9088C99.0768 99.2109 98.1534 97.5808 97.1794 98.2843V98.2901Z" fill="#1958FA" stroke="#1958FA" stroke-linecap="round"/>
<path d="M99.0157 95.2297L90.0859 103.626L91.4485 105.256L101.797 99.5596L99.0157 95.2297Z" fill="#F5FAFF" stroke="#1958FA" stroke-linecap="round"/>
<path d="M103.929 88.3083L97.4648 96.2531L100.798 100.766H112.898V88.3083H103.929Z" fill="#F5FAFF" stroke="#1958FA" stroke-linecap="round"/>
<path d="M105.799 98.2436C105.799 98.7412 105.501 99.1473 105.129 99.1473C104.763 99.1473 104.465 98.7412 104.465 98.2436V90.8079C104.465 90.3103 104.763 89.9099 105.129 89.9099C105.501 89.9099 105.799 90.3103 105.799 90.8079V98.2436Z" fill="#1958FA"/>
<path d="M108.389 98.2436C108.389 98.7412 108.091 99.1473 107.725 99.1473C107.353 99.1473 107.055 98.7412 107.055 98.2436V90.8079C107.055 90.3103 107.353 89.9099 107.725 89.9099C108.091 89.9099 108.389 90.3103 108.389 90.8079V98.2436Z" fill="#1958FA"/>
<path d="M110.981 98.2436C110.981 98.7412 110.683 99.1473 110.317 99.1473C109.951 99.1473 109.652 98.7412 109.652 98.2436V90.8079C109.652 90.3103 109.951 89.9099 110.317 89.9099C110.683 89.9099 110.981 90.3103 110.981 90.8079V98.2436Z" fill="#1958FA"/>
<path d="M94.9472 120.637L83.1797 130.715L85.8935 133.472L98.5394 126.231L94.9472 120.637Z" fill="#F5FAFF" stroke="#1958FA" stroke-linecap="round"/>
<path d="M101.301 111.68L92.9453 121.959L97.2582 127.793H112.899V111.68H101.301Z" fill="#F5FAFF" stroke="#1958FA" stroke-linecap="round"/>
<path d="M103.719 124.532C103.719 125.178 103.331 125.676 102.858 125.676C102.379 125.676 101.996 125.156 101.996 124.532V114.946C101.996 114.305 102.379 113.802 102.858 113.802C103.331 113.802 103.719 114.328 103.719 114.946V124.532Z" fill="#1958FA"/>
<path d="M107.067 124.532C107.067 125.178 106.678 125.676 106.205 125.676C105.732 125.676 105.344 125.156 105.344 124.532V114.946C105.344 114.305 105.732 113.802 106.205 113.802C106.678 113.802 107.067 114.328 107.067 114.946V124.532Z" fill="#1958FA"/>
<path d="M110.418 124.532C110.418 125.178 110.035 125.676 109.557 125.676C109.084 125.676 108.695 125.156 108.695 124.532V114.946C108.695 114.305 109.084 113.802 109.557 113.802C110.035 113.802 110.418 114.328 110.418 114.946V124.532Z" fill="#1958FA"/>
<path d="M261.018 123.582C265.001 123.557 268.975 123.94 272.882 124.726C276.181 125.404 279.393 126.465 282.453 127.889C283.87 128.568 285.247 129.332 286.575 130.177C287.752 130.932 288.88 131.763 289.953 132.665C291.059 133.596 292.108 134.595 293.095 135.656C293.562 136.154 294.007 136.663 294.446 137.189C294.66 137.447 294.874 137.71 295.082 137.979L295.392 138.373C295.155 138.064 295.566 138.614 295.606 138.665C297.221 140.886 298.602 143.273 299.727 145.786C299.862 146.076 299.992 146.373 300.116 146.678C300.33 147.176 299.975 146.324 300.178 146.827C300.24 146.976 300.302 147.125 300.358 147.279C300.617 147.925 300.853 148.583 301.079 149.241C301.507 150.499 301.882 151.773 302.205 153.062C302.52 154.326 302.768 155.607 302.993 156.894C303.044 157.197 303.089 157.506 303.134 157.809L303.201 158.267C303.274 158.781 303.151 157.861 303.201 158.375C303.286 159.027 303.353 159.685 303.41 160.343C303.622 162.762 303.659 165.194 303.522 167.618C303.462 168.762 303.357 169.889 303.207 170.999C303.28 170.427 303.167 171.262 303.145 171.405C303.106 171.657 303.066 171.914 303.021 172.166C302.931 172.698 302.83 173.235 302.717 173.762C302.143 176.409 301.286 178.985 300.161 181.443C297.101 188.262 292.257 194.096 286.158 198.311C274.109 206.604 258.428 208.515 244.38 206.227C239.762 205.396 235.193 204.305 230.693 202.961C226.149 201.691 221.651 200.267 217.18 198.808C210.626 196.681 204.005 194.204 197.125 193.472C194.518 193.174 191.88 193.368 189.343 194.044C187.478 194.649 185.656 195.386 183.893 196.252C181.41 197.344 178.944 198.465 176.461 199.552C167.773 203.356 158.905 206.559 149.491 205.992C142.679 205.581 135.415 203.247 130.731 197.985C128.445 195.334 127.011 192.037 126.621 188.536C126.159 184.383 127.02 180.236 128.389 176.33C130.135 171.628 132.543 167.208 135.539 163.209C138.227 159.452 141.38 156.063 144.92 153.125C145.708 152.478 145.573 151.128 144.92 150.465C144.568 150.121 144.099 149.928 143.61 149.928C143.122 149.928 142.653 150.121 142.301 150.465C135.663 156.006 130.313 162.969 126.632 170.856C122.967 178.675 121.137 187.804 124.943 195.926C128.214 202.858 135.314 206.93 142.397 208.675C150.798 210.734 159.35 209.693 167.497 207.022C172.711 205.306 177.733 203.018 182.75 200.782C184.873 199.832 186.99 198.803 189.174 197.996C189.716 197.797 190.269 197.628 190.83 197.493C191.106 197.424 191.393 197.367 191.674 197.316L192.102 197.241C192.423 197.19 191.793 197.276 192.333 197.207C193.588 197.069 194.852 197.048 196.111 197.144C196.432 197.144 196.753 197.19 197.068 197.224L197.558 197.276H197.721C198.459 197.373 199.191 197.504 199.917 197.647C203.171 198.344 206.385 199.221 209.545 200.273C225.755 205.386 242.151 211.712 259.402 210.694C274.503 209.79 289.379 203.687 298.703 191.207C302.588 186.033 305.25 180.021 306.484 173.636C307.339 168.893 307.509 164.049 306.991 159.256C305.808 148.057 301.079 137.138 292.408 129.862C283.602 122.478 272.178 119.801 260.962 119.778C258.575 119.778 258.575 123.536 260.962 123.542L261.018 123.582Z" fill="#1958FA" stroke="#1958FA" stroke-linecap="round"/>
<path d="M264.817 103.134V215.139C264.794 216.104 264.435 217.03 263.804 217.752C263.174 218.474 262.312 218.947 261.371 219.086C214.631 224.799 167.385 224.799 120.645 219.086C119.704 218.947 118.843 218.474 118.212 217.752C117.581 217.03 117.223 216.104 117.199 215.139V103.134C117.221 102.169 117.58 101.243 118.211 100.52C118.842 99.7974 119.704 99.3254 120.645 99.1877C167.385 93.4739 214.631 93.4739 261.371 99.1877C262.312 99.3254 263.175 99.7974 263.806 100.52C264.436 101.243 264.795 102.169 264.817 103.134V103.134Z" fill="#F5FAFF" stroke="#1958FA" stroke-linecap="round"/>
<path d="M234.684 66.9285C233.85 60.9684 229.932 55.5747 224.847 52.629C221.595 50.7845 217.919 49.849 214.195 49.9178H163.994C161.196 49.9226 158.429 50.5173 155.868 51.6643C153.308 52.8113 151.009 54.4856 149.119 56.5814C145.701 60.4486 143.825 65.472 143.86 70.6692V89.9219C143.86 93.1307 143.86 96.2995 144.924 99.3882C145.941 102.347 147.603 105.035 149.784 107.251C151.966 109.468 154.612 111.155 157.525 112.189C160.047 113.104 162.705 113.27 165.351 113.27H212.342C213.845 113.316 215.349 113.276 216.847 113.15C221.817 112.662 226.431 110.311 229.787 106.554C233.143 102.798 235.001 97.9062 234.999 92.8333V75.102C234.999 74.9018 234.999 74.7073 234.999 74.53C235.076 71.9918 234.971 69.4512 234.684 66.9285V66.9285ZM227.978 73.306C227.978 73.9695 227.978 74.633 227.978 75.2908V92.8333C227.978 93.4053 227.944 94.023 227.888 94.6122C227.698 95.7738 227.39 96.9123 226.97 98.0097C226.613 98.8021 226.199 99.5668 225.731 100.298C225.591 100.515 225.444 100.727 225.292 100.938C224.938 101.384 224.56 101.802 224.166 102.208C223.772 102.614 223.423 102.923 223.04 103.26L222.933 103.352L222.398 103.729C221.648 104.243 220.857 104.692 220.033 105.074C218.962 105.496 217.851 105.807 216.717 106C215.314 106.106 213.907 106.14 212.5 106.103H165.436C164.349 106.103 163.273 106.103 162.192 106C160.193 105.732 158.286 104.983 156.63 103.815C156.416 103.678 156.207 103.524 155.999 103.369C155.565 103.009 155.154 102.62 154.755 102.225C154.355 101.831 154.045 101.47 153.719 101.081C153.692 101.042 153.662 101.006 153.629 100.973L153.251 100.401C152.749 99.6352 152.308 98.8299 151.934 97.9925C151.512 96.8839 151.204 95.7338 151.016 94.5607C150.956 93.9429 150.917 93.3195 150.898 92.6903C150.853 91.0716 150.898 89.4415 150.898 87.8457V71.6816C150.898 70.6291 150.898 69.5881 150.999 68.5414C151.191 67.3925 151.494 66.2659 151.906 65.1782C152.262 64.3852 152.676 63.6204 153.144 62.8903C153.285 62.6729 153.437 62.4613 153.584 62.2497C153.938 61.8035 154.321 61.386 154.71 60.9799C155.098 60.5738 155.453 60.2649 155.836 59.9274L155.943 59.8359C156.123 59.7101 156.297 59.5785 156.478 59.4584C157.228 58.942 158.021 58.4923 158.848 58.1143C159.918 57.692 161.027 57.3815 162.159 57.1877C163.562 57.0819 164.969 57.0475 166.376 57.0847H213.395C214.476 57.0847 215.552 57.0847 216.633 57.1877C217.766 57.3821 218.876 57.6906 219.949 58.1086C220.729 58.4732 221.482 58.8957 222.201 59.3726C222.421 59.5099 222.629 59.6643 222.837 59.8131C223.271 60.1734 223.688 60.5623 224.087 60.957C224.487 61.3517 224.791 61.712 225.118 62.101L225.208 62.2096L225.585 62.7816C226.089 63.5468 226.532 64.3521 226.908 65.1896C227.327 66.2992 227.635 67.449 227.826 68.6215C227.965 70.1787 228.016 71.7428 227.978 73.306V73.306Z" fill="#1958FA" stroke="#1958FA" stroke-linecap="round"/>
<path d="M275.189 199.369C275.144 200.425 274.73 201.43 274.023 202.205C273.315 202.979 272.359 203.472 271.326 203.596C218.948 209.709 166.053 209.709 113.675 203.596C112.642 203.472 111.686 202.979 110.978 202.205C110.271 201.43 109.857 200.425 109.812 199.369V79.4944C109.858 78.4394 110.271 77.4351 110.979 76.6616C111.687 75.8881 112.642 75.3959 113.675 75.2732C166.053 69.1605 218.948 69.1605 271.326 75.2732C272.359 75.3959 273.314 75.8881 274.022 76.6616C274.73 77.4351 275.143 78.4394 275.189 79.4944V199.369Z" fill="#F5FAFF" stroke="#1958FA" stroke-linecap="round"/>
<path d="M244.854 181.639C244.838 182.391 244.559 183.114 244.067 183.678C243.575 184.241 242.903 184.609 242.169 184.716C205.727 189.171 168.891 189.171 132.449 184.716C131.715 184.609 131.041 184.241 130.549 183.678C130.056 183.115 129.776 182.392 129.758 181.639V94.3148C129.775 93.561 130.054 92.8378 130.547 92.2741C131.04 91.7105 131.714 91.3431 132.449 91.2375C168.891 86.7818 205.727 86.7818 242.169 91.2375C242.903 91.3433 243.576 91.7109 244.068 92.2746C244.56 92.8384 244.839 93.5615 244.854 94.3148V181.639Z" fill="#1958FA" stroke="#1958FA" stroke-linecap="round"/>
<path d="M240.85 97.352V178.601C240.832 179.301 240.571 179.972 240.114 180.495C239.657 181.018 239.032 181.36 238.35 181.461C204.444 185.602 170.172 185.602 136.266 181.461C135.705 181.378 135.179 181.131 134.753 180.752C134.326 180.372 134.017 179.876 133.861 179.322C133.798 179.085 133.766 178.841 133.766 178.596V97.3749C133.783 96.675 134.043 96.0038 134.5 95.4803C134.958 94.9568 135.583 94.6148 136.266 94.515C170.172 90.3739 204.444 90.3739 238.35 94.515C239.028 94.6152 239.65 94.9542 240.107 95.4727C240.564 95.9913 240.827 96.6564 240.85 97.352V97.352Z" fill="#F5FAFF" stroke="#1958FA" stroke-linecap="round"/>
<path d="M268.979 91.3289H249.723V184.618H268.979V91.3289Z" fill="url(#paint0_linear_1708_7)"/>
<path d="M267.251 115.398C267.938 117.686 264.96 120.62 260.596 121.97C256.233 123.32 252.151 122.576 251.453 120.3C250.754 118.023 253.75 115.078 258.113 113.722C262.477 112.367 266.559 113.116 267.251 115.398Z" fill="#F5FAFF" stroke="#1958FA" stroke-linecap="round"/>
<path d="M265.709 98.0154C266.272 99.8457 263.862 102.214 260.354 103.306C256.846 104.399 253.553 103.792 253.001 101.962C252.449 100.132 254.848 97.758 258.355 96.6712C261.863 95.5845 265.157 96.185 265.709 98.0154Z" fill="#F5FAFF" stroke="#1958FA" stroke-linecap="round"/>
<path d="M267.251 134.456C267.938 136.744 264.96 139.678 260.596 141.033C256.233 142.389 252.151 141.605 251.453 139.357C250.754 137.11 253.75 134.135 258.113 132.785C262.477 131.436 266.559 132.179 267.251 134.456Z" fill="#F5FAFF" stroke="#1958FA" stroke-linecap="round"/>
<path d="M267.251 153.515C267.938 155.803 264.96 158.737 260.596 160.093C256.233 161.448 252.151 160.699 251.453 158.423C250.754 156.146 253.75 153.2 258.113 151.845C262.477 150.489 266.559 151.261 267.251 153.515Z" fill="#F5FAFF" stroke="#1958FA" stroke-linecap="round"/>
<path d="M267.251 172.572C267.938 174.86 264.96 177.795 260.596 179.15C256.233 180.506 252.151 179.756 251.453 177.48C250.754 175.204 253.75 172.258 258.113 170.902C262.477 169.547 266.559 170.296 267.251 172.572Z" fill="#F5FAFF" stroke="#1958FA" stroke-linecap="round"/>
<path d="M148.769 194.823C149.45 197.111 146.472 200.045 142.108 201.401C137.745 202.756 133.662 202.007 132.964 199.73C132.266 197.454 135.262 194.508 139.625 193.153C143.989 191.797 148.082 192.546 148.769 194.823Z" fill="url(#paint1_linear_1708_7)"/>
<path d="M246.739 194.822C247.42 197.11 244.441 200.044 240.078 201.4C235.714 202.756 231.632 202.006 230.94 199.73C230.247 197.453 233.231 194.508 237.595 193.152C241.958 191.796 246.052 192.546 246.739 194.822Z" fill="url(#paint2_linear_1708_7)"/>
<path d="M203.65 192.672H176.613V195.257H203.65V192.672Z" fill="#1958FA"/>
<path d="M153.649 98.3135H139.207V106.59H153.649V98.3135Z" fill="#F5FAFF" stroke="#1958FA" stroke-linecap="round"/>
<path d="M151.433 101.138H141.434V103.77H151.433V101.138Z" fill="#1958FA"/>
<path d="M172.536 98.3135H158.094V106.59H172.536V98.3135Z" fill="#F5FAFF" stroke="#1958FA" stroke-linecap="round"/>
<path d="M170.316 101.138H160.316V103.77H170.316V101.138Z" fill="#1958FA"/>
<path d="M201.794 103.031H178.09V106.589H201.794V103.031Z" fill="#1958FA"/>
<path d="M190.313 98.5989H178.09V99.7257H190.313V98.5989Z" fill="#1958FA"/>
<path d="M232.16 96.8713H222.16V101.075H232.16V96.8713Z" fill="#1958FA"/>
<path d="M143.457 115.387L142.286 116.256L142.055 114.574L143.676 113.39H144.864V123H143.479L143.457 115.387Z" fill="#1958FA"/>
<path d="M149.403 122.999V120.711H146.684V119.23L149.009 113.379H150.766V119.013H151.503V120.694H150.766V122.982L149.403 122.999ZM149.403 118.995V116.862C149.403 116.29 149.403 115.718 149.454 115.077H149.443C149.245 115.695 149.082 116.256 148.879 116.862L148.057 118.961V118.995H149.403Z" fill="#1958FA"/>
<path d="M156.199 115.226H153.818L153.688 116.702C153.819 116.687 153.951 116.687 154.082 116.702C154.385 116.695 154.686 116.753 154.964 116.874C155.243 116.994 155.493 117.173 155.698 117.4C156.242 118.075 156.508 118.938 156.441 119.808C156.441 121.598 155.462 123.177 153.806 123.177C153.197 123.177 152.604 122.976 152.117 122.605L152.371 120.917C152.779 121.209 153.262 121.374 153.761 121.392C153.939 121.386 154.115 121.343 154.275 121.264C154.436 121.186 154.579 121.074 154.694 120.936C154.81 120.798 154.896 120.637 154.946 120.464C154.997 120.29 155.012 120.107 154.989 119.928C154.989 118.938 154.488 118.332 153.26 118.332C152.98 118.328 152.7 118.357 152.427 118.418L152.832 113.379H156.21L156.199 115.226Z" fill="#1958FA"/>
<path d="M175.434 131.665H175.31L174.218 115.884L172.743 121.896L172.18 114.535L169.038 126.157L167.912 116.319L166.662 119.751L162.574 119.883V119.762L166.583 119.631L168.024 115.799L169.151 125.522L172.309 113.825L172.872 121.135L174.359 115.112L175.44 130.916L177.039 113.619H177.163L178.773 130.207L180.614 116.571L181.74 124.069L183.041 113.162L184.904 125.688L186.537 117.783L188.395 120.998L189.33 117.961L190.456 120.62L192.55 116.17V116.451C192.55 116.491 192.55 120.397 192.731 120.941C192.731 120.975 192.731 120.986 192.776 120.986C193.068 121.055 194.206 119.94 194.848 119.225L194.926 119.145L196.373 124.653L199.189 112.424L199.752 124.435L201.959 118.453L202.972 128.954L205.545 115.141L206.874 121.947L208.53 120.455L209.791 124.127L211.452 118.876L212.775 122.13L215.776 118.127L215.956 122.216L218.507 117.589L220.151 122.216L222.819 110.079L223.011 126.289L225.714 119.328L228.084 123.028L228.258 119.991L230.421 118.796V125.465L232.003 128.325L233.816 120.946L234.621 117.051L235.409 121.839H237.391V121.965H235.302L234.61 117.726L233.934 120.975L232.048 128.657L230.297 125.494V118.979L228.382 120.037L228.185 123.389L225.742 119.574L222.893 126.901L222.712 111.137L220.19 122.662L218.501 117.886L215.883 122.662L215.691 118.475L212.769 122.376L211.48 119.23L209.791 124.51L208.468 120.66L206.778 122.176L205.551 115.799L202.933 129.835L201.807 118.967L199.555 125.019L198.992 113.316L196.261 125.156L194.746 119.385C194.38 119.78 193.057 121.192 192.629 121.101C192.597 121.094 192.567 121.078 192.544 121.054C192.52 121.031 192.503 121.002 192.494 120.969C192.347 119.556 192.285 118.135 192.308 116.714L190.332 120.918L189.206 118.31L188.294 121.295L186.509 118.087L184.82 126.352L182.968 114.083L181.673 124.99L180.546 117.44L178.722 131.242L177.033 114.26L175.434 131.665Z" fill="#1958FA" stroke="#1958FA" stroke-linejoin="round"/>
<path d="M227.499 158.028L226.277 135.846L225.055 156.815H224.931L223.563 139.85L222.775 148.819H222.64L221.7 135.526L220.286 151.336L218.969 140.599L217.572 144.689L216.869 140.863L216.024 144.203L214.515 138.832C214.515 140.096 214.515 143.614 214.369 144.22C214.369 144.34 214.284 144.38 214.234 144.386C213.89 144.437 213.006 142.899 212.635 142.212L211.458 149.723L209.363 134.531L208.935 149.545L207.213 141.732L206.385 155.111H206.261L204.324 137.711L203.373 145.827L202.078 143.871L201.047 148.876L199.758 142.064L198.789 146.068L196.537 141.057L196.391 146.474L194.358 140.296L193.046 146.485L191.11 131.774L190.974 152.005L188.762 142.481L186.915 147.309L185.226 141.846L183.925 154.43L182.428 144.243L181.926 140.188L181.403 145.513H179.781V145.387H181.29L181.91 139.095L182.551 144.243L183.903 153.452L185.164 141.28L186.915 146.971L188.773 142.104L190.839 151.004L190.98 130.922H191.098L193.052 145.839L194.302 139.907L196.261 145.85L196.402 140.599L198.716 145.747L199.741 141.526L201.019 148.287L201.982 143.597L203.254 145.518L204.296 136.67L206.312 154.401L207.151 140.857L208.84 148.55L209.256 133.782H209.375L211.458 148.882L212.584 141.841L212.668 142.001C213.282 143.145 214.037 144.289 214.234 144.289C214.234 144.289 214.234 144.289 214.267 144.226C214.408 143.511 214.408 138.466 214.408 138.42V137.968L216.035 143.751L216.902 140.319L217.623 144.249L219.059 140.096L220.303 150.209L221.677 134.765H221.801L222.741 148.052L223.529 139.129H223.653L225.005 155.94L226.238 134.777H226.362L227.572 156.769L228.377 137.202H228.495L229.543 144.323L229.971 134.914L232.403 150.003L233.248 137.499L234.374 142.556L237.442 142.727V142.847L234.278 142.676L233.343 138.374L232.482 151.09L230.066 136.115L229.667 144.969H229.543L228.501 137.865L227.673 158.056L227.499 158.028Z" fill="#1958FA" stroke="#1958FA" stroke-linejoin="round"/>
<path d="M144.302 160.121C144.507 160.156 144.717 160.156 144.922 160.121C145.379 160.084 145.809 159.881 146.132 159.549C146.555 159.048 146.823 158.431 146.903 157.776V157.776C146.781 157.995 146.602 158.176 146.386 158.299C146.169 158.422 145.924 158.483 145.676 158.474C144.64 158.474 143.762 157.33 143.762 155.471C143.762 153.612 144.725 152.011 146.076 152.011C147.652 152.011 148.396 153.904 148.396 156.152C148.396 158.148 147.99 159.584 147.32 160.573C147.059 160.966 146.711 161.292 146.305 161.526C145.898 161.759 145.444 161.893 144.978 161.917C144.763 161.941 144.546 161.941 144.33 161.917L144.302 160.121ZM145.169 155.305C145.169 156.135 145.451 156.844 146.036 156.844C146.217 156.833 146.391 156.765 146.533 156.651C146.675 156.536 146.779 156.38 146.83 156.203C146.889 156.019 146.913 155.825 146.903 155.631C146.903 154.613 146.661 153.607 146.008 153.607C145.502 153.618 145.158 154.299 145.169 155.305V155.305Z" fill="#1958FA"/>
<path d="M153.486 152.142V153.549L150.958 161.74H149.443L151.971 154.007H149.156V152.16L153.486 152.142Z" fill="#1958FA"/>
<path d="M146.776 176.479V174.764H144.727V173.66L146.478 169.255H147.795V173.494H148.358V174.764H147.795V176.479H146.776ZM146.776 173.482V171.881C146.776 171.446 146.776 171 146.81 170.537H146.782C146.63 171 146.511 171.423 146.354 171.881L145.734 173.459L146.776 173.482Z" fill="#1958FA"/>
<path d="M149.001 174.821C149.304 175.078 149.677 175.234 150.071 175.268C150.192 175.269 150.312 175.243 150.422 175.193C150.533 175.143 150.631 175.07 150.711 174.977C150.792 174.885 150.851 174.776 150.886 174.659C150.921 174.541 150.931 174.417 150.915 174.295C150.93 174.163 150.916 174.03 150.876 173.904C150.836 173.778 150.769 173.662 150.681 173.564C150.593 173.466 150.486 173.388 150.366 173.336C150.246 173.283 150.117 173.257 149.986 173.26H149.547V172.047H149.964C150.073 172.052 150.182 172.034 150.285 171.994C150.387 171.954 150.48 171.892 150.557 171.814C150.635 171.735 150.696 171.641 150.736 171.538C150.777 171.434 150.795 171.324 150.791 171.212C150.803 171.116 150.793 171.018 150.764 170.925C150.735 170.833 150.686 170.747 150.621 170.676C150.557 170.604 150.477 170.547 150.389 170.51C150.301 170.472 150.206 170.454 150.11 170.457C149.749 170.488 149.408 170.641 149.142 170.892L148.922 169.668C149.315 169.315 149.822 169.121 150.346 169.125C151.337 169.125 151.884 169.937 151.884 170.926C151.912 171.259 151.848 171.593 151.699 171.89C151.55 172.188 151.321 172.436 151.039 172.608V172.608C151.602 172.768 152.041 173.42 152.041 174.37C152.041 175.651 151.321 176.583 150.149 176.583C149.647 176.592 149.159 176.411 148.781 176.074L149.001 174.821Z" fill="#1958FA"/>
<path d="M184.443 160.059H159.449V160.436H184.443V160.059Z" fill="#1958FA"/>
<path d="M171.464 165.452H159.449V165.83H171.464V165.452Z" fill="#1958FA"/>
<path d="M171.464 148.144H159.449V148.522H171.464V148.144Z" fill="#1958FA"/>
<path d="M171.464 138.369H159.449V138.747H171.464V138.369Z" fill="#1958FA"/>
<path d="M184.443 173.037H159.449V173.415H184.443V173.037Z" fill="#1958FA"/>
<path d="M235.34 170.08H215.836V176.6H235.34V170.08Z" fill="#F5FAFF" stroke="#1958FA" stroke-linecap="round"/>
<path d="M232.255 171.109H218.922V175.565H232.255V171.109Z" fill="url(#paint3_linear_1708_7)"/>
<path d="M212.133 170.08H192.629V176.6H212.133V170.08Z" fill="#F5FAFF" stroke="#1958FA" stroke-linecap="round"/>
<path d="M209.048 171.109H195.715V175.565H209.048V171.109Z" fill="url(#paint4_linear_1708_7)"/>
<defs>
<linearGradient id="paint0_linear_1708_7" x1="259.351" y1="91.3289" x2="259.351" y2="184.618" gradientUnits="userSpaceOnUse">
<stop stop-color="#ACE34D"/>
<stop offset="1" stop-color="#68CEFF"/>
</linearGradient>
<linearGradient id="paint1_linear_1708_7" x1="140.865" y1="192.477" x2="140.865" y2="202.076" gradientUnits="userSpaceOnUse">
<stop stop-color="#ACE34D"/>
<stop offset="1" stop-color="#68CEFF"/>
</linearGradient>
<linearGradient id="paint2_linear_1708_7" x1="238.838" y1="192.477" x2="238.838" y2="202.075" gradientUnits="userSpaceOnUse">
<stop stop-color="#ACE34D"/>
<stop offset="1" stop-color="#68CEFF"/>
</linearGradient>
<linearGradient id="paint3_linear_1708_7" x1="225.588" y1="171.109" x2="225.588" y2="175.565" gradientUnits="userSpaceOnUse">
<stop stop-color="#ACE34D"/>
<stop offset="1" stop-color="#68CEFF"/>
</linearGradient>
<linearGradient id="paint4_linear_1708_7" x1="202.381" y1="171.109" x2="202.381" y2="175.565" gradientUnits="userSpaceOnUse">
<stop stop-color="#ACE34D"/>
<stop offset="1" stop-color="#68CEFF"/>
</linearGradient>
</defs>
</svg>
