<svg width="336" height="187" viewBox="0 0 336 187" fill="none" xmlns="http://www.w3.org/2000/svg">
<rect x="92.5" y="11.2666" width="242.214" height="174.916" rx="10.5" fill="white" stroke="#1958FA" stroke-linecap="round"/>
<path d="M93 21.7666C93 16.2438 97.4772 11.7666 103 11.7666H324.214C329.737 11.7666 334.214 16.2438 334.214 21.7666V37.476H93V21.7666Z" fill="url(#paint0_linear_1708_6)"/>
<circle cx="109.635" cy="25.3775" r="4.53695" fill="white" stroke="#1958FA" stroke-linecap="round"/>
<circle cx="123.248" cy="25.3775" r="4.53695" fill="white" stroke="#1958FA" stroke-linecap="round"/>
<circle cx="137.615" cy="25.3775" r="4.53695" fill="white" stroke="#1958FA" stroke-linecap="round"/>
<path d="M286.62 78.9192C286.62 78.9192 306.877 85.4826 321.133 155.359L299.567 162.999L277.03 104.09L286.62 78.9192Z" fill="white" stroke="#1958FA" stroke-linecap="round"/>
<path d="M246.835 6.47308C246.835 6.47308 246.835 -5.00417 268.91 2.60681C288.01 9.20493 282.297 22.9857 289.549 45.2283C298.521 72.7378 276.949 82.1604 266.682 79.66L245.846 78.815L240.266 52.7178L246.835 6.47308Z" fill="#1958FA"/>
<path d="M250.824 8.93885C250.824 8.93885 246.772 1.87193 240.301 5.12468C233.686 8.46425 232.268 15.4096 233.327 25.8277C234.658 38.8445 213.29 61.1623 242.049 78.0917L260.09 78.8268L250.824 8.93885Z" fill="#1958FA"/>
<path d="M261.988 84.1109C261.988 84.1109 254.024 101.7 198.079 129.835L182.759 112.853L237.529 75.6606L261.988 84.1109Z" fill="white" stroke="#1958FA" stroke-linecap="round"/>
<path fill-rule="evenodd" clip-rule="evenodd" d="M182.854 62.991L182.941 65.1846C182.978 66.1639 182.894 67.1391 182.695 68.0892L193.649 98.8351C190.103 102.223 186.435 105.453 182.646 108.524L175.387 75.0531L155.53 62.7711C155.307 62.6248 155.126 62.4241 155.004 62.188C154.881 61.952 154.821 61.6884 154.829 61.4225C154.838 61.1607 154.912 60.9053 155.046 60.6803C155.18 60.4553 155.369 60.268 155.595 60.1361C155.822 60.0042 156.078 59.9319 156.34 59.9261C156.601 59.9203 156.861 59.9811 157.092 60.1029L162.377 61.9781L153.411 56.2656C153.144 56.0743 152.944 55.8033 152.84 55.4914C152.736 55.1795 152.733 54.8427 152.833 54.5292L152.896 54.3382C152.967 54.1187 153.086 53.9178 153.245 53.7503C153.403 53.5828 153.598 53.4529 153.813 53.3702C154.028 53.2875 154.259 53.254 154.489 53.2723C154.719 53.2906 154.942 53.3601 155.142 53.4758L164.119 58.3376L154.181 49.7485C153.898 49.501 153.715 49.1583 153.667 48.785C153.619 48.4118 153.709 48.0339 153.921 47.7227L154.181 47.3408C154.303 47.1559 154.464 46.9995 154.652 46.8824C154.84 46.7653 155.051 46.6902 155.271 46.6621C155.491 46.6341 155.714 46.6539 155.925 46.72C156.137 46.7862 156.332 46.8973 156.496 47.0456L168.246 56.0977L159.28 46.953C159.046 46.6837 158.913 46.3417 158.902 45.9852C158.892 45.6286 159.005 45.2793 159.222 44.9967L159.604 44.4989C159.739 44.3259 159.909 44.1834 160.102 44.0807C160.296 43.9781 160.509 43.9176 160.728 43.9034C160.947 43.8892 161.166 43.9215 161.371 43.9982C161.577 44.0749 161.764 44.1943 161.919 44.3485L175.718 57.4752L174.132 52.1967C173.987 51.7078 173.991 51.1867 174.143 50.7001C174.296 50.2135 174.59 49.7834 174.988 49.4649C175.214 49.2842 175.477 49.1547 175.758 49.0855C176.039 49.0163 176.331 49.009 176.615 49.064C176.899 49.1191 177.168 49.2352 177.403 49.4043C177.638 49.5735 177.833 49.7916 177.975 50.0437L180.498 54.5871C181.933 57.1646 182.74 60.0436 182.854 62.991Z" fill="white"/>
<path d="M182.941 65.1846L183.44 65.1648L183.44 65.1658L182.941 65.1846ZM182.854 62.991L182.354 63.0108L182.354 63.0104L182.854 62.991ZM182.695 68.0892L182.224 68.257C182.193 68.1704 182.187 68.0769 182.206 67.9869L182.695 68.0892ZM193.648 98.8351L194.119 98.6673C194.186 98.8531 194.136 99.0604 193.994 99.1967L193.648 98.8351ZM182.646 108.524L182.961 108.912C182.826 109.022 182.644 109.053 182.48 108.996C182.316 108.938 182.194 108.8 182.157 108.63L182.646 108.524ZM175.386 75.0531L175.649 74.6279C175.765 74.6992 175.846 74.8145 175.875 74.9471L175.386 75.0531ZM155.53 62.7711L155.266 63.1965L155.255 63.1888L155.53 62.7711ZM155.004 62.188L155.447 61.9576L155.447 61.9576L155.004 62.188ZM154.829 61.4225L154.329 61.4071L154.329 61.4068L154.829 61.4225ZM155.595 60.1361L155.847 60.568L155.847 60.568L155.595 60.1361ZM156.34 59.9261L156.328 59.4262H156.328L156.34 59.9261ZM157.092 60.1029L156.925 60.5741C156.903 60.5662 156.881 60.5566 156.86 60.5456L157.092 60.1029ZM162.377 61.9781L162.645 61.5565C162.86 61.6931 162.937 61.969 162.826 62.1975C162.714 62.426 162.449 62.5344 162.209 62.4494L162.377 61.9781ZM153.411 56.2656L153.143 56.6872C153.135 56.6825 153.128 56.6775 153.12 56.6723L153.411 56.2656ZM152.832 54.5292L152.356 54.3783L152.358 54.3711L152.832 54.5292ZM152.896 54.3382L153.372 54.4918L153.37 54.4963L152.896 54.3382ZM153.245 53.7503L153.608 54.0941V54.0941L153.245 53.7503ZM155.142 53.4758L154.904 53.9155C154.899 53.9132 154.895 53.9108 154.891 53.9084L155.142 53.4758ZM164.119 58.3376L164.446 57.9593C164.639 58.1262 164.675 58.4118 164.53 58.6218C164.385 58.8318 164.105 58.8988 163.881 58.7773L164.119 58.3376ZM154.181 49.7485L153.854 50.1268L153.852 50.1251L154.181 49.7485ZM153.666 48.785L154.162 48.7213L153.666 48.785ZM153.921 47.7227L153.507 47.4415L153.507 47.4411L153.921 47.7227ZM154.181 47.3408L154.598 47.6164L154.594 47.6224L154.181 47.3408ZM154.652 46.8824L154.916 47.3069V47.3069L154.652 46.8824ZM155.271 46.6621L155.208 46.1662L155.271 46.6621ZM155.925 46.72L155.776 47.1972L155.776 47.1972L155.925 46.72ZM156.496 47.0456L156.191 47.4417C156.181 47.4338 156.171 47.4256 156.161 47.417L156.496 47.0456ZM168.245 56.0977L168.602 55.7477C168.786 55.9353 168.794 56.2332 168.619 56.4296C168.445 56.6261 168.148 56.6541 167.94 56.4938L168.245 56.0977ZM159.28 46.953L158.923 47.303C158.916 47.2958 158.909 47.2885 158.903 47.2809L159.28 46.953ZM158.902 45.9852L158.402 45.9999V45.9999L158.902 45.9852ZM159.222 44.9967L159.619 45.3011L159.618 45.3017L159.222 44.9967ZM159.604 44.4989L159.207 44.1945L159.209 44.1919L159.604 44.4989ZM160.102 44.0807L160.336 44.5225L160.102 44.0807ZM160.728 43.9034L160.76 44.4024V44.4024L160.728 43.9034ZM161.371 43.9982L161.196 44.4666L161.196 44.4666L161.371 43.9982ZM161.919 44.3485L161.575 44.7108L161.568 44.7039L161.919 44.3485ZM175.717 57.4752L176.196 57.3313C176.262 57.5485 176.172 57.7824 175.979 57.9012C175.786 58.0199 175.537 57.9938 175.373 57.8375L175.717 57.4752ZM174.132 52.1967L173.653 52.3406L173.652 52.339L174.132 52.1967ZM174.143 50.7001L174.62 50.8497V50.8497L174.143 50.7001ZM174.988 49.4649L174.676 49.0744L174.676 49.0744L174.988 49.4649ZM175.758 49.0855L175.877 49.571V49.571L175.758 49.0855ZM176.615 49.064L176.71 48.5731H176.71L176.615 49.064ZM177.403 49.4043L177.695 48.9987L177.695 48.9987L177.403 49.4043ZM177.975 50.0437L178.41 49.7981L178.412 49.8009L177.975 50.0437ZM180.498 54.5871L180.061 54.8302L180.061 54.8299L180.498 54.5871ZM182.441 65.2044L182.354 63.0108L183.353 62.9712L183.44 65.1648L182.441 65.2044ZM182.206 67.9869C182.396 67.0764 182.476 66.1418 182.441 65.2033L183.44 65.1658C183.479 66.186 183.392 67.2019 183.185 68.1916L182.206 67.9869ZM183.166 67.9214L194.119 98.6673L193.177 99.0029L182.224 68.257L183.166 67.9214ZM193.994 99.1967C190.438 102.594 186.76 105.832 182.961 108.912L182.331 108.136C186.109 105.073 189.767 101.852 193.303 98.4736L193.994 99.1967ZM182.157 108.63L174.898 75.1591L175.875 74.9471L183.134 108.418L182.157 108.63ZM155.793 62.3458L175.649 74.6279L175.123 75.4783L155.267 63.1963L155.793 62.3458ZM155.447 61.9576C155.531 62.1179 155.654 62.2541 155.804 62.3534L155.255 63.1888C154.961 62.9956 154.722 62.7304 154.56 62.4185L155.447 61.9576ZM155.329 61.4379C155.323 61.6184 155.364 61.7973 155.447 61.9576L154.56 62.4185C154.398 62.1066 154.319 61.7584 154.329 61.4071L155.329 61.4379ZM155.476 60.9362C155.385 61.0884 155.335 61.2612 155.329 61.4382L154.329 61.4068C154.34 61.0603 154.439 60.7223 154.617 60.4245L155.476 60.9362ZM155.847 60.568C155.694 60.6573 155.566 60.784 155.476 60.9362L154.617 60.4245C154.794 60.1267 155.044 59.8788 155.343 59.7042L155.847 60.568ZM156.351 60.426C156.174 60.4299 156 60.4788 155.847 60.568L155.343 59.7042C155.643 59.5296 155.982 59.4339 156.328 59.4262L156.351 60.426ZM156.86 60.5456C156.703 60.4632 156.528 60.422 156.351 60.426L156.328 59.4262C156.675 59.4185 157.018 59.4991 157.325 59.6602L156.86 60.5456ZM162.209 62.4494L156.925 60.5741L157.259 59.6317L162.544 61.5069L162.209 62.4494ZM153.68 55.8439L162.645 61.5565L162.108 62.3998L153.143 56.6872L153.68 55.8439ZM153.314 55.3333C153.385 55.545 153.52 55.729 153.702 55.8588L153.12 56.6723C152.767 56.4197 152.503 56.0616 152.365 55.6495L153.314 55.3333ZM153.309 54.6801C153.242 54.8929 153.243 55.1216 153.314 55.3333L152.365 55.6495C152.228 55.2374 152.225 54.7924 152.356 54.3783L153.309 54.6801ZM153.37 54.4963L153.307 54.6873L152.358 54.3711L152.422 54.1801L153.37 54.4963ZM153.608 54.0941C153.5 54.2074 153.42 54.3433 153.372 54.4918L152.42 54.1847C152.514 53.8941 152.672 53.6282 152.882 53.4065L153.608 54.0941ZM153.992 53.8369C153.846 53.8929 153.715 53.9807 153.608 54.0941L152.882 53.4065C153.092 53.1848 153.348 53.0129 153.634 52.9034L153.992 53.8369ZM154.45 53.7707C154.294 53.7584 154.138 53.781 153.992 53.8369L153.634 52.9034C153.919 52.7939 154.224 52.7497 154.529 52.7739L154.45 53.7707ZM154.891 53.9084C154.756 53.8302 154.605 53.7831 154.45 53.7707L154.529 52.7739C154.833 52.7981 155.128 52.8901 155.393 53.0433L154.891 53.9084ZM163.881 58.7773L154.904 53.9155L155.38 53.0362L164.357 57.8979L163.881 58.7773ZM154.508 49.3702L164.446 57.9593L163.792 58.7159L153.854 50.1268L154.508 49.3702ZM154.162 48.7213C154.195 48.9733 154.318 49.2047 154.51 49.3718L153.852 50.1251C153.477 49.7973 153.234 49.3432 153.171 48.8488L154.162 48.7213ZM154.334 48.004C154.191 48.2141 154.13 48.4692 154.162 48.7213L153.171 48.8488C153.107 48.3543 153.227 47.8537 153.507 47.4415L154.334 48.004ZM154.594 47.6224L154.334 48.0044L153.507 47.4411L153.768 47.0591L154.594 47.6224ZM154.916 47.3069C154.789 47.386 154.681 47.4915 154.598 47.6163L153.764 47.0652C153.926 46.8202 154.138 46.6131 154.388 46.458L154.916 47.3069ZM155.334 47.1581C155.186 47.1771 155.043 47.2278 154.916 47.3069L154.388 46.458C154.637 46.3028 154.916 46.2033 155.208 46.1662L155.334 47.1581ZM155.776 47.1972C155.633 47.1525 155.482 47.1392 155.334 47.1581L155.208 46.1662C155.499 46.129 155.795 46.1552 156.075 46.2429L155.776 47.1972ZM156.161 47.417C156.05 47.3169 155.919 47.2419 155.776 47.1972L156.075 46.2429C156.355 46.3305 156.613 46.4776 156.831 46.6741L156.161 47.417ZM167.94 56.4938L156.191 47.4417L156.801 46.6495L168.551 55.7016L167.94 56.4938ZM159.637 46.6029L168.602 55.7477L167.888 56.4478L158.923 47.303L159.637 46.6029ZM159.402 45.9704C159.409 46.2116 159.499 46.4429 159.657 46.625L158.903 47.2809C158.593 46.9245 158.416 46.4719 158.402 45.9999L159.402 45.9704ZM159.618 45.3017C159.471 45.4929 159.395 45.7292 159.402 45.9704L158.402 45.9999C158.388 45.528 158.538 45.0657 158.826 44.6916L159.618 45.3017ZM160.001 44.8033L159.619 45.3011L158.826 44.6923L159.207 44.1945L160.001 44.8033ZM160.336 44.5225C160.205 44.5921 160.09 44.6887 159.999 44.8059L159.209 44.1919C159.387 43.9631 159.612 43.7746 159.868 43.6389L160.336 44.5225ZM160.76 44.4024C160.612 44.412 160.468 44.4529 160.336 44.5225L159.868 43.6389C160.124 43.5032 160.406 43.4233 160.695 43.4045L160.76 44.4024ZM161.196 44.4666C161.057 44.4146 160.909 44.3927 160.76 44.4024L160.695 43.4045C160.985 43.3857 161.275 43.4284 161.546 43.5298L161.196 44.4666ZM161.568 44.7039C161.462 44.5995 161.336 44.5186 161.196 44.4666L161.546 43.5298C161.818 43.6313 162.065 43.7891 162.271 43.993L161.568 44.7039ZM175.373 57.8375L161.575 44.7107L162.264 43.9862L176.062 57.113L175.373 57.8375ZM174.61 52.0529L176.196 57.3313L175.239 57.6191L173.653 52.3406L174.61 52.0529ZM174.62 50.8497C174.497 51.2415 174.494 51.6609 174.611 52.0545L173.652 52.339C173.479 51.7547 173.484 51.132 173.666 50.5505L174.62 50.8497ZM175.3 49.8554C174.98 50.1118 174.743 50.458 174.62 50.8497L173.666 50.5505C173.848 49.969 174.2 49.4551 174.676 49.0744L175.3 49.8554ZM175.877 49.571C175.667 49.6229 175.47 49.7199 175.3 49.8554L174.676 49.0744C174.958 48.8484 175.287 48.6866 175.638 48.6L175.877 49.571ZM176.52 49.5549C176.307 49.5136 176.088 49.5191 175.877 49.571L175.638 48.6C175.989 48.5135 176.355 48.5043 176.71 48.5731L176.52 49.5549ZM177.11 49.81C176.934 49.6832 176.733 49.5961 176.52 49.5549L176.71 48.5731C177.066 48.642 177.401 48.7872 177.695 48.9987L177.11 49.81ZM177.539 50.2892C177.433 50.1003 177.286 49.9368 177.11 49.81L177.695 48.9987C177.989 49.2102 178.233 49.4829 178.41 49.7981L177.539 50.2892ZM180.061 54.8299L177.538 50.2864L178.412 49.8009L180.935 54.3443L180.061 54.8299ZM182.354 63.0104C182.243 60.1415 181.457 57.3391 180.061 54.8302L180.935 54.344C182.408 56.9901 183.236 59.9457 183.353 62.9716L182.354 63.0104Z" fill="#1958FA"/>
<path d="M175.719 57.4346C175.719 57.4346 173.404 61.0404 175.285 66.0584" stroke="#1958FA" stroke-linecap="round" stroke-linejoin="round"/>
<path d="M202.056 113.612L189.126 75.2383L172.509 81.5702L180.288 122.768C180.7 124.411 181.46 125.946 182.518 127.269C183.576 128.592 184.906 129.672 186.418 130.435C187.93 131.199 189.589 131.627 191.282 131.693C192.975 131.758 194.661 131.458 196.228 130.813V130.813C202.224 128.342 205.106 121.512 202.056 113.612Z" fill="white" stroke="#1958FA" stroke-linecap="round"/>
<path d="M270.15 71.4475C270.15 71.4475 283.774 76.5176 288.266 80.0482C292.757 83.5787 293.695 91.3633 290.1 102.146C286.506 112.929 273.946 149.751 273.946 149.751L293.949 186.5H218.007L224.374 150.7L223.292 131.484C223.292 131.484 216.201 111.708 223.002 95.8547C232.407 73.9246 249.238 69.0339 249.238 69.0339L270.15 71.4475Z" fill="white" stroke="#1958FA" stroke-linecap="round"/>
<path d="M239.227 104.56L232.304 121.686V186.5" stroke="#1958FA" stroke-linecap="round" stroke-linejoin="round"/>
<path d="M270.396 72.1011L277.012 84.7938L266.16 86.7963L267.948 95.2176L232.301 121.685L231.143 89.6497L237.579 84.4118L235.154 80.2098L244.264 71.5281" stroke="#1958FA" stroke-linecap="round" stroke-linejoin="round"/>
<path d="M271.618 104.808L272.162 100.907C272.322 99.7493 272.015 98.5751 271.31 97.6429C270.604 96.7106 269.558 96.0966 268.4 95.9357V95.9357C267.327 95.7878 266.237 96.0391 265.338 96.642C264.438 97.2449 263.791 98.1573 263.52 99.2058L262.837 103.587" stroke="#1958FA" stroke-miterlimit="10"/>
<path d="M268.402 95.9358C268.402 95.9358 276.105 71.2334 267.325 70.0122" stroke="#1958FA" stroke-miterlimit="10"/>
<path d="M262.839 103.587C262.839 103.587 257.833 133.771 272.898 123.318" stroke="#1958FA" stroke-miterlimit="10"/>
<path d="M274.222 123.243C274.187 123.498 274.078 123.738 273.907 123.931C273.736 124.124 273.512 124.262 273.263 124.328C273.014 124.393 272.75 124.384 272.507 124.299C272.263 124.215 272.05 124.061 271.894 123.856C271.738 123.65 271.647 123.403 271.631 123.146C271.616 122.889 271.677 122.633 271.808 122.41C271.938 122.188 272.131 122.009 272.363 121.897C272.595 121.784 272.855 121.743 273.111 121.779C273.28 121.801 273.443 121.857 273.591 121.943C273.738 122.029 273.867 122.144 273.971 122.28C274.074 122.416 274.149 122.571 274.192 122.736C274.236 122.901 274.246 123.074 274.222 123.243V123.243Z" fill="#1958FA"/>
<path d="M271.613 104.808C271.613 104.808 268.204 135.212 256.565 121.049" stroke="#1958FA" stroke-miterlimit="10"/>
<path d="M255.302 120.615C255.267 120.87 255.308 121.13 255.42 121.361C255.533 121.593 255.711 121.786 255.933 121.916C256.155 122.047 256.411 122.108 256.668 122.093C256.925 122.078 257.172 121.987 257.378 121.832C257.583 121.677 257.738 121.464 257.822 121.221C257.907 120.978 257.917 120.715 257.853 120.466C257.788 120.216 257.651 119.992 257.458 119.821C257.266 119.65 257.027 119.539 256.772 119.503C256.603 119.48 256.43 119.49 256.265 119.533C256.099 119.576 255.944 119.651 255.807 119.754C255.67 119.858 255.556 119.987 255.469 120.134C255.382 120.282 255.326 120.445 255.302 120.615V120.615Z" fill="#1958FA"/>
<path d="M234.433 95.484C234.433 95.484 239.313 69.5546 249.586 68.5764" stroke="#1958FA" stroke-miterlimit="10"/>
<path d="M237.409 99.8658C237.171 102.331 235.458 104.178 233.589 103.992C231.719 103.807 230.394 101.677 230.631 99.206C230.869 96.7346 232.588 94.894 234.457 95.0792C236.326 95.2645 237.652 97.4059 237.409 99.8658Z" fill="#1958FA"/>
<path d="M235.198 99.6515C235.041 101.232 234.121 102.441 233.143 102.343C232.165 102.244 231.499 100.89 231.655 99.3043C231.812 97.7184 232.726 96.5203 233.704 96.6129C234.682 96.7055 235.348 98.0715 235.198 99.6515Z" fill="url(#paint1_linear_1708_6)"/>
<path d="M307.404 142.938L265.321 145.092L266.895 165.083L309.233 168.115C316.948 168.081 322.284 162.987 321.133 155.382C320.102 148.489 314.251 141.966 307.404 142.938Z" fill="white" stroke="#1958FA" stroke-linecap="round"/>
<path d="M234.183 119.336L249.562 173.909C249.693 174.378 249.715 174.871 249.625 175.35C249.535 175.829 249.336 176.28 249.043 176.67C248.751 177.059 248.372 177.375 247.937 177.594C247.501 177.813 247.022 177.929 246.535 177.932H210.789C210.111 177.931 209.452 177.713 208.907 177.31C208.362 176.907 207.961 176.34 207.762 175.692L191.064 121.119C190.919 120.646 190.888 120.146 190.971 119.658C191.054 119.171 191.251 118.71 191.545 118.312C191.838 117.914 192.221 117.591 192.662 117.368C193.104 117.144 193.591 117.028 194.085 117.027H231.127C231.819 117.026 232.492 117.251 233.043 117.668C233.595 118.085 233.995 118.671 234.183 119.336V119.336Z" fill="#1958FA"/>
<path d="M216.668 115.279C216.668 115.279 214.127 111.638 208.177 112.084C201.55 112.581 202.627 118.45 202.627 118.45L216.668 115.279Z" fill="#1958FA"/>
<path d="M228.251 117.2L241.076 162.71C241.187 163.102 241.206 163.515 241.13 163.916C241.055 164.317 240.887 164.695 240.641 165.02C240.395 165.346 240.076 165.609 239.711 165.791C239.346 165.972 238.943 166.067 238.535 166.067H208.728C208.163 166.066 207.613 165.883 207.159 165.547C206.705 165.211 206.37 164.738 206.205 164.197L192.279 118.688C192.158 118.293 192.131 117.876 192.2 117.469C192.27 117.062 192.434 116.677 192.679 116.345C192.925 116.013 193.245 115.744 193.614 115.559C193.983 115.374 194.39 115.278 194.803 115.279H225.698C226.275 115.275 226.838 115.461 227.299 115.808C227.76 116.155 228.094 116.644 228.251 117.2V117.2Z" fill="#1958FA"/>
<path d="M232.152 119.336L247.53 173.909C247.663 174.379 247.684 174.874 247.593 175.354C247.502 175.834 247.302 176.287 247.007 176.676C246.712 177.066 246.331 177.382 245.894 177.6C245.456 177.818 244.975 177.931 244.486 177.932H208.74C208.063 177.931 207.403 177.713 206.859 177.31C206.314 176.906 205.912 176.34 205.713 175.692L189.016 121.118C188.871 120.646 188.839 120.145 188.922 119.658C189.006 119.171 189.202 118.71 189.496 118.312C189.79 117.914 190.173 117.591 190.614 117.367C191.055 117.144 191.542 117.027 192.037 117.026H229.079C229.773 117.022 230.45 117.245 231.005 117.662C231.56 118.08 231.963 118.667 232.152 119.336V119.336Z" fill="#1958FA"/>
<path fill-rule="evenodd" clip-rule="evenodd" d="M251.944 147.621C250.671 145.495 247.414 141.605 239.398 137.735L241.134 144.102C241.134 144.102 235.439 143.257 227.579 139.547C227.204 139.369 226.773 139.348 226.383 139.488C225.992 139.628 225.673 139.918 225.496 140.293C225.318 140.669 225.297 141.099 225.437 141.49C225.577 141.881 225.867 142.2 226.242 142.377L228.997 143.731L224.367 142.574C224.003 142.484 223.619 142.534 223.29 142.713C222.961 142.892 222.71 143.187 222.587 143.541C222.464 143.895 222.477 144.282 222.624 144.627C222.772 144.971 223.042 145.248 223.383 145.404C225.027 146.103 226.708 146.711 228.418 147.227C228.418 147.227 226.207 146.972 223.944 146.567C223.561 146.491 223.162 146.57 222.837 146.787C222.511 147.004 222.285 147.341 222.208 147.725C222.148 148.047 222.199 148.379 222.353 148.668C222.506 148.957 222.753 149.186 223.053 149.317C225.078 150.189 227.152 150.945 229.263 151.58C228.824 151.554 228.375 151.515 227.936 151.478C226.294 151.337 224.802 151.209 224.546 151.817C224.222 152.587 224.28 153.351 230.149 155.018C230.82 155.208 231.517 155.412 232.235 155.621C237.792 157.243 244.523 159.208 249.075 158.085L250.488 157.5L265.788 159.784L264.761 147.621H251.944Z" fill="white"/>
<path d="M251.944 147.621L251.515 147.877C251.605 148.028 251.768 148.121 251.944 148.121V147.621ZM239.398 137.735L239.615 137.285C239.439 137.2 239.229 137.225 239.078 137.351C238.928 137.476 238.864 137.678 238.915 137.867L239.398 137.735ZM241.134 144.102L241.061 144.596C241.228 144.621 241.396 144.56 241.508 144.434C241.62 144.307 241.661 144.133 241.617 143.97L241.134 144.102ZM227.579 139.547L227.366 139.999L227.366 139.999L227.579 139.547ZM226.383 139.488L226.551 139.959L226.383 139.488ZM225.496 140.293L225.948 140.507V140.507L225.496 140.293ZM225.437 141.49L225.908 141.321L225.908 141.321L225.437 141.49ZM226.242 142.377L226.463 141.928L226.456 141.925L226.242 142.377ZM228.997 143.731L228.876 144.216C229.124 144.278 229.379 144.143 229.467 143.903C229.555 143.663 229.447 143.395 229.218 143.283L228.997 143.731ZM224.367 142.574L224.488 142.089L224.486 142.088L224.367 142.574ZM223.29 142.713L223.051 142.274H223.051L223.29 142.713ZM222.587 143.541L223.059 143.705H223.059L222.587 143.541ZM222.624 144.627L222.165 144.823H222.165L222.624 144.627ZM223.383 145.404L223.175 145.859L223.187 145.864L223.383 145.404ZM228.418 147.227L228.361 147.724C228.618 147.753 228.856 147.582 228.908 147.328C228.96 147.075 228.811 146.823 228.563 146.748L228.418 147.227ZM223.944 146.567L223.846 147.058L223.856 147.059L223.944 146.567ZM222.208 147.725L221.718 147.627L221.717 147.633L222.208 147.725ZM222.353 148.668L221.911 148.903L222.353 148.668ZM223.053 149.317L222.854 149.775L222.855 149.776L223.053 149.317ZM229.263 151.58L229.234 152.079C229.487 152.093 229.712 151.916 229.756 151.667C229.8 151.417 229.65 151.174 229.407 151.101L229.263 151.58ZM227.936 151.478L227.979 150.98L227.936 151.478ZM224.546 151.817L225.007 152.011L224.546 151.817ZM230.149 155.018L230.286 154.537L230.149 155.018ZM232.235 155.621L232.375 155.141L232.235 155.621ZM249.075 158.085L249.195 158.571C249.219 158.565 249.243 158.557 249.266 158.547L249.075 158.085ZM250.488 157.5L250.562 157.006C250.472 156.992 250.381 157.004 250.297 157.038L250.488 157.5ZM265.788 159.784L265.714 160.278C265.865 160.301 266.019 160.253 266.13 160.148C266.242 160.044 266.299 159.894 266.286 159.742L265.788 159.784ZM264.761 147.621L265.259 147.579C265.237 147.32 265.02 147.121 264.761 147.121V147.621ZM252.373 147.364C251.042 145.141 247.704 141.189 239.615 137.285L239.181 138.185C247.124 142.02 250.301 145.849 251.515 147.877L252.373 147.364ZM238.915 137.867L240.652 144.233L241.617 143.97L239.88 137.604L238.915 137.867ZM241.134 144.102C241.208 143.607 241.208 143.607 241.208 143.607C241.208 143.607 241.208 143.607 241.208 143.607C241.208 143.607 241.208 143.607 241.207 143.607C241.207 143.607 241.206 143.607 241.205 143.607C241.203 143.606 241.199 143.606 241.194 143.605C241.185 143.604 241.169 143.601 241.149 143.598C241.107 143.591 241.045 143.581 240.961 143.566C240.795 143.536 240.547 143.49 240.224 143.422C239.577 143.287 238.631 143.068 237.439 142.734C235.056 142.065 231.694 140.936 227.793 139.095L227.366 139.999C231.324 141.867 234.74 143.015 237.169 143.697C238.384 144.038 239.352 144.262 240.019 144.401C240.353 144.471 240.611 144.519 240.787 144.55C240.875 144.566 240.942 144.577 240.988 144.585C241.011 144.589 241.029 144.591 241.041 144.593C241.047 144.594 241.052 144.595 241.055 144.595C241.057 144.596 241.058 144.596 241.059 144.596C241.059 144.596 241.06 144.596 241.06 144.596C241.06 144.596 241.06 144.596 241.061 144.596C241.061 144.596 241.061 144.596 241.134 144.102ZM227.793 139.095C227.298 138.861 226.73 138.833 226.214 139.018L226.551 139.959C226.817 139.864 227.11 139.878 227.366 139.999L227.793 139.095ZM226.214 139.018C225.698 139.203 225.277 139.585 225.043 140.08L225.948 140.507C226.068 140.251 226.285 140.054 226.551 139.959L226.214 139.018ZM225.043 140.08C224.81 140.575 224.782 141.143 224.967 141.658L225.908 141.321C225.813 141.055 225.827 140.762 225.948 140.507L225.043 140.08ZM224.967 141.658C225.151 142.174 225.533 142.595 226.029 142.829L226.456 141.925C226.2 141.804 226.003 141.587 225.908 141.321L224.967 141.658ZM226.022 142.826L228.777 144.18L229.218 143.283L226.463 141.928L226.022 142.826ZM229.118 143.246L224.488 142.089L224.246 143.059L228.876 144.216L229.118 143.246ZM224.486 142.088C224.001 141.969 223.49 142.035 223.051 142.274L223.528 143.152C223.748 143.033 224.005 143 224.248 143.059L224.486 142.088ZM223.051 142.274C222.612 142.512 222.279 142.905 222.115 143.377L223.059 143.705C223.141 143.469 223.309 143.272 223.528 143.152L223.051 142.274ZM222.115 143.377C221.951 143.848 221.969 144.364 222.165 144.823L223.084 144.43C222.986 144.2 222.977 143.942 223.059 143.705L222.115 143.377ZM222.165 144.823C222.361 145.282 222.721 145.651 223.175 145.859L223.591 144.949C223.363 144.845 223.183 144.66 223.084 144.43L222.165 144.823ZM223.187 145.864C224.848 146.57 226.546 147.185 228.274 147.706L228.563 146.748C226.87 146.238 225.206 145.635 223.579 144.944L223.187 145.864ZM228.418 147.227C228.476 146.73 228.476 146.73 228.476 146.73C228.476 146.73 228.476 146.73 228.476 146.73C228.476 146.73 228.475 146.73 228.475 146.73C228.475 146.73 228.475 146.73 228.474 146.73C228.473 146.73 228.472 146.73 228.47 146.73C228.466 146.729 228.459 146.729 228.451 146.728C228.435 146.726 228.41 146.723 228.378 146.719C228.314 146.711 228.22 146.7 228.099 146.685C227.858 146.655 227.513 146.611 227.098 146.554C226.266 146.44 225.155 146.276 224.033 146.075L223.856 147.059C224.997 147.264 226.123 147.43 226.962 147.545C227.382 147.602 227.731 147.647 227.976 147.677C228.098 147.692 228.194 147.704 228.26 147.712C228.292 147.716 228.318 147.719 228.335 147.721C228.343 147.722 228.35 147.723 228.354 147.723C228.356 147.723 228.358 147.723 228.359 147.724C228.36 147.724 228.36 147.724 228.361 147.724C228.361 147.724 228.361 147.724 228.361 147.724C228.361 147.724 228.361 147.724 228.361 147.724C228.361 147.724 228.361 147.724 228.418 147.227ZM224.042 146.077C223.529 145.974 222.995 146.08 222.559 146.371L223.114 147.203C223.329 147.059 223.593 147.007 223.846 147.058L224.042 146.077ZM222.559 146.371C222.123 146.661 221.821 147.113 221.718 147.627L222.698 147.823C222.749 147.569 222.899 147.346 223.114 147.203L222.559 146.371ZM221.717 147.633C221.636 148.066 221.704 148.514 221.911 148.903L222.794 148.434C222.694 148.245 222.66 148.027 222.7 147.816L221.717 147.633ZM221.911 148.903C222.117 149.292 222.45 149.599 222.854 149.775L223.253 148.858C223.056 148.773 222.895 148.623 222.794 148.434L221.911 148.903ZM222.855 149.776C224.898 150.656 226.989 151.418 229.12 152.058L229.407 151.101C227.314 150.472 225.258 149.723 223.251 148.857L222.855 149.776ZM229.293 151.08C228.861 151.055 228.419 151.017 227.979 150.98L227.893 151.976C228.331 152.014 228.787 152.053 229.234 152.079L229.293 151.08ZM227.979 150.98C227.169 150.91 226.349 150.839 225.7 150.867C225.376 150.881 225.056 150.921 224.786 151.016C224.516 151.112 224.226 151.29 224.086 151.623L225.007 152.011C224.995 152.04 224.987 152.006 225.12 151.959C225.253 151.912 225.457 151.879 225.743 151.866C226.314 151.842 227.061 151.905 227.893 151.976L227.979 150.98ZM224.086 151.623C223.996 151.836 223.882 152.158 223.975 152.529C224.068 152.901 224.338 153.21 224.738 153.49C225.524 154.041 227.085 154.667 230.012 155.498L230.286 154.537C227.344 153.701 225.941 153.112 225.312 152.671C225.005 152.456 224.955 152.326 224.945 152.286C224.935 152.245 224.935 152.182 225.007 152.011L224.086 151.623ZM230.012 155.498C230.681 155.688 231.377 155.892 232.094 156.101L232.375 155.141C231.658 154.932 230.958 154.728 230.286 154.537L230.012 155.498ZM232.094 156.101C234.868 156.911 237.964 157.815 240.939 158.374C243.905 158.931 246.812 159.158 249.195 158.571L248.955 157.6C246.786 158.135 244.051 157.941 241.124 157.391C238.206 156.843 235.158 155.953 232.375 155.141L232.094 156.101ZM249.266 158.547L250.679 157.962L250.297 157.038L248.884 157.623L249.266 158.547ZM250.415 157.995L265.714 160.278L265.862 159.289L250.562 157.006L250.415 157.995ZM266.286 159.742L265.259 147.579L264.262 147.663L265.29 159.826L266.286 159.742ZM264.761 147.121H251.944V148.121H264.761V147.121Z" fill="#1958FA"/>
<path d="M236.631 24.7914C236.458 36.9458 244.81 46.953 257.925 47.1382C271.04 47.3234 281.84 37.5998 281.991 25.4223C282.141 13.2447 271.671 3.21441 258.55 3.0292C245.429 2.84399 236.805 12.608 236.631 24.7914Z" fill="#1958FA"/>
<path fill-rule="evenodd" clip-rule="evenodd" d="M265.059 70.0331L261.986 42.9246L250.752 46.3741L249.632 69.0339H249.236C249.236 69.0339 243.378 80.8527 239.223 104.56C239.223 104.56 258.056 88.8688 270.147 71.4475L265.059 70.0331Z" fill="white"/>
<path d="M261.986 42.9246L262.483 42.8682C262.466 42.7205 262.384 42.5878 262.26 42.5063C262.136 42.4248 261.981 42.4029 261.839 42.4466L261.986 42.9246ZM265.059 70.0331L264.562 70.0894C264.585 70.2919 264.729 70.4602 264.925 70.5148L265.059 70.0331ZM250.752 46.3741L250.605 45.8961C250.404 45.9579 250.263 46.1392 250.252 46.3494L250.752 46.3741ZM249.632 69.0339V69.5339C249.899 69.5339 250.118 69.3248 250.131 69.0586L249.632 69.0339ZM249.236 69.0339V68.5339C249.046 68.5339 248.872 68.6416 248.788 68.8119L249.236 69.0339ZM239.223 104.56L238.73 104.473C238.694 104.68 238.791 104.887 238.972 104.992C239.154 105.097 239.382 105.078 239.543 104.944L239.223 104.56ZM270.147 71.4475L270.558 71.7325C270.65 71.5995 270.672 71.43 270.617 71.2777C270.562 71.1254 270.437 71.0091 270.281 70.9657L270.147 71.4475ZM261.489 42.9809L264.562 70.0894L265.556 69.9767L262.483 42.8682L261.489 42.9809ZM250.899 46.8521L262.133 43.4025L261.839 42.4466L250.605 45.8961L250.899 46.8521ZM250.131 69.0586L251.251 46.3988L250.252 46.3494L249.133 69.0093L250.131 69.0586ZM249.632 68.5339H249.236V69.5339H249.632V68.5339ZM249.236 69.0339C248.788 68.8119 248.788 68.8121 248.787 68.8123C248.787 68.8124 248.787 68.8126 248.787 68.8129C248.787 68.8134 248.786 68.8141 248.786 68.815C248.785 68.8167 248.784 68.8192 248.782 68.8224C248.779 68.8288 248.775 68.838 248.769 68.8502C248.757 68.8745 248.74 68.9103 248.717 68.9577C248.672 69.0525 248.606 69.1936 248.521 69.3808C248.35 69.7553 248.103 70.3148 247.794 71.0592C247.175 72.5482 246.309 74.7773 245.313 77.7477C243.322 83.6886 240.812 92.5943 238.73 104.473L239.715 104.646C241.789 92.818 244.285 83.9608 246.262 78.0656C247.25 75.1179 248.108 72.9107 248.717 71.4428C249.022 70.7089 249.265 70.1597 249.431 69.7953C249.514 69.6131 249.578 69.4771 249.62 69.3872C249.642 69.3422 249.658 69.3088 249.668 69.287C249.674 69.276 249.678 69.268 249.68 69.2628C249.681 69.2602 249.682 69.2584 249.683 69.2572C249.683 69.2567 249.683 69.2563 249.684 69.2561C249.684 69.2559 249.684 69.2559 249.684 69.2559C249.684 69.2559 249.684 69.256 249.236 69.0339ZM239.223 104.56C239.543 104.944 239.543 104.944 239.543 104.943C239.543 104.943 239.543 104.943 239.544 104.943C239.544 104.942 239.545 104.942 239.546 104.941C239.549 104.939 239.552 104.936 239.557 104.932C239.566 104.924 239.58 104.912 239.599 104.897C239.635 104.866 239.689 104.821 239.76 104.761C239.902 104.641 240.111 104.463 240.381 104.23C240.922 103.766 241.707 103.083 242.687 102.209C244.646 100.461 247.384 97.9502 250.501 94.8935C256.731 88.7832 264.487 80.4801 270.558 71.7325L269.736 71.1624C263.716 79.8361 256.01 88.0891 249.801 94.1796C246.697 97.2232 243.971 99.7236 242.022 101.463C241.047 102.332 240.266 103.011 239.73 103.472C239.461 103.703 239.254 103.879 239.114 103.997C239.044 104.057 238.991 104.101 238.956 104.131C238.938 104.146 238.924 104.157 238.916 104.165C238.911 104.168 238.908 104.171 238.906 104.173C238.905 104.174 238.904 104.174 238.903 104.175C238.903 104.175 238.903 104.175 238.903 104.175C238.903 104.175 238.903 104.175 239.223 104.56ZM270.281 70.9657L265.193 69.5513L264.925 70.5148L270.013 71.9292L270.281 70.9657Z" fill="#1958FA"/>
<path fill-rule="evenodd" clip-rule="evenodd" d="M249.463 8.94449C253.414 8.26252 257.469 8.49416 261.317 9.62166C277.886 14.3169 273.318 30.2509 272.255 33.3484C273.08 33.9502 273.706 35.1047 273.927 36.6417C274.342 39.5805 273.103 42.8082 271.161 43.8558C270.309 44.315 269.464 44.277 268.749 43.8418C267.436 46.7792 264.331 50.2186 262.278 51.3287C255.205 55.1602 251.466 56.1152 245.366 53.2907C237.425 49.6097 234.843 37.9067 236.4 22.3433C237.309 12.996 244.156 9.91684 249.463 8.94449Z" fill="white"/>
<path d="M261.317 9.62166L261.176 10.1015L261.18 10.1027L261.317 9.62166ZM249.463 8.94449L249.378 8.45175L249.373 8.45268L249.463 8.94449ZM272.255 33.3484L271.782 33.1862C271.711 33.3936 271.783 33.6231 271.961 33.7523L272.255 33.3484ZM273.927 36.6417L274.422 36.5717L274.422 36.5706L273.927 36.6417ZM271.161 43.8558L270.923 43.4157L271.161 43.8558ZM268.749 43.8418L269.008 43.4146C268.886 43.34 268.737 43.3217 268.6 43.3644C268.463 43.4071 268.351 43.5067 268.292 43.6378L268.749 43.8418ZM262.278 51.3287L262.04 50.8888L262.039 50.889L262.278 51.3287ZM245.366 53.2907L245.155 53.7444L245.156 53.7445L245.366 53.2907ZM236.4 22.3433L236.898 22.3931L236.898 22.3917L236.4 22.3433ZM261.457 9.14184C257.536 7.99287 253.405 7.75682 249.378 8.45178L249.548 9.43721C253.424 8.76822 257.402 8.99545 261.176 10.1015L261.457 9.14184ZM272.728 33.5106C273.268 31.938 274.708 27.0854 273.891 22.0049C273.482 19.4554 272.502 16.8355 270.545 14.5491C268.587 12.261 265.676 10.3371 261.453 9.14061L261.18 10.1027C265.243 11.2538 267.974 13.0825 269.786 15.1993C271.599 17.3179 272.517 19.7554 272.904 22.1635C273.681 26.9982 272.305 31.6613 271.782 33.1862L272.728 33.5106ZM271.961 33.7523C272.642 34.2493 273.223 35.2593 273.432 36.7127L274.422 36.5706C274.189 34.95 273.518 33.6512 272.55 32.9445L271.961 33.7523ZM273.432 36.7116C273.627 38.0924 273.433 39.5485 272.961 40.7789C272.486 42.0184 271.753 42.9683 270.923 43.4157L271.398 44.2959C272.511 43.6957 273.369 42.508 273.895 41.137C274.424 39.757 274.642 38.1298 274.422 36.5717L273.432 36.7116ZM270.923 43.4157C270.221 43.7943 269.566 43.7536 269.008 43.4146L268.489 44.269C269.362 44.8003 270.397 44.8357 271.398 44.2959L270.923 43.4157ZM262.515 51.7685C263.618 51.1726 264.953 49.985 266.167 48.6C267.386 47.2095 268.523 45.5734 269.205 44.0457L268.292 43.6378C267.662 45.0476 266.59 46.5999 265.415 47.9409C264.235 49.2876 262.991 50.3746 262.04 50.8888L262.515 51.7685ZM245.156 53.7445C248.267 55.185 250.825 55.6824 253.527 55.3008C256.204 54.9227 258.974 53.6868 262.516 51.7683L262.039 50.889C258.508 52.802 255.873 53.9595 253.387 54.3106C250.926 54.6582 248.565 54.2209 245.576 52.837L245.156 53.7445ZM235.903 22.2935C235.121 30.1072 235.373 36.9911 236.839 42.4036C238.304 47.8177 241.003 51.8197 245.155 53.7444L245.576 52.8371C241.787 51.0807 239.225 47.3907 237.804 42.1423C236.383 36.8922 236.123 30.1428 236.898 22.3931L235.903 22.2935ZM249.373 8.45268C246.672 8.94756 243.542 9.98422 240.963 12.1181C238.371 14.2636 236.369 17.4921 235.903 22.2949L236.898 22.3917C237.34 17.8471 239.216 14.8625 241.601 12.8885C244 10.9029 246.947 9.91378 249.553 9.43631L249.373 8.45268Z" fill="#1958FA"/>
<path d="M245.832 39.7816L243.922 38.2305L246.133 35.1687" stroke="#1958FA" stroke-linecap="round" stroke-linejoin="round"/>
<path d="M253.038 30.6683C253.002 31.1285 253.07 31.5924 253.232 32.0019C253.394 32.4115 253.642 32.7486 253.947 32.9712C254.252 33.1938 254.6 33.2921 254.946 33.2537C255.293 33.2153 255.623 33.042 255.897 32.7554C256.17 32.4688 256.373 32.0816 256.482 31.6421C256.59 31.2026 256.599 30.7303 256.507 30.2841C256.415 29.8379 256.227 29.4376 255.965 29.1332C255.703 28.8287 255.379 28.6336 255.035 28.5722C254.8 28.5347 254.562 28.5593 254.335 28.6445C254.107 28.7297 253.894 28.8738 253.709 29.0686C253.523 29.2633 253.368 29.5049 253.253 29.7794C253.138 30.0539 253.065 30.356 253.038 30.6683V30.6683Z" fill="#1958FA"/>
<path d="M238.92 30.6683C238.885 31.1285 238.953 31.5924 239.115 32.0019C239.276 32.4115 239.525 32.7486 239.83 32.9712C240.135 33.1938 240.483 33.2921 240.829 33.2537C241.176 33.2153 241.506 33.042 241.779 32.7554C242.052 32.4688 242.256 32.0816 242.365 31.6421C242.473 31.2026 242.482 30.7303 242.39 30.2841C242.298 29.8379 242.11 29.4376 241.848 29.1332C241.586 28.8287 241.262 28.6336 240.917 28.5722C240.683 28.5347 240.445 28.5593 240.217 28.6445C239.99 28.7297 239.777 28.8738 239.592 29.0686C239.406 29.2633 239.251 29.5049 239.136 29.7794C239.021 30.0539 238.948 30.356 238.92 30.6683V30.6683Z" fill="#1958FA"/>
<path d="M241.743 23.5122C241.809 23.7315 241.825 23.9628 241.791 24.1893C241.757 24.4158 241.673 24.6319 241.545 24.8219C241.417 25.0119 241.248 25.171 241.051 25.2879C240.854 25.4047 240.634 25.4763 240.406 25.4974C239.046 25.7347 237.448 25.8562 236.684 26.2209C236.468 26.3192 236.222 26.3282 236 26.2458C235.778 26.1633 235.597 25.9962 235.498 25.781V25.781C235.395 25.5948 235.342 25.3858 235.342 25.1733C235.342 24.9608 235.395 24.7518 235.498 24.5656C235.926 23.8305 237.575 22.6903 239.231 22.3778C241.326 22.0073 241.743 23.5122 241.743 23.5122Z" fill="#1958FA"/>
<path d="M251.496 22.2156C251.496 22.2156 250.877 23.9172 253.435 24.276C255.501 24.6187 257.537 25.1238 259.524 25.7867C259.814 25.8989 260.132 25.9185 260.433 25.8428C260.735 25.7672 261.006 25.6 261.208 25.3642V25.3642C261.347 25.1859 261.42 24.9647 261.414 24.7386C261.407 24.5125 261.322 24.2958 261.173 24.1256C260.548 23.3616 257.411 21.4863 255.05 21.1217C252.023 20.6644 251.496 22.2156 251.496 22.2156Z" fill="#1958FA"/>
<path d="M244.186 42.3458L253.406 42.1201C253.406 42.1201 253.406 45.8706 249.025 45.9632C244.348 46.0848 244.186 42.3458 244.186 42.3458Z" stroke="#1958FA"/>
<path d="M248.437 32.6304C247.827 28.6083 250.594 24.8537 254.616 24.2442C258.638 23.6348 262.393 26.4014 263.002 30.4236C263.611 34.4457 260.845 38.2003 256.823 38.8097C252.801 39.4192 249.046 36.6526 248.437 32.6304Z" stroke="#1958FA" stroke-miterlimit="10"/>
<path d="M237.303 39.9265C233.63 39.9265 230.653 36.633 230.653 32.5702C230.653 28.5074 233.63 25.2139 237.303 25.2139C240.976 25.2139 243.953 28.5074 243.953 32.5702C243.953 36.633 240.976 39.9265 237.303 39.9265Z" stroke="#1958FA" stroke-miterlimit="10"/>
<path d="M243.961 32.391C244.558 32.0292 245.239 31.8298 245.936 31.8125C246.634 31.7952 247.324 31.9608 247.938 32.2927" stroke="#1958FA" stroke-miterlimit="10"/>
<path d="M262.637 31.7485L268.176 34.8682" stroke="#1958FA" stroke-miterlimit="10"/>
<path d="M277.019 30.1395C277.019 30.1395 248.08 21.3767 251.431 4.85827C251.431 4.85827 261.942 2.05697 270.34 11.4274C278.738 20.7979 277.019 30.1395 277.019 30.1395Z" fill="#1958FA"/>
<path d="M268.198 25.0867V40.1697L275.172 28.9877L268.198 25.0867Z" fill="#1958FA"/>
<path d="M251.633 10.9121C251.633 10.9121 246.424 9.1758 243.71 12.4633C240.098 16.9083 238.396 21.2087 234.2 22.3373C234.2 22.3373 232.811 7.2253 249.775 5.85938L257.352 8.55071L251.633 10.9121Z" fill="#1958FA"/>
<path d="M136 93.843C114.774 91.8073 119.255 86.2368 120.911 85.8271C122.566 85.4174 126.704 88.695 127.532 90.7435C128.36 92.792 136.636 99.7569 127.532 100.986C118.428 102.215 99.7397 95.8124 97.5083 92.792C95.2769 89.7715 94.1977 86.2368 97.5083 85.8271C100.819 85.4174 104.958 87.8756 107.44 91.1532C109.923 94.4308 106.992 100.357 98.0661 100.357C89.1405 100.357 83.9622 97.9298 79.2993 95.4716C74.6364 93.0134 73.5057 89.5144 75.9886 87.8756C78.4715 86.2368 85.9209 89.5144 86.7484 91.9726C87.5759 94.4308 89.2313 99.7569 79.2993 99.7569C69.3673 99.7569 36.4143 91.0859 35.5868 88.218C34.7592 85.3501 36.4146 80.4337 39.7252 80.024C43.0358 79.6143 52.9682 84.5307 52.9681 88.218C52.9679 91.9053 54.6233 101.738 46.3466 103.377C26.1033 107.385 1 90.7435 1 90.7435" stroke="#1958FA" stroke-linecap="round"/>
<defs>
<linearGradient id="paint0_linear_1708_6" x1="213.607" y1="11.7666" x2="213.607" y2="37.476" gradientUnits="userSpaceOnUse">
<stop stop-color="#ACE34D"/>
<stop offset="1" stop-color="#68CEFF"/>
</linearGradient>
<linearGradient id="paint1_linear_1708_6" x1="233.426" y1="96.6079" x2="233.426" y2="102.348" gradientUnits="userSpaceOnUse">
<stop stop-color="#ACE34D"/>
<stop offset="1" stop-color="#68CEFF"/>
</linearGradient>
</defs>
</svg>
