<svg width="312" height="142" viewBox="0 0 312 142" fill="none" xmlns="http://www.w3.org/2000/svg">
<path fill-rule="evenodd" clip-rule="evenodd" d="M236.45 31.373C236.45 30.259 237.353 29.356 238.467 29.356H249.068C250.182 29.356 251.085 30.259 251.085 31.373V42.8892C251.085 44.0032 251.989 44.9063 253.103 44.9063L264.62 44.9063C265.734 44.9063 266.637 45.8093 266.637 46.9233V57.5247C266.637 58.6387 265.734 59.5418 264.62 59.5418L253.103 59.5418C251.989 59.5418 251.085 60.4448 251.085 61.5588V73.0748C251.085 74.1888 250.182 75.0919 249.068 75.0919H238.467C237.353 75.0919 236.45 74.1888 236.45 73.0748V61.5588C236.45 60.4448 235.547 59.5418 234.433 59.5418L222.918 59.5418C221.804 59.5418 220.901 58.6387 220.901 57.5247V46.9233C220.901 45.8093 221.804 44.9063 222.918 44.9063L234.433 44.9063C235.547 44.9063 236.45 44.0032 236.45 42.8892V31.373Z" fill="url(#paint0_linear_1505_2059)"/>
<path d="M189.234 1.20898H286.195C292.879 1.20898 298.297 6.62734 298.297 13.3112V59.2584M189.234 1.20898H144.717C109.07 1.20898 80.1717 30.1069 80.1717 65.7543V105.206C80.1717 111.89 85.59 117.308 92.2739 117.308H115.353M189.234 1.20898V61.0175M189.234 73.331V80.3673M189.234 92.6808V117.308M189.234 117.308H231.452M189.234 117.308H154.053M270.152 117.308H286.195C292.879 117.308 298.297 111.89 298.297 105.206V92.6808M298.297 73.331V80.3673" stroke="#1958FA" stroke-linecap="round"/>
<circle cx="19.3498" cy="19.3498" r="19.3498" transform="matrix(-1 0 0 1 270.152 96.199)" fill="#1958FA"/>
<circle cx="19.3498" cy="19.3498" r="19.3498" transform="matrix(-1 0 0 1 154.055 96.199)" fill="#1958FA"/>
<path d="M168.125 51.8128V16.6313H131.794C113.97 16.6313 99.5211 31.0803 99.5211 48.904V49.7958C99.5211 50.9098 100.424 51.8128 101.538 51.8128H168.125Z" fill="white" stroke="#1958FA" stroke-linejoin="round"/>
<path d="M1 135.619H291.046M58.4999 140.619H311" stroke="#1958FA" stroke-linecap="round"/>
<defs>
<linearGradient id="paint0_linear_1505_2059" x1="243.769" y1="29.356" x2="243.769" y2="75.0919" gradientUnits="userSpaceOnUse">
<stop stop-color="#ACE34D"/>
<stop offset="1" stop-color="#68CEFF"/>
</linearGradient>
</defs>
</svg>
