<svg width="268" height="265" viewBox="0 0 268 265" fill="none" xmlns="http://www.w3.org/2000/svg">
<path d="M231.065 105.177H216.401C215.903 105.177 215.425 105.374 215.073 105.727C214.721 106.079 214.523 106.556 214.523 107.054V168.673C214.516 170.276 214.055 171.843 213.195 173.195C212.335 174.547 211.109 175.628 209.661 176.314C203.045 179.489 197.695 184.806 194.48 191.403C191.264 198 190.371 205.489 191.946 212.657C193.521 219.825 197.471 226.251 203.155 230.892C208.84 235.534 215.925 238.119 223.263 238.228H223.733C231.112 238.226 238.271 235.717 244.037 231.114C249.804 226.51 253.835 220.084 255.472 212.889C257.109 205.694 256.253 198.157 253.046 191.512C249.838 184.867 244.469 179.508 237.817 176.314C236.365 175.631 235.136 174.551 234.272 173.199C233.408 171.847 232.945 170.278 232.936 168.673V107.054C232.937 106.808 232.889 106.564 232.795 106.336C232.702 106.108 232.564 105.901 232.39 105.727C232.216 105.552 232.01 105.414 231.782 105.32C231.555 105.225 231.311 105.177 231.065 105.177Z" fill="#F5FAFF" stroke="#1958FA" stroke-linecap="round"/>
<path d="M195.915 198.792C194.895 202.974 194.829 207.333 195.721 211.545C196.614 215.758 198.442 219.715 201.071 223.125C203.7 226.534 207.063 229.309 210.909 231.243C214.756 233.178 218.989 234.222 223.293 234.299H223.705C231.295 234.291 238.571 231.272 243.937 225.905C249.304 220.539 252.323 213.263 252.331 205.673C252.329 203.354 252.048 201.044 251.495 198.792H195.915Z" fill="url(#paint0_linear_1505_2288)"/>
<path fill-rule="evenodd" clip-rule="evenodd" d="M244.19 222.459H200.806L189.165 261.233H255.838L244.19 222.459ZM247.172 222.459H253.607H256.141H256.25C256.651 222.459 257.035 222.299 257.319 222.016C257.602 221.732 257.762 221.348 257.762 220.947C257.762 220.546 257.602 220.162 257.319 219.878C257.035 219.595 256.651 219.436 256.25 219.436H193.943H191.409H191.3C190.899 219.436 190.515 219.595 190.231 219.878C189.948 220.162 189.789 220.546 189.789 220.947C189.789 221.348 189.948 221.732 190.231 222.016C190.515 222.299 190.899 222.459 191.3 222.459H197.824L186.184 261.233H182.958H179.594H179.453C177.954 261.233 177.942 263.555 179.453 263.555H179.459H262.424H265.781H265.923C267.421 263.555 267.434 261.233 265.923 261.233H258.819L247.172 222.459Z" fill="#F5FAFF"/>
<path d="M200.806 222.459V221.959H200.434L200.327 222.315L200.806 222.459ZM244.19 222.459L244.669 222.315L244.562 221.959H244.19V222.459ZM189.165 261.233L188.686 261.09L188.493 261.733H189.165V261.233ZM255.838 261.233V261.733H256.51L256.317 261.089L255.838 261.233ZM247.172 222.459V221.959H246.499L246.693 222.602L247.172 222.459ZM257.319 222.016L256.965 221.662L256.965 221.662L257.319 222.016ZM257.319 219.878L256.965 220.232L256.965 220.232L257.319 219.878ZM190.231 219.878L190.585 220.232L190.231 219.878ZM197.824 222.459L198.303 222.602L198.496 221.959H197.824V222.459ZM186.184 261.233V261.733H186.556L186.663 261.377L186.184 261.233ZM258.819 261.233L258.34 261.377L258.447 261.733H258.819V261.233ZM200.806 222.959H244.19V221.959H200.806V222.959ZM189.644 261.377L201.284 222.602L200.327 222.315L188.686 261.09L189.644 261.377ZM255.838 260.733H189.165V261.733H255.838V260.733ZM243.711 222.602L255.359 261.377L256.317 261.089L244.669 222.315L243.711 222.602ZM247.172 222.959H253.607V221.959H247.172V222.959ZM253.607 222.959H256.141V221.959H253.607V222.959ZM256.141 222.959H256.25V221.959H256.141V222.959ZM256.25 222.959C256.784 222.959 257.295 222.747 257.672 222.369L256.965 221.662C256.776 221.852 256.518 221.959 256.25 221.959V222.959ZM257.672 222.369C258.05 221.992 258.262 221.481 258.262 220.947H257.262C257.262 221.215 257.155 221.473 256.965 221.662L257.672 222.369ZM258.262 220.947C258.262 220.414 258.05 219.902 257.672 219.525L256.965 220.232C257.155 220.422 257.262 220.679 257.262 220.947H258.262ZM257.672 219.525C257.295 219.148 256.784 218.936 256.25 218.936V219.936C256.518 219.936 256.776 220.042 256.965 220.232L257.672 219.525ZM256.25 218.936H193.943V219.936H256.25V218.936ZM193.943 218.936H191.409V219.936H193.943V218.936ZM191.409 218.936H191.3V219.936H191.409V218.936ZM191.3 218.936C190.766 218.936 190.255 219.148 189.878 219.525L190.585 220.232C190.774 220.042 191.032 219.936 191.3 219.936V218.936ZM189.878 219.525C189.5 219.902 189.289 220.414 189.289 220.947H190.289C190.289 220.679 190.395 220.422 190.585 220.232L189.878 219.525ZM189.289 220.947C189.289 221.481 189.5 221.992 189.878 222.369L190.585 221.662C190.395 221.473 190.289 221.215 190.289 220.947H189.289ZM189.878 222.369C190.255 222.747 190.766 222.959 191.3 222.959V221.959C191.032 221.959 190.774 221.852 190.585 221.662L189.878 222.369ZM191.3 222.959H197.824V221.959H191.3V222.959ZM197.345 222.315L185.705 261.09L186.663 261.377L198.303 222.602L197.345 222.315ZM186.184 260.733H182.958V261.733H186.184V260.733ZM182.958 260.733H179.594V261.733H182.958V260.733ZM179.594 260.733H179.453V261.733H179.594V260.733ZM179.453 260.733C178.937 260.733 178.516 260.939 178.23 261.269C177.953 261.589 177.825 262 177.824 262.393C177.823 262.786 177.949 263.198 178.226 263.519C178.512 263.851 178.935 264.055 179.453 264.055V263.055C179.215 263.055 179.073 262.969 178.983 262.865C178.885 262.752 178.824 262.583 178.824 262.396C178.825 262.208 178.887 262.038 178.986 261.923C179.077 261.818 179.22 261.733 179.453 261.733V260.733ZM179.453 264.055H179.459V263.055H179.453V264.055ZM179.459 264.055H262.424V263.055H179.459V264.055ZM262.424 264.055H265.781V263.055H262.424V264.055ZM265.781 264.055H265.923V263.055H265.781V264.055ZM265.923 264.055C266.438 264.055 266.86 263.85 267.145 263.519C267.422 263.199 267.55 262.789 267.551 262.396C267.552 262.002 267.427 261.591 267.149 261.269C266.863 260.938 266.44 260.733 265.923 260.733V261.733C266.16 261.733 266.303 261.819 266.392 261.923C266.491 262.037 266.552 262.205 266.551 262.393C266.551 262.58 266.489 262.75 266.389 262.865C266.298 262.97 266.156 263.055 265.923 263.055V264.055ZM265.923 260.733H258.819V261.733H265.923V260.733ZM259.298 261.089L247.65 222.315L246.693 222.602L258.34 261.377L259.298 261.089Z" fill="#1958FA"/>
<path d="M75.3471 157.624C76.4933 157.624 77.5926 157.169 78.4031 156.359C79.2136 155.548 79.669 154.449 79.669 153.303V150.518C79.6698 149.95 79.5587 149.387 79.3418 148.862C79.125 148.337 78.8068 147.86 78.4054 147.458C78.004 147.056 77.5273 146.737 77.0025 146.519C76.4777 146.301 75.9152 146.189 75.3471 146.189H29.9353C28.7873 146.189 27.6864 146.645 26.8747 147.457C26.063 148.269 25.607 149.37 25.607 150.518V153.303C25.607 153.871 25.719 154.433 25.9366 154.958C26.1542 155.483 26.4731 155.959 26.8751 156.361C27.2771 156.762 27.7543 157.08 28.2794 157.297C28.8045 157.514 29.3672 157.625 29.9353 157.624C30.5791 157.625 31.2148 157.769 31.7958 158.046C32.3768 158.324 32.8885 158.727 33.2935 159.228C33.6984 159.728 33.9865 160.313 34.1365 160.939C34.2866 161.565 34.2948 162.217 34.1607 162.847L14.0948 257.491C13.9606 258.121 13.969 258.773 14.1194 259.4C14.2698 260.026 14.5584 260.611 14.9641 261.112C15.3698 261.613 15.8823 262.016 16.4641 262.293C17.0459 262.57 17.6823 262.714 18.3267 262.713H86.9557C87.5995 262.713 88.2352 262.568 88.8162 262.291C89.3972 262.014 89.9089 261.61 90.3139 261.109C90.7189 260.609 91.0069 260.024 91.157 259.398C91.307 258.772 91.3152 258.12 91.1811 257.491L71.1153 162.847C70.981 162.216 70.9894 161.564 71.1398 160.938C71.2902 160.311 71.5788 159.726 71.9845 159.225C72.3902 158.725 72.9027 158.321 73.4845 158.044C74.0663 157.767 74.7027 157.624 75.3471 157.624Z" fill="#F5FAFF" stroke="#1958FA" stroke-linecap="round"/>
<path d="M66.0357 163.92C65.7577 162.605 65.7612 161.247 66.0461 159.933C66.3309 158.62 66.8906 157.382 67.6883 156.301C68.486 155.219 69.5036 154.319 70.6742 153.659C71.8448 152.999 73.1419 152.595 74.48 152.472V151.385H30.8047V152.472C32.1431 152.594 33.4406 152.997 34.6115 153.657C35.7824 154.317 36.8001 155.217 37.5975 156.299C38.3948 157.381 38.9538 158.619 39.2373 159.933C39.5209 161.247 39.5227 162.606 39.2426 163.92L31.57 200.135H73.7147L66.0357 163.92Z" fill="#F5FAFF" stroke="#1958FA" stroke-linecap="round"/>
<path d="M31.5705 200.135L19.4023 257.522H85.8833L73.7152 200.135H31.5705Z" fill="url(#paint1_linear_1505_2288)" stroke="#1958FA" stroke-linecap="round"/>
<path d="M146.118 56.2726L133.898 89.2526L154.35 95.4589L162.467 61.2376C162.581 60.8607 162.541 60.4538 162.355 60.1065C162.169 59.7591 161.853 59.4998 161.476 59.3854L147.97 55.2822C147.593 55.1698 147.187 55.2108 146.84 55.3963C146.493 55.5818 146.234 55.8967 146.118 56.2726Z" fill="#1958FA"/>
<path d="M124.49 146.567L119.98 162.141L124.305 163.393L128.815 147.82L124.49 146.567Z" fill="#1958FA"/>
<path d="M117.26 142.647L110.539 151.851L114.175 154.506L120.896 145.302L117.26 142.647Z" fill="#1958FA"/>
<path d="M137.83 148.152L133.355 148.645L134.492 158.969L138.967 158.477L137.83 148.152Z" fill="#1958FA"/>
<path d="M149.141 192.573L132.021 184.739C131.805 185.768 131.811 186.831 132.04 187.857C132.268 188.883 132.713 189.848 133.346 190.688C135.507 193.57 146.549 198.239 146.208 207.217C146.035 212.156 156.286 207.217 156.286 207.217L149.141 192.573Z" fill="#F5FAFF" stroke="#1958FA" stroke-linecap="round"/>
<path d="M111.825 237.997C112.681 241.547 139.905 253.613 169.29 234.724C198.675 215.835 219.57 135.147 193.845 111.962C168.119 88.7768 148.42 106.257 147.23 111.094C146.04 115.93 148.349 129.995 148.349 129.995C148.349 129.995 164.891 122.323 174.171 124.651C181.979 126.58 197.922 142.659 185.182 173.137C172.441 203.615 156.401 214.298 145.95 213.011C135.499 211.725 109.787 229.591 111.825 237.997Z" fill="#F5FAFF" stroke="#1958FA" stroke-linecap="round"/>
<path d="M93.207 201.286L125.846 210.818L128.2 202.328L95.5545 192.791L93.207 201.286Z" fill="#1958FA"/>
<path d="M114.275 202.965C114.062 203.754 114.17 204.595 114.574 205.305C114.979 206.015 115.649 206.535 116.436 206.753L148.747 215.757C149.579 213.832 150.449 211.933 151.358 210.059L118.095 200.792C117.702 200.682 117.29 200.652 116.885 200.702C116.48 200.753 116.088 200.882 115.733 201.084C115.378 201.286 115.067 201.557 114.816 201.879C114.566 202.202 114.382 202.571 114.275 202.965Z" fill="#F5FAFF" stroke="#1958FA" stroke-linecap="round"/>
<path d="M82.2105 252.616H180.347C183.258 252.616 186.051 253.772 188.109 255.831C190.168 257.89 191.325 260.682 191.325 263.594H71.2579C71.252 262.153 71.531 260.725 72.079 259.392C72.627 258.059 73.4332 256.847 74.451 255.827C75.4689 254.807 76.6785 253.998 78.0102 253.447C79.3418 252.896 80.7693 252.613 82.2105 252.616Z" fill="#F5FAFF" stroke="#1958FA" stroke-linecap="round"/>
<path d="M153.471 206.947C144.294 206.947 135.464 218.697 130.505 227.752C126.492 235.045 114.697 240.499 106.844 243.451C101.705 245.365 97.0813 248.447 93.3382 252.455L93.2031 252.603H180.097C180.097 252.603 174 206.947 153.471 206.947Z" fill="#1958FA"/>
<path d="M151.181 233.495C156.221 233.495 160.307 229.409 160.307 224.369C160.307 219.329 156.221 215.243 151.181 215.243C146.141 215.243 142.055 219.329 142.055 224.369C142.055 229.409 146.141 233.495 151.181 233.495Z" fill="#F5FAFF"/>
<path d="M151.18 218.363C152.368 218.363 153.529 218.715 154.517 219.375C155.505 220.035 156.275 220.973 156.729 222.071C157.184 223.168 157.303 224.376 157.071 225.541C156.839 226.707 156.267 227.777 155.427 228.617C154.587 229.457 153.517 230.029 152.352 230.261C151.186 230.493 149.979 230.374 148.881 229.919C147.783 229.465 146.845 228.695 146.185 227.707C145.525 226.719 145.173 225.558 145.173 224.37C145.174 222.777 145.808 221.25 146.934 220.124C148.06 218.998 149.587 218.364 151.18 218.363ZM151.18 215.243C149.375 215.246 147.612 215.783 146.113 216.788C144.614 217.792 143.446 219.218 142.757 220.886C142.069 222.554 141.89 224.388 142.243 226.158C142.597 227.927 143.467 229.552 144.744 230.827C146.021 232.102 147.647 232.97 149.417 233.321C151.187 233.672 153.021 233.491 154.688 232.8C156.355 232.109 157.779 230.939 158.781 229.438C159.784 227.938 160.319 226.174 160.319 224.37C160.319 223.17 160.082 221.982 159.623 220.874C159.163 219.766 158.49 218.759 157.641 217.912C156.792 217.064 155.785 216.392 154.676 215.934C153.567 215.477 152.379 215.242 151.18 215.243Z" fill="url(#paint2_linear_1505_2288)"/>
<path d="M114.632 134.325L113.133 139.123L143.243 148.532L144.742 143.735L114.632 134.325Z" fill="#1958FA"/>
<path d="M129.817 86.815L114.961 134.651L144.191 143.726L159.035 95.8897C159.242 95.2151 159.174 94.4858 158.845 93.8615C158.516 93.2372 157.953 92.7686 157.279 92.5582L133.136 85.0593C132.463 84.8542 131.736 84.9237 131.115 85.2527C130.493 85.5817 130.026 86.1433 129.817 86.815Z" fill="#F5FAFF" stroke="#1958FA" stroke-linecap="round"/>
<path d="M81.9336 172.648L149.141 192.572L151.18 185.472L83.9723 165.541L81.9336 172.648Z" fill="#1958FA"/>
<path d="M158.594 129.185C166.59 129.185 173.071 122.704 173.071 114.708C173.071 106.713 166.59 100.231 158.594 100.231C150.599 100.231 144.117 106.713 144.117 114.708C144.117 122.704 150.599 129.185 158.594 129.185Z" fill="#F5FAFF" stroke="#1958FA" stroke-linecap="round"/>
<path d="M158.589 105.177C160.474 105.176 162.318 105.734 163.886 106.78C165.454 107.827 166.677 109.315 167.399 111.056C168.122 112.798 168.311 114.714 167.944 116.564C167.577 118.413 166.67 120.112 165.337 121.446C164.005 122.779 162.306 123.688 160.457 124.056C158.608 124.424 156.691 124.236 154.949 123.515C153.207 122.793 151.718 121.572 150.671 120.004C149.623 118.437 149.064 116.594 149.064 114.708C149.067 112.183 150.072 109.761 151.857 107.975C153.643 106.188 156.063 105.182 158.589 105.177ZM158.589 100.225C155.724 100.225 152.924 101.074 150.542 102.666C148.161 104.257 146.304 106.519 145.208 109.166C144.112 111.812 143.825 114.724 144.384 117.534C144.943 120.343 146.322 122.924 148.348 124.95C150.373 126.975 152.954 128.355 155.763 128.913C158.573 129.472 161.485 129.185 164.131 128.089C166.778 126.993 169.04 125.137 170.631 122.755C172.223 120.373 173.072 117.573 173.072 114.708C173.073 112.806 172.699 110.922 171.972 109.165C171.244 107.407 170.177 105.81 168.832 104.465C167.487 103.12 165.89 102.053 164.132 101.326C162.375 100.598 160.491 100.224 158.589 100.225Z" fill="#1958FA"/>
<path d="M113.48 139.417C113.48 139.417 114.96 146.653 125.012 149.707C136.087 153.084 142.705 148.492 142.705 148.492" fill="url(#paint3_linear_1505_2288)"/>
<path d="M75.0011 1L88.0898 15.599L75.0011 30.198" stroke="#1958FA" stroke-linecap="round"/>
<path d="M50.3331 1L63.4219 15.599L50.3331 30.198" stroke="#1958FA" stroke-linecap="round"/>
<path d="M26.1691 1L39.2578 15.599L26.1691 30.198" stroke="#1958FA" stroke-linecap="round"/>
<path d="M1.0011 1L14.0898 15.599L1.0011 30.198" stroke="#1958FA" stroke-linecap="round"/>
<defs>
<linearGradient id="paint0_linear_1505_2288" x1="223.714" y1="198.792" x2="223.714" y2="234.299" gradientUnits="userSpaceOnUse">
<stop stop-color="#ACE34D"/>
<stop offset="1" stop-color="#68CEFF"/>
</linearGradient>
<linearGradient id="paint1_linear_1505_2288" x1="52.6428" y1="200.135" x2="52.6428" y2="257.522" gradientUnits="userSpaceOnUse">
<stop stop-color="#ACE34D"/>
<stop offset="1" stop-color="#68CEFF"/>
</linearGradient>
<linearGradient id="paint2_linear_1505_2288" x1="151.193" y1="215.243" x2="151.193" y2="233.496" gradientUnits="userSpaceOnUse">
<stop stop-color="#ACE34D"/>
<stop offset="1" stop-color="#68CEFF"/>
</linearGradient>
<linearGradient id="paint3_linear_1505_2288" x1="128.093" y1="139.417" x2="128.093" y2="150.947" gradientUnits="userSpaceOnUse">
<stop stop-color="#ACE34D"/>
<stop offset="1" stop-color="#68CEFF"/>
</linearGradient>
</defs>
</svg>
