<svg width="47" height="46" viewBox="0 0 47 46" fill="none" xmlns="http://www.w3.org/2000/svg">
<path d="M23.4993 45.2192C35.7764 45.2192 45.729 35.2666 45.729 22.9895C45.729 10.7124 35.7764 0.759773 23.4993 0.759773C11.2221 0.759773 1.26953 10.7124 1.26953 22.9895C1.26953 35.2666 11.2221 45.2192 23.4993 45.2192Z" stroke="#161616"/>
<path fill-rule="evenodd" clip-rule="evenodd" d="M35.1193 16.6559C35.005 17.1945 34.6264 17.9821 33.9735 19.0695C33.4418 19.9514 32.8985 20.8262 32.3437 21.6938C31.6895 22.6376 31.4965 22.9133 31.5015 22.8904C31.3872 23.0619 31.3402 23.1699 31.3402 23.1635C31.3402 23.1305 31.3656 23.1813 31.4444 23.274L31.8305 23.7021C34.0472 25.981 35.287 27.5434 35.6083 28.5469C35.743 29.0855 35.6782 29.5682 35.3657 29.9366C35.0672 30.2897 34.629 30.4523 34.0993 30.4523H31.4634C30.9934 30.4523 30.559 30.2999 30.2186 30.0332C29.9772 29.8731 29.6343 29.5289 29.135 28.9661C28.7513 28.5283 28.3548 28.1017 27.9461 27.687C26.8701 26.6669 26.0927 26.1652 25.7485 26.1652C25.6481 26.1652 25.6177 26.1728 25.6494 26.1461C25.7231 26.0826 25.7142 26.1156 25.7078 26.3341C25.6837 26.5018 25.6697 26.9464 25.6697 27.6298L25.6672 28.7375C25.7142 29.2989 25.5478 29.7715 25.1184 30.0776C24.7158 30.3469 24.0806 30.4523 23.1584 30.4523C21.6417 30.4523 20.1187 30.0039 18.5969 29.116C17.0853 28.2332 15.7654 26.9782 14.654 25.3713C13.6597 24.0374 12.7885 22.6161 12.0512 21.1247C11.5414 20.1186 11.0947 19.0818 10.7136 18.0202C10.49 17.2225 10.377 16.6585 10.377 16.2863C10.377 15.4035 10.9803 14.8915 11.9051 14.8915H14.5396C15.0122 14.8915 15.4085 15.0122 15.7045 15.2802C15.9687 15.5203 16.1592 15.8811 16.3015 16.3435C16.708 17.5057 17.2008 18.6376 17.7839 19.7478C18.3009 20.7513 18.8128 21.5643 19.3184 22.1803C19.5775 22.4979 19.7922 22.7088 19.9281 22.8244C19.9321 22.744 19.9338 22.6635 19.9332 22.583L19.9345 18.7366C19.919 18.3761 19.8299 18.0225 19.6728 17.6976C19.58 17.5028 19.4612 17.3217 19.3197 17.159C19.0262 16.8033 18.8624 16.4743 18.8624 16.13C18.8622 15.9591 18.8992 15.7902 18.9706 15.6349C19.0421 15.4796 19.1465 15.3417 19.2765 15.2307C19.5267 15.0084 19.8328 14.8915 20.1669 14.8915H24.3207C24.778 14.8915 25.1591 15.044 25.3992 15.3869C25.5935 15.6651 25.6697 16.0335 25.6697 16.5086V21.7332C25.7828 21.6608 25.9721 21.4868 26.216 21.2188C26.7533 20.6243 27.2957 19.8824 27.8368 18.9996C28.2128 18.3645 28.5748 17.6683 28.9318 16.8947L29.3599 16.0437C29.6647 15.3018 30.2681 14.8915 31.0633 14.8915H33.6978C34.8144 14.8915 35.4 15.5978 35.1205 16.6559H35.1193Z" stroke="#161616" stroke-linecap="round" stroke-linejoin="round"/>
</svg>
