<svg width="47" height="48" viewBox="0 0 47 48" fill="none" xmlns="http://www.w3.org/2000/svg">
<g opacity="0.8">
<path d="M23.4993 46.2192C35.7764 46.2192 45.729 36.2666 45.729 23.9895C45.729 11.7124 35.7764 1.75977 23.4993 1.75977C11.2221 1.75977 1.26953 11.7124 1.26953 23.9895C1.26953 36.2666 11.2221 46.2192 23.4993 46.2192Z" stroke="#161616"/>
<path d="M23.4991 23.7405C24.2993 23.7521 25.0938 23.6046 25.8364 23.3064C26.579 23.0082 27.2549 22.5654 27.8249 22.0036C28.3948 21.4419 28.8474 20.7725 29.1563 20.0343C29.4652 19.2961 29.6243 18.5038 29.6243 17.7036C29.6243 16.9033 29.4652 16.1111 29.1563 15.3729C28.8474 14.6347 28.3948 13.9652 27.8249 13.4035C27.2549 12.8418 26.579 12.3989 25.8364 12.1008C25.0938 11.8026 24.2993 11.655 23.4991 11.6666C21.8979 11.6666 20.3622 12.3027 19.2299 13.435C18.0976 14.5673 17.4615 16.1029 17.4615 17.7042C17.4615 19.3055 18.0976 20.8412 19.2299 21.9734C20.3622 23.1057 21.8979 23.7418 23.4991 23.7418M30.459 25.6332C30.1173 24.9486 29.1734 24.3795 27.9184 25.3677C26.2226 26.7041 23.4991 26.7041 23.4991 26.7041C23.4991 26.7041 20.7757 26.7041 19.0786 25.3677C17.8248 24.3795 16.881 24.9486 16.5393 25.6345C15.9448 26.8286 16.6168 27.404 18.1322 28.3783C19.4267 29.2078 21.2038 29.519 22.3521 29.6346L21.3943 30.5924L17.8375 34.1504C17.5781 34.41 17.4323 34.7621 17.4323 35.1291C17.4323 35.4962 17.5781 35.8482 17.8375 36.1079L18.0001 36.2717C18.2597 36.5308 18.6115 36.6763 18.9782 36.6763C19.345 36.6763 19.6968 36.5308 19.9564 36.2717L23.5157 32.715L27.0724 36.2717C27.201 36.4004 27.3537 36.5025 27.5217 36.5721C27.6898 36.6418 27.8699 36.6776 28.0518 36.6776C28.2337 36.6776 28.4138 36.6418 28.5819 36.5721C28.7499 36.5025 28.9026 36.4004 29.0312 36.2717L29.1938 36.1079C29.4528 35.8483 29.5984 35.4965 29.5984 35.1298C29.5984 34.763 29.4528 34.4113 29.1938 34.1517L25.637 30.5924L24.6741 29.6308C25.8237 29.5126 27.5831 29.2014 28.866 28.377C30.3815 27.404 31.0522 26.8273 30.459 25.6332V25.6332ZM23.4991 14.7343C24.2868 14.7343 25.0422 15.0472 25.5992 15.6042C26.1561 16.1611 26.469 16.9165 26.469 17.7042C26.469 18.4919 26.1561 19.2473 25.5992 19.8042C25.0422 20.3612 24.2868 20.6741 23.4991 20.6741C22.7115 20.6741 21.9561 20.3612 21.3991 19.8042C20.8421 19.2473 20.5292 18.4919 20.5292 17.7042C20.5292 16.9165 20.8421 16.1611 21.3991 15.6042C21.9561 15.0472 22.7115 14.7343 23.4991 14.7343Z" stroke="#161616" stroke-linecap="round" stroke-linejoin="round"/>
</g>
</svg>
