<svg width="28" height="28" viewBox="0 0 28 28" fill="none" xmlns="http://www.w3.org/2000/svg">
<path d="M25.925 27.4062C22.7 27.4062 19.5565 26.6873 16.4945 25.2493C13.4315 23.8123 10.719 21.9123 8.357 19.5492C5.994 17.1873 4.094 14.4747 2.657 11.4117C1.219 8.34975 0.5 5.20625 0.5 1.98125C0.5 1.53125 0.65 1.15625 0.95 0.85625C1.25 0.55625 1.625 0.40625 2.075 0.40625H8.15C8.5 0.40625 8.8125 0.51875 9.0875 0.74375C9.3625 0.96875 9.525 1.25625 9.575 1.60625L10.55 6.85625C10.6 7.20625 10.594 7.52475 10.532 7.81175C10.469 8.09975 10.325 8.35625 10.1 8.58125L6.5 12.2562C7.55 14.0562 8.8625 15.7437 10.4375 17.3187C12.0125 18.8937 13.75 20.2563 15.65 21.4062L19.175 17.8812C19.4 17.6562 19.694 17.4873 20.057 17.3743C20.419 17.2623 20.775 17.2313 21.125 17.2812L26.3 18.3312C26.65 18.4062 26.9375 18.5747 27.1625 18.8368C27.3875 19.0997 27.5 19.4062 27.5 19.7562V25.8313C27.5 26.2813 27.35 26.6563 27.05 26.9563C26.75 27.2563 26.375 27.4062 25.925 27.4062Z" fill="#1958FA"/>
</svg>
