<svg width="41" height="40" viewBox="0 0 41 40" fill="none" xmlns="http://www.w3.org/2000/svg">
<g opacity="0.8" clip-path="url(#clip0_1505_1052)">
<path d="M20.5017 38.9044C30.9464 38.9044 39.4136 30.4373 39.4136 19.9925C39.4136 9.54782 30.9464 1.08069 20.5017 1.08069C10.057 1.08069 1.58984 9.54782 1.58984 19.9925C1.58984 30.4373 10.057 38.9044 20.5017 38.9044Z" stroke="#161616"/>
<path d="M20.5025 19.7807C21.1832 19.7906 21.8591 19.665 22.4909 19.4113C23.1226 19.1577 23.6977 18.7809 24.1826 18.303C24.6674 17.8251 25.0525 17.2556 25.3153 16.6276C25.5781 15.9996 25.7134 15.3256 25.7134 14.6448C25.7134 13.964 25.5781 13.29 25.3153 12.6619C25.0525 12.0339 24.6674 11.4644 24.1826 10.9865C23.6977 10.5086 23.1226 10.1319 22.4909 9.87819C21.8591 9.62452 21.1832 9.49897 20.5025 9.50884C19.1402 9.50884 17.8337 10.05 16.8704 11.0133C15.9072 11.9765 15.366 13.283 15.366 14.6453C15.366 16.0076 15.9072 17.3141 16.8704 18.2773C17.8337 19.2406 19.1402 19.7818 20.5025 19.7818M26.4235 21.3909C26.1328 20.8084 25.3299 20.3243 24.2622 21.165C22.8194 22.3019 20.5025 22.3019 20.5025 22.3019C20.5025 22.3019 18.1855 22.3019 16.7417 21.165C15.6751 20.3243 14.8721 20.8084 14.5814 21.392C14.0757 22.4078 14.6474 22.8974 15.9366 23.7262C17.0378 24.4319 18.5497 24.6967 19.5266 24.795L18.7118 25.6099L15.6859 28.6368C15.4652 28.8577 15.3412 29.1572 15.3412 29.4695C15.3412 29.7818 15.4652 30.0813 15.6859 30.3022L15.8242 30.4416C16.0451 30.662 16.3443 30.7858 16.6563 30.7858C16.9684 30.7858 17.2676 30.662 17.4885 30.4416L20.5165 27.4157L23.5424 30.4416C23.6518 30.551 23.7817 30.6379 23.9247 30.6971C24.0676 30.7564 24.2209 30.7869 24.3756 30.7869C24.5304 30.7869 24.6836 30.7564 24.8266 30.6971C24.9695 30.6379 25.0994 30.551 25.2088 30.4416L25.3472 30.3022C25.5676 30.0813 25.6914 29.7821 25.6914 29.47C25.6914 29.158 25.5676 28.8588 25.3472 28.6379L22.3213 25.6099L21.5021 24.7918C22.4801 24.6913 23.9769 24.4265 25.0683 23.7252C26.3576 22.8974 26.9282 22.4067 26.4235 21.3909V21.3909ZM20.5025 12.1187C21.1726 12.1187 21.8152 12.3849 22.2891 12.8587C22.7629 13.3325 23.0291 13.9752 23.0291 14.6453C23.0291 15.3154 22.7629 15.9581 22.2891 16.4319C21.8152 16.9057 21.1726 17.1719 20.5025 17.1719C19.8324 17.1719 19.1897 16.9057 18.7159 16.4319C18.242 15.9581 17.9759 15.3154 17.9759 14.6453C17.9759 13.9752 18.242 13.3325 18.7159 12.8587C19.1897 12.3849 19.8324 12.1187 20.5025 12.1187Z" stroke="#161616" stroke-linecap="round" stroke-linejoin="round"/>
</g>
<defs>
<clipPath id="clip0_1505_1052">
<rect width="39.9851" height="39.9851" fill="white" transform="translate(0.507812)"/>
</clipPath>
</defs>
</svg>
