<svg width="40" height="40" viewBox="0 0 40 40" fill="none" xmlns="http://www.w3.org/2000/svg">
<path d="M20.0095 38.9044C30.4542 38.9044 38.9214 30.4373 38.9214 19.9925C38.9214 9.54782 30.4542 1.08069 20.0095 1.08069C9.56478 1.08069 1.09766 9.54782 1.09766 19.9925C1.09766 30.4373 9.56478 38.9044 20.0095 38.9044Z" stroke="#161616"/>
<path fill-rule="evenodd" clip-rule="evenodd" d="M28.8354 16.0124C28.8386 16.0891 28.8408 16.1734 28.8408 16.2653C28.8408 18.177 28.3761 20.0228 27.4521 21.7908C26.4979 23.6733 25.1535 25.1765 23.432 26.2896C21.543 27.54 19.3752 28.1646 16.9404 28.1646C14.6083 28.1646 12.4675 27.54 10.532 26.294L8.67969 25.102L10.8735 25.3008C11.1339 25.3246 11.4354 25.3365 11.7737 25.3365C13.001 25.3476 14.2116 25.0507 15.2945 24.473C14.8622 24.325 14.457 24.1056 14.0842 23.816C13.3447 23.2561 12.7959 22.4817 12.5129 21.5984L12.26 20.8128L12.6544 20.8517C12.4612 20.6804 12.2816 20.4944 12.1173 20.2951C11.4417 19.4987 11.074 18.4865 11.081 17.4421V16.4198L11.6732 16.77C11.2792 16.0923 11.0747 15.3211 11.081 14.5373C11.081 13.7408 11.2982 12.98 11.7283 12.2635L12.1281 11.5957L12.6144 12.2052C13.5491 13.382 14.7264 14.3437 16.0661 15.0247C17.2408 15.6277 18.4814 15.9973 19.7901 16.1334C19.7847 16.0254 19.7815 15.9173 19.7815 15.8092C19.7815 15.0052 19.9836 14.2487 20.3845 13.5463C20.7865 12.8439 21.3355 12.2873 22.025 11.8853C22.7062 11.4851 23.4827 11.276 24.2728 11.2801C24.932 11.2801 25.548 11.4098 26.1143 11.6713C26.5685 11.88 26.9895 12.1545 27.3635 12.4862C28.1045 12.3174 28.8157 12.0376 29.473 11.6562L30.6942 10.9473L30.2576 12.2905C30.1443 12.6429 29.989 12.9804 29.795 13.2956C29.8837 13.261 29.9723 13.2243 30.0609 13.1853L31.7867 12.4386L30.7212 13.9872C30.197 14.7524 29.5614 15.435 28.8354 16.0124V16.0124Z" stroke="#161616" stroke-linecap="round" stroke-linejoin="round"/>
</svg>
