<svg width="40" height="40" viewBox="0 0 40 40" fill="none" xmlns="http://www.w3.org/2000/svg">
<path d="M19.9939 38.9044C30.4386 38.9044 38.9057 30.4373 38.9057 19.9925C38.9057 9.54782 30.4386 1.08069 19.9939 1.08069C9.54916 1.08069 1.08203 9.54782 1.08203 19.9925C1.08203 30.4373 9.54916 38.9044 19.9939 38.9044Z" stroke="#161616"/>
<path fill-rule="evenodd" clip-rule="evenodd" d="M29.8776 14.6043C29.7803 15.0625 29.4583 15.7326 28.9028 16.6576C28.4505 17.4079 27.9882 18.1522 27.5163 18.8903C26.9597 19.6932 26.7955 19.9278 26.7998 19.9083C26.7025 20.0542 26.6625 20.146 26.6625 20.1406C26.6625 20.1125 26.6842 20.1558 26.7512 20.2347L27.0797 20.5989C28.9655 22.5376 30.0202 23.8668 30.2936 24.7206C30.4082 25.1788 30.3531 25.5894 30.0872 25.9028C29.8333 26.2032 29.4604 26.3416 29.0098 26.3416H26.7674C26.3675 26.3416 25.9979 26.2119 25.7083 25.9849C25.503 25.8488 25.2112 25.5559 24.7865 25.0772C24.46 24.7047 24.1227 24.3418 23.775 23.9889C22.8596 23.1212 22.1983 22.6943 21.9054 22.6943C21.82 22.6943 21.7941 22.7008 21.8211 22.6781C21.8838 22.624 21.8762 22.6521 21.8708 22.838C21.8503 22.9807 21.8384 23.3589 21.8384 23.9403L21.8362 24.8827C21.8762 25.3603 21.7347 25.7623 21.3694 26.0228C21.0268 26.2519 20.4865 26.3416 19.7019 26.3416C18.4116 26.3416 17.1158 25.9601 15.8212 25.2047C14.5352 24.4536 13.4124 23.3859 12.4668 22.0189C11.6209 20.8841 10.8797 19.6749 10.2525 18.4062C9.81877 17.5502 9.43872 16.6681 9.1145 15.765C8.92431 15.0863 8.82812 14.6065 8.82812 14.2899C8.82812 13.5388 9.34145 13.1033 10.1282 13.1033H12.3695C12.7715 13.1033 13.1087 13.2059 13.3605 13.434C13.5853 13.6382 13.7474 13.9451 13.8684 14.3385C14.2142 15.3273 14.6335 16.2902 15.1296 17.2347C15.5694 18.0884 16.0049 18.7801 16.435 19.3042C16.6555 19.5744 16.8381 19.7538 16.9537 19.8521C16.9571 19.7837 16.9585 19.7152 16.9581 19.6468L16.9591 16.3745C16.946 16.0677 16.8702 15.7669 16.7365 15.4905C16.6576 15.3248 16.5566 15.1707 16.4361 15.0323C16.1865 14.7297 16.0471 14.4498 16.0471 14.1569C16.0469 14.0115 16.0784 13.8678 16.1392 13.7357C16.2 13.6036 16.2888 13.4863 16.3994 13.3918C16.6122 13.2027 16.8727 13.1033 17.1569 13.1033H20.6907C21.0798 13.1033 21.404 13.233 21.6082 13.5247C21.7736 13.7614 21.8384 14.0748 21.8384 14.479V18.9238C21.9346 18.8622 22.0956 18.7142 22.3031 18.4861C22.7602 17.9804 23.2217 17.3493 23.682 16.5982C24.0019 16.0578 24.3099 15.4656 24.6136 14.8075L24.9778 14.0834C25.2371 13.4523 25.7505 13.1033 26.427 13.1033H28.6683C29.6182 13.1033 30.1164 13.7041 29.8786 14.6043H29.8776Z" stroke="#161616" stroke-linecap="round" stroke-linejoin="round"/>
</svg>
